<svg xmlns="http://www.w3.org/2000/svg" width="512" height="512" viewBox="0 0 512 512"><title>francis clapperboard icon</title><defs><clipPath id="a"><rect width="312" height="216" x="100" y="214" rx="16"/></clipPath><clipPath id="c"><rect width="314" height="46" x="100" y="220" rx="14"/></clipPath><path id="b" fill="#f5eedf" d="m70 266 26-46h30l-26 46Zm56 0 26-46h30l-26 46Zm56 0 26-46h30l-26 46Zm56 0 26-46h30l-26 46Zm56 0 26-46h30l-26 46Zm56 0 26-46h30l-26 46Zm56 0 26-46h30l-26 46Z"/><path id="d" fill="#f5eedf" d="M70 220h30l26 46H96Zm56 0h30l26 46h-30Zm56 0h30l26 46h-30Zm56 0h30l26 46h-30Zm56 0h30l26 46h-30Zm56 0h30l26 46h-30Zm56 0h30l26 46h-30Z"/></defs><g transform="rotate(-6 256 256)"><rect width="312" height="216" x="100" y="214" fill="#22231e" stroke="#15160f" stroke-width="10" rx="16"/><g clip-path="url(#a)"><use href="#b"/><path fill="#15160f" d="M96 266h320v8H96z"/><rect width="276" height="30" x="118" y="318" fill="#f5eedf" rx="5"/><rect width="276" height="30" x="118" y="368" fill="#f5eedf" rx="5"/></g><g transform="rotate(-15 110 243)"><rect width="314" height="46" x="100" y="220" fill="#22231e" stroke="#15160f" stroke-width="9" rx="14"/><g clip-path="url(#c)"><use href="#d"/></g><rect width="314" height="46" x="100" y="220" fill="none" stroke="#15160f" stroke-width="9" rx="14"/></g><path fill="#2e3a3d" stroke="#15160f" stroke-linejoin="round" stroke-width="8" d="M94 224q-8 20 2 50 22 9 42-11 9-14-1-26-18-17-43-13Z"/><circle cx="110" cy="242" r="6.5" fill="#15160f"/><circle cx="119" cy="264" r="6.5" fill="#15160f"/></g></svg>