<svg xmlns="http://www.w3.org/2000/svg" xml:space="preserve" style="fill-rule:evenodd;clip-rule:evenodd" viewBox="0 0 1000 1000"><path d="M478 54c3.3-.55 11.4-1 18-1s15.38.45 19.5 1 10.2 1.67 13.5 2.5 9.15 2.62 13 4 10.38 4.75 14.5 7.5 9.52 7.25 12 10 5.85 7.92 7.5 11.5 3.67 9.2 4.5 12.5 1.5 8.47 1.5 11.5-.45 7.97-1 11-3.02 9.78-5.5 15-6.3 11.53-8.5 14c-3.05 3.43-3.64 4.62-2.5 5 .83.28 4.42.95 14.5 2.5l7-6.5c3.85-3.57 9.7-8.3 13-10.5s9.6-5.12 14-6.5 10.7-2.72 14-3c3.52-.29 8.89.12 13 1 3.85.82 9.02 2.62 11.5 4s6.3 4.07 8.5 6c2.21 1.94 5.12 5.96 6.5 9 1.58 3.48 2.68 8.07 3 12.5.27 3.85.05 9.25-.5 12s-2.35 7.93-4 11.5-4.58 8.53-10 15.5l4 3.5c2.2 1.93 6.7 4.85 10 6.5s8.02 4.35 10.5 6 7.42 5.7 11 9 8.3 8.7 10.5 12 5.8 9.82 8 14.5 4.9 12.32 6 17c1.5 6.38 2 12 2 22.5 0 8.67-.57 16.67-1.5 21-.83 3.85-2.62 9.7-6.5 19l2.5 9.5c1.38 5.23 3.85 18.95 5.5 30.5s3.45 27.75 4 36 1.45 22.65 2 32 1.9 21.27 3 26.5 3.12 12.88 4.5 17 4.08 10.65 6 14.5 9.35 15.55 16.5 26 15.02 22.83 17.5 27.5 5.62 12.1 7 16.5c2.04 6.53 2.59 10.76 3 23 .41 12.43.16 16.71-1.5 25-1.1 5.5-3.12 12.7-4.5 16s-4.3 9.15-6.5 13c-2.41 4.21-7.39 10.39-12.5 15.5-6.29 6.29-10.19 9.28-21.5 14.5l.5 60.5c.43 51.9.29 61.21-1 65.5-.93 3.11-3.2 6.89-6 10-2.48 2.75-6.3 5.9-8.5 7s-5.8 2.23-8 2.5-17.95.95-35 1.5c-24.42.79-31.53 1.32-33.5 2.5-1.9 1.14-2.14 1.62-1 2 .83.27 3.52.95 6 1.5s6.98 2.12 10 3.5c3.26 1.48 7.94 4.94 11.5 8.5 3.3 3.3 6.9 8.02 8 10.5 1.42 3.2 2 6.67 2 12 0 5.5-.53 8.57-2 11.5-1.1 2.2-3.35 5.12-5 6.5s-5.02 3.4-7.5 4.5-7.88 2.45-12 3c-5 .67-11.17.67-18.5 0-6.05-.55-16.4-2.35-23-4s-16.5-4.58-22-6.5-13.38-5.08-17.5-7-8.85-4.4-13.5-7.5l-17.5 3.5c-9.62 1.92-24.48 4.4-33 5.5-12.58 1.62-21.33 2-77.5 2l2 5.5c1.52 4.19 1.88 7.05 1.5 12-.27 3.58-1.18 8.08-2 10s-3.3 5.3-5.5 7.5-6.25 5.12-9 6.5-7.7 3.17-11 4c-4.35 1.09-9.17 1.36-17.5 1-7.08-.31-14.19-1.27-18.5-2.5-3.85-1.1-9.7-3.12-13-4.5s-8.93-4.3-12.5-6.5-8.75-6.48-11.5-9.5-6.12-7.98-7.5-11-2.73-7.98-3-11-.05-7.52.5-10 2.57-6.52 4.5-9 3.5-4.95 3.5-5.5-4.05-3.02-9-5.5-12.38-7.2-24-16.5l-4.5 1c-2.48.55-10.12 1-17 1-7.11 0-15.73-.65-20-1.5-4.12-.83-10.43-2.85-14-4.5-3.58-1.65-8.52-5.02-11-7.5-2.47-2.48-5.62-6.75-7-9.5-1.42-2.83-2.5-6.73-2.5-9 0-3.2.5-4.3 2.5-5.5 2.22-1.33 2.94-1.33 6.5 0 2.2.83 6.03 2.17 8.5 3s7.43 1.5 11 1.5 8.75-.45 11.5-1 5-1.45 5-2-3.82-8.42-8.5-17.5-10.07-21-12-26.5-4.62-14.95-6-21-3.18-15.5-4-21-1.95-17.88-2.5-27.5q-1.005-17.505 0-36c.55-10.17 2.12-29.3 3.5-42.5s3.62-34.8 5-48 2.72-30.98 3-39.5-.18-28.55-1-44.5c-.94-18.11-1.31-38.2-1-53.5.28-13.48 1.18-30.35 2-37.5s2.4-18.4 3.5-25 3.12-16.5 4.5-22 4.07-14.27 6-19.5 3.27-9.73 3-10-2.07-.05-4 .5-6.88 1-11 1-9.97-.68-13-1.5-8.88-3.07-13-5c-5.47-2.55-8.85-4.99-12.5-9-2.75-3.02-6.12-7.98-7.5-11s-2.95-7.75-3.5-10.5-.78-8.82-.5-13.5c.28-4.77 1.38-10.91 2.5-14 1.1-3.03 4.25-8.88 7-13s8.15-11.32 12-16 12.4-13.68 19-20 18.75-16.9 27-23.5 21.98-16.95 30.5-23 25.18-17.75 37-26 22.4-15.9 23.5-17c1.88-1.88 1.91-2.24.5-6-.82-2.2-1.5-5.8-1.5-8s.45-5.12 1-6.5 2.35-4.08 4-6 4.35-4.17 6-5 4.8-1.5 7-1.5c2.5 0 4.94.75 6.5 2 1.67 1.33 2.5 3 2.5 5 0 1.65-1.12 5.03-2.5 7.5s-2.27 4.72-2 5 5.23-2.2 11-5.5 16.35-8.92 23.5-12.5 17.27-8.08 22.5-10 12.43-4.4 16-5.5 9.88-2.67 14-3.5 10.2-1.95 13.5-2.5" style="fill:none;fill-rule:nonzero;stroke:#20211d;stroke-width:1px" transform="translate(10.9733 10.6749)"/><path d="M479 69c2.2-.55 8.95-1 15-1 6.5 0 15.7.82 22.5 2 6.33 1.1 14.42 3.12 18 4.5s8.52 3.62 11 5 6.3 4.53 8.5 7 5.12 6.53 6.5 9 2.95 7.2 3.5 10.5c.67 4 .67 8.17 0 12.5-.55 3.58-2.35 9.42-4 13-1.65 3.57-4.8 8.75-11 16.5h-8.5c-4.67 0-10.08.22-12 .5s-5.52.72-8 1-8.33 1.18-13 2c-4.68.82-10.75 1.95-13.5 2.5s-11.3 2.57-19 4.5-18.95 5.07-25 7-16.62 5.75-23.5 8.5-13.62 5.45-15 6-9.02 4.15-17 8-20.35 10.38-27.5 14.5-19.52 11.78-27.5 17-15.18 10.18-16 11-3.75 3.07-6.5 5-8.82 6.65-13.5 10.5-10.75 9.03-13.5 11.5c-2.75 2.48-9.73 9.23-15.5 15s-11.85 12.52-13.5 15c-2.39 3.58-3.72 4.6-6.5 5-1.93.27-6.65.27-10.5 0-4.43-.32-9.02-1.42-12.5-3-3.03-1.38-7.07-4.07-9-6s-4.62-5.98-6-9-2.72-6.85-3-8.5-.05-5.7.5-9 1.9-7.8 3-10 4.47-7.6 7.5-12 11.35-13.85 18.5-21 18.4-17.5 25-23 16.27-13.15 21.5-17 11.98-8.8 15-11 9.32-6.7 14-10 9.85-6.9 11.5-8 12-8.07 23-15.5c11-7.42 27.2-17.78 36-23s20.73-11.97 26.5-15 17.48-8.2 26-11.5 19.55-6.9 24.5-8 10.8-2.45 13-3" style="fill:none;fill-rule:nonzero;stroke:#31373a;stroke-width:1px" transform="translate(10.9733 10.6749)"/><path d="M618.5 152c3.2-1.42 6.67-2 12-2 6 0 8.5.5 12.5 2.5 3.27 1.64 5.86 3.88 7.5 6.5 2.05 3.28 2.5 5.27 2.5 11 0 5.67-.57 8.24-3 13.5-1.65 3.57-3.9 7.4-5 8.5-1.47 1.47-2.4 1.73-3.5 1-.83-.55-6.9-4.6-13.5-9s-16.27-10.03-31-17l2-2.5c1.1-1.38 4.92-4.3 8.5-6.5s8.52-4.9 11-6" style="fill:none;fill-rule:nonzero;stroke:#8dadad;stroke-width:1px" transform="translate(10.9733 10.6749)"/><path d="M706 439s.45 4.73 1 10.5 1.67 14.77 2.5 20 3.08 14.23 5 20 5.75 15 8.5 20.5 8.6 14.95 13 21 10.92 15.5 14.5 21 7.4 12.02 8.5 14.5 2.9 7.42 4 11c1.2 3.91 2.2 10.69 2.5 17 .27 5.77.05 13.65-.5 17.5s-1.9 9.92-3 13.5-3.8 9.42-10 19.5M732 616s.23-.45.5-1 .5-2.58.5-4.5-.67-4.62-1.5-6-2.85-2.95-7.5-4.5v-16.5c0-9.08-.45-18.75-1-21.5s-1.9-6.35-3-8q-1.995-3-4.5-3c-1.38 0-3.17.67-4 1.5s-1.73 2.62-2 4-.73 10.38-1 20-.73 18.85-1.5 23.5l-11 .5c-6.05.27-14.15.5-25 .5M643 561s.45-.23 1-.5 10.9-4.1 23-8.5 28.08-10.25 35.5-13 14.4-5.9 15.5-7c1.33-1.33 2-3.33 2-6 0-2.5-2.25-9.81-6-19.5-3.3-8.52-7.12-18.88-8.5-23-1.9-5.71-3.21-7.98-5.5-9.5-1.85-1.23-3.96-1.81-5.5-1.5-1.38.27-10.38 3.2-20 6.5s-25.83 8.93-36 12.5-29.08 10.32-42 15-48.92 17.73-80 29c-31.07 11.27-64.6 23.42-74.5 27s-20.02 7.4-22.5 8.5c-2.94 1.3-5.2 3.22-6.5 5.5-1.59 2.79-2 5.33-2 12.5 0 4.95-.23 9-.5 9s-3.2-1.35-6.5-3-9.6-5.92-14-9.5-9.8-8.98-12-12-5.12-7.75-6.5-10.5-3.4-5.67-4.5-6.5-3.12-1.73-4.5-2c-1.6-.32-3.4.22-5 1.5-1.92 1.53-2.5 2.93-2.5 6 0 2.57 1.25 6.5 3.5 11 2.67 5.33 6 9.5 14 17.5 5.77 5.77 12.75 12.08 20.5 17.5M372 659s-5.18-2.48-11.5-5.5-14.88-7.75-19-10.5-10.88-8.38-15-12.5-9.3-10.2-11.5-13.5-5.35-8.92-7-12.5-3.9-10.1-5-14.5-2.9-9.12-4-10.5c-1.17-1.47-3.03-2.5-4.5-2.5-1.38 0-3.4.9-4.5 2-1.47 1.47-2 3.33-2 7 0 2.75.9 8.38 2 12.5s3.8 11.1 6 15.5 6.48 11.38 9.5 15.5 8.43 10.42 12 14 11 9.42 16.5 13 15.85 9.42 23 13 17.5 7.85 23 9.5 13.15 3.67 24 6M414 800v4c0 2.2.45 5.8 1 8s2.35 6.02 4 8.5 4.57 5.62 6.5 7 4.85 2.95 6.5 3.5 5.7 1 15 1M477 863h-16c-8.8 0-19.6-.23-32-1" style="fill:none;fill-rule:nonzero;stroke:#8babaa;stroke-width:1px" transform="translate(10.9733 10.6749)"/><path d="M419 861s-5.18-.45-11.5-1-14.65-1.67-18.5-2.5-10.82-2.62-15.5-4-12.32-3.85-17-5.5-13.68-5.48-20-8.5c-6.57-3.14-15.14-8.29-20-12-4.68-3.58-11.88-9.65-16-13.5s-9.52-9.7-12-13-6.98-10.05-10-15-7.3-12.83-9.5-17.5-5.57-13-7.5-18.5-4.62-15.17-6-21.5-3.18-16.67-4-23-1.72-19.15-2-28.5-.05-23.52.5-31.5 2.12-25.3 3.5-38.5 3.62-35.25 5-49 2.73-29.27 3.5-44M262 500s-.23-1.12-.5-2.5-.95-15.1-1.5-30.5-.77-37.45-.5-49c.28-11.74 1.38-28.06 2.5-37 1.1-8.8 3.12-21.4 4.5-28s4.3-17.62 6.5-24.5 5.57-15.65 7.5-19.5 4.85-9.02 6.5-11.5 8.62-9.45 15.5-15.5 18.35-15.5 25.5-21 17.95-13.38 24-17.5 16.85-10.88 24-15 18.4-10.2 25-13.5 18.3-8.7 26-12 20.75-8.25 29-11 21.52-6.57 29.5-8.5 19.68-4.4 26-5.5c7.22-1.26 18.19-2.19 29.5-2.5 9.9-.28 21.15-.05 25 .5s11.5 2.57 17 4.5 14.5 5.75 20 8.5 13.6 7.7 18 11 8.23 6.45 8.5 7c.3.59-1.33 1-4 1-2.48 0-7.42.68-11 1.5s-10.77 3.53-16 6-11.98 6.53-15 9-7.98 7.43-11 11-7.3 10.1-9.5 14.5-5.12 11.82-6.5 16.5c-2.18 7.4-2.5 10.43-2.5 23.5 0 14 .2 15.6 3 24 1.65 4.95 4.8 11.93 7 15.5 3.84 6.25 3.92 6.54 2 7.5-1.1.55-3.35 1.23-5 1.5s-5.7 2.3-9 4.5-6.9 5.57-8 7.5c-1.28 2.24-3.8 4.4-7 6-2.75 1.38-6.58 3.62-12 7.5l3.5-7.5c1.92-4.12 4.4-11.1 5.5-15.5 1.51-6.02 2-11.33 2-21.5 0-10-.52-15.7-2-22-1.1-4.68-3.35-11.65-5-15.5s-5.02-10.15-7.5-14-7.2-9.7-10.5-13-8.7-7.8-12-10-9.6-5.35-14-7-11.15-3.68-15-4.5c-4.33-.93-12.33-1.5-21-1.5-10.83 0-15.7.45-21.5 2-4.12 1.1-11.77 4.03-17 6.5-5.66 2.68-12.74 7.13-17.5 11-4.4 3.57-10.48 9.65-13.5 13.5s-7.75 11.73-10.5 17.5-5.9 13.88-7 18c-1.58 5.92-2 10.67-2 22.5s.42 16.58 2 22.5c1.1 4.12 4.02 11.55 6.5 16.5s6.75 11.7 9.5 15 7.7 8.25 11 11c3.43 2.86 10.93 7.36 17.5 10.5 6.32 3.02 14.88 6.4 19 7.5 5.86 1.56 10.67 2 22 2 11.17 0 16.34-.46 22.5-2 4.4-1.1 11.38-3.57 15.5-5.5s10.65-5.98 14.5-9 7-5.05 7-4.5-.45 1.23-1 1.5-1.9 3.43-3 7-2.23 8.3-2.5 10.5-.05 6.48.5 9.5 1.9 7.3 3 9.5 3.57 5.8 5.5 8c2.22 2.54 5.7 4.92 9.5 6.5 4.65 1.94 8.37 2.61 27 3.5l2 7c1.1 3.85 2.9 9.02 4 11.5 1.17 2.62 3.67 5.75 6 7.5 2.55 1.91 5.63 3.18 8.5 3.5 2.48.27 7.42.05 11-.5s8.3-1.9 10.5-3 6.92-2.23 10.5-2.5 8.08-1.18 10-2 4.4-2.62 5.5-4 2.67-3.85 3.5-5.5 2.17-5.25 3-8 1.5-8.38 1.5-20l6.5-3c3.91-1.81 7.89-4.59 10-7 1.92-2.2 4.4-6.02 5.5-8.5 1.38-3.11 2-6.67 2-11.5 0-3.85-.67-9.02-1.5-11.5s-2.4-6.07-3.5-8-2-3.73-2-4 4.05-.5 9-.5 11.92-.68 15.5-1.5 9.88-3.07 14-5 9.98-5.52 13-8 5.73-4.27 6-4 1.17 3.2 2 6.5 2.4 13.43 3.5 22.5 2.45 22.57 4 43.5" style="fill:none;fill-rule:nonzero;stroke:#8babaa;stroke-width:1px" transform="translate(10.9733 10.6749)"/><path d="M616.5 223c1.98-.56 9.16-.78 16.5-.5 10.93.42 14.43.98 22 3.5 4.95 1.65 11.7 4.57 15 6.5s8.48 5.97 11.5 9 6.85 7.53 8.5 10 4.35 7.43 6 11 3.9 9.88 5 14c1.51 5.67 2 10.67 2 20.5s-.49 14.83-2 20.5c-1.1 4.12-3.35 10.2-5 13.5-1.74 3.49-5.72 8.72-9.5 12.5s-9.01 7.76-12.5 9.5c-3.3 1.65-9.38 3.9-13.5 5-4.33 1.16-10.67 2-15 2-4.12 0-9.3-.45-11.5-1s-6.48-1.9-9.5-3c-4.31-1.57-6.47-3.19-10-7.5-3.37-4.12-6.13-6.25-11-8.5-3.58-1.65-9.2-3.45-12.5-4s-6.67-1.68-7.5-2.5-2.85-3.52-4.5-6-4.12-6.75-5.5-9.5-3.4-8.38-4.5-12.5c-1.64-6.17-1.91-9.54-1.5-19 .41-9.38 1.05-13.07 3.5-20 1.65-4.68 4.35-10.97 6-14 1.77-3.24 6.29-8.58 11-13 5.96-5.59 10.16-8.52 16.5-11.5 4.67-2.2 10.08-4.45 12-5M437 246c2.75-.55 9.73-.78 15.5-.5s13.88 1.4 18 2.5 10.43 3.35 14 5 8.98 5.02 12 7.5 7.52 7.2 10 10.5 6.3 9.82 8.5 14.5 4.67 11.65 5.5 15.5 1.73 10.15 2 14 .05 10.38-.5 14.5-1.9 10.2-3 13.5-3.35 8.93-5 12.5-4.8 8.75-7 11.5-7.15 7.48-11 10.5-10.15 7.07-14 9-10.38 4.4-14.5 5.5-10.65 2.23-14.5 2.5-10.6.05-15-.5-11.6-2.35-16-4-11.15-4.8-15-7-10.15-7.15-14-11-8.57-9.7-10.5-13-4.62-9.6-6-14c-2.13-6.81-2.5-9.93-2.5-21 0-9.67.51-15.05 2-21 1.1-4.4 3.57-11.15 5.5-15s5.52-9.7 8-13 6.52-7.8 9-10 6.52-5.35 9-7 6.75-4.12 9.5-5.5 7.25-3.18 10-4 7.25-1.95 10-2.5" style="fill:none;fill-rule:nonzero;stroke:#f7f1e6;stroke-width:1px" transform="translate(10.9733 10.6749)"/><path d="M601 277c2.55-1.27 6-2 9.5-2s6.95.73 9.5 2c2.2 1.1 5.58 3.8 7.5 6s4.17 5.35 5 7 1.73 6.6 2 11c.41 6.58.14 8.8-1.5 12.5-1.1 2.48-3.58 6.3-5.5 8.5-2.06 2.36-5.55 4.82-8.5 6-3.7 1.48-6.43 1.87-10.5 1.5-3.19-.29-7.39-1.55-10-3-2.59-1.44-5.77-4.41-7.5-7-1.65-2.48-3.45-6.3-4-8.5s-.77-6.93-.5-10.5 1.17-8.07 2-10 3.08-5.3 5-7.5 5.3-4.9 7.5-6" style="fill:none;fill-rule:nonzero;stroke:#20211d;stroke-width:1px" transform="translate(10.9733 10.6749)"/><path d="M617 292.5c.55-.82 1.67-1.5 2.5-1.5s1.95.9 2.5 2 .77 3.12.5 4.5q-.495 2.505-3 3c-1.98.4-2.71-.02-3.5-2-.55-1.38-.77-2.95-.5-3.5s.95-1.68 1.5-2.5" style="fill:none;fill-rule:nonzero;stroke:#f9f7ee;stroke-width:1px" transform="translate(10.9733 10.6749)"/><path d="M465 299c4.19-2.51 6.06-3 11.5-3 4.5 0 7.73.62 10.5 2 2.2 1.1 5.57 3.8 7.5 6s4.4 6.02 5.5 8.5c1.38 3.11 2 6.67 2 11.5 0 5-.57 8.14-2 11-1.1 2.2-3.12 5.35-4.5 7s-4.52 4.12-7 5.5-6.52 2.73-9 3-6.52.05-9-.5c-3.43-.76-5.81-2.31-10-6.5-3.56-3.56-6.03-7.09-7-10-.82-2.48-1.5-6.75-1.5-9.5s.68-7.02 1.5-9.5 2.62-6.3 4-8.5c1.4-2.24 4.7-5.32 7.5-7" style="fill:none;fill-rule:nonzero;stroke:#20211d;stroke-width:1px" transform="translate(10.9733 10.6749)"/><path d="M483 314.5c.6-1.5 1.8-2.5 3-2.5 1.1 0 2.45.45 3 1s1 2.35 1 4-.68 3.45-1.5 4q-1.5 1.005-3 0c-.82-.55-1.95-1.68-2.5-2.5-.67-1-.67-2.33 0-4" style="fill:none;fill-rule:nonzero;stroke:#f9f6ee;stroke-width:1px" transform="translate(10.9733 10.6749)"/><path d="m555 371-1-2c-.55-1.1-.77-3.12-.5-4.5s1.62-3.85 3-5.5 4.52-3.9 7-5c3.04-1.35 7.57-2.16 14-2.5 5.23-.27 11.75-.05 14.5.5s6.12 1.9 7.5 3 2.95 3.12 3.5 4.5q1.005 2.505 0 6c-.71 2.47-2.32 4.38-5.5 6.5-2.48 1.65-7.65 3.9-11.5 5s-9.48 2-12.5 2-7.3-.45-9.5-1-4.9-1.9-8-5" style="fill:none;fill-rule:nonzero;stroke:#31373a;stroke-width:1px" transform="translate(10.9733 10.6749)"/><path d="M556 373v-.5c0-.27-.23-.73-1-1.5" style="fill:none;fill-rule:nonzero;stroke:#353c40;stroke-width:1px" transform="translate(10.9733 10.6749)"/><path d="M555 371s.45.23 1 .5.77.73 0 1.5" style="fill:none;fill-rule:nonzero;stroke:#353c40;stroke-width:1px" transform="translate(10.9733 10.6749)"/><path d="m618 372 4.5 4c2.48 2.2 5.62 6.25 7 9 1.83 3.67 2.5 6.6 2.5 11 0 4.33-.56 6.83-2 9-1.1 1.65-4.02 3.9-6.5 5-3.74 1.66-5.94 1.92-13 1.5-4.67-.27-10.98-.95-14-1.5-3.67-.67-7.5-.67-11.5 0-4.14.69-10.18 3.17-19.5 8-7.42 3.85-15.3 7.68-17.5 8.5-2.25.84-7.28 1.5-11.5 1.5-6.13 0-8.32-.46-12-2.5-2.51-1.4-5.38-4.05-6.5-6-1.51-2.64-2-5.33-2-11 0-6.48.48-8.52 3.5-15 2.43-5.21 5.33-9.33 9.5-13.5 3.3-3.3 6.45-6 7-6s1.9 1.8 3 4 4.02 5.8 6.5 8 6.98 4.9 10 6c4.3 1.57 8 2 17 2 6.44 0 14.58-.66 18.5-1.5 3.85-.82 9.25-2.62 12-4s6.58-3.85 8.5-5.5 4.17-4.8 6.5-11" style="fill:none;fill-rule:nonzero;stroke:#e0bd9d;stroke-width:1px" transform="translate(10.9733 10.6749)"/><path d="m595 424 6 1c3.3.55 6.45 1 7 1 .57 0 1 3 1 7 0 3.85-.67 9.25-1.5 12s-1.95 5.68-2.5 6.5-2.8 1.73-5 2-4.23.27-4.5 0-.5-7.02-.5-29.5" style="fill:none;fill-rule:nonzero;stroke:#f8f3e9;stroke-width:1px" transform="translate(10.9733 10.6749)"/><path d="M575 429c2.75-1.65 5.67-3 6.5-3s1.73.9 2 2 .5 8.07.5 15.5c0 8-.41 13.7-1 14-.55.27-3.92.73-7.5 1-4.84.37-7.01.12-8.5-1-1.1-.82-2.67-2.85-3.5-4.5s-1.73-5.93-2.5-16l4.5-2.5c2.48-1.38 6.75-3.85 9.5-5.5" style="fill:none;fill-rule:nonzero;stroke:#f7f2e7;stroke-width:1px" transform="translate(10.9733 10.6749)"/><path d="M706 427v12M706 439s-.67.23-1.5.5c-1.23.41-1.41-.31-1-4 .27-2.48.95-5.4 2.5-8.5" style="fill:none;fill-rule:nonzero;stroke:#97bbba;stroke-width:1px" transform="translate(10.9733 10.6749)"/><path d="M665 499c11.55-4.4 21.45-7.77 22-7.5s2.35 2.75 4 5.5 4.8 9.05 7 14 4 9.45 4 10-.9 1.23-2 1.5-8.3 2.75-30 10.5l-6-5.5c-3.3-3.02-9.6-8.42-14-12-4.4-3.57-8-6.95-8-7.5s.45-1 1-1 10.45-3.6 22-8" style="fill:none;fill-rule:nonzero;stroke:#f7f1e7;stroke-width:1px" transform="translate(10.9733 10.6749)"/><path d="M262 514v-14M262 500v-1c0-.67.33-.67 1 0 .55.55 1 3.93 1 7.5s-.45 6.73-2 7.5" style="fill:none;fill-rule:nonzero;stroke:#9bbfc0;stroke-width:1px" transform="translate(10.9733 10.6749)"/><path d="M265 510c0-.67.83-.67 2.5 0 2.31.92 2.35 1.04.5 1.5-1.1.27-2.23.27-2.5 0s-.5-.95-.5-1.5" style="fill:none;fill-rule:nonzero;stroke:#85a4a4;stroke-width:1px" transform="translate(10.9733 10.6749)"/><path d="M264.5 519.5c.27-.27.95-.27 1.5 0s.77.95.5 1.5q-.495 1.005-1.5 0c-.55-.55-.77-1.23-.5-1.5" style="fill:none;fill-rule:nonzero;stroke:#81a2a0;stroke-width:1px" transform="translate(10.9733 10.6749)"/><path d="M580.5 529.5c14.36-5.66 16.89-6.37 19.5-5.5 1.65.55 8.17 5.73 14.5 11.5S626 546.45 626 547s-7.2 3.92-16 7.5-16.67 6.5-17.5 6.5-6-3.83-11.5-8.5-12.02-9.85-14.5-11.5-4.5-3.45-4.5-4 .45-1 1-1 8.42-2.92 17.5-6.5M515 553.5c0-.27.9-.5 2-.5s3.58 1.12 5.5 2.5 8.67 6.33 15 11 11.27 8.95 11 9.5-7.92 3.92-17 7.5c-12.15 4.79-16.9 6.24-18 5.5-.83-.55-7.8-5.73-15.5-11.5s-14-10.95-14-11.5 6.98-3.48 15.5-6.5 15.5-5.73 15.5-6" style="fill:none;fill-rule:nonzero;stroke:#f7f1e7;stroke-width:1px" transform="translate(10.9733 10.6749)"/><path d="M729 560c.55-.55 1.45-.77 2-.5.59.3.39 1.11-.5 2s-1.7 1.09-2 .5c-.27-.55-.05-1.45.5-2" style="fill:none;fill-rule:nonzero;stroke:#90b1b0;stroke-width:1px" transform="translate(10.9733 10.6749)"/><path d="M643 561s2.48 2.7 5.5 6 7.52 8.48 10 11.5 6.3 9.33 12.5 22.5" style="fill:none;fill-rule:nonzero;stroke:#e0bd9d;stroke-width:1px" transform="translate(10.9733 10.6749)"/><path d="M671 601s-2.48.23-5.5.5-20.8.95-39.5 1.5-36.25 1.23-39 1.5-18.73.73-35.5 1c-20.68.34-29.86.18-28.5-.5 1.1-.55 20.67-7.98 43.5-16.5s49.38-18.2 76.5-27.5" style="fill:none;fill-rule:nonzero;stroke:#e0bd9d;stroke-width:1px" transform="translate(10.9733 10.6749)"/><path d="M726 565q0-1.005 1.5 0c1.33.89 1.33 1 0 1-.83 0-1.5-.45-1.5-1" style="fill:none;fill-rule:nonzero;stroke:#87a7a9;stroke-width:1px" transform="translate(10.9733 10.6749)"/><path d="M432.5 583c2.88-1.28 6.67-2 10.5-2 3.67 0 7.94.78 11 2 2.75 1.1 7.02 3.35 9.5 5s8.1 6.83 12.5 11.5 11.15 11.65 15 15.5c4.89 4.89 7.45 8.36 8.5 11.5.92 2.77 1.31 6.42 1 9.5-.27 2.75-1.4 6.58-2.5 8.5s-4.02 4.85-6.5 6.5c-4.39 2.92-4.88 3.01-19.5 3.5-9.35.31-15.38.12-16-.5-.55-.55-1-5.05-1-10 0-6.83-.48-10.08-2-13.5-1.1-2.48-3.35-6.3-5-8.5-1.94-2.59-5.64-5.41-10.5-8-4.12-2.2-8.18-4.67-9-5.5-1.05-1.05-1.65-4.48-2-11.5-.3-6.03-.1-10.4.5-11 .55-.55 3.02-1.9 5.5-3" style="fill:none;fill-rule:nonzero;stroke:#31373a;stroke-width:1px" transform="translate(10.9733 10.6749)"/><path d="M439.5 596.5c1.83-1.83 3.57-2.5 6.5-2.5s4.67.67 6.5 2.5c1.56 1.56 2.5 3.63 2.5 5.5q0 3-3 6c-2.33 2.33-3.89 3-7 3-2.67 0-4.67-.67-6-2s-2-3.33-2-6c0-2.93.67-4.67 2.5-6.5" style="fill:none;fill-rule:nonzero;stroke:#22231e;stroke-width:1px" transform="translate(10.9733 10.6749)"/><path d="M393 608s2.25 1.12 5 2.5 8.6 4.08 13 6 11.15 5.3 15 7.5 8.12 5.35 9.5 7 2.95 4.8 3.5 7 .77 5.58.5 7.5c-.32 2.22-1.05 3.5-2 3.5-.82 0-4.2-1.35-7.5-3s-7.12-3-8.5-3c-1.73 0-2.81.77-3.5 2.5-.75 1.87-.62 3.13.5 5 .82 1.38 4.2 3.85 7.5 5.5s6 3.45 6 4-1.8 2.12-4 3.5-5.8 3.17-8 4-6.02 1.5-8.5 1.5-8.55-.9-13.5-2-12.82-3.35-26-8" style="fill:none;fill-rule:nonzero;stroke:#dfbd9d;stroke-width:1px" transform="translate(10.9733 10.6749)"/><path d="M372 659v-7.5c0-4.12.68-9.75 1.5-12.5s2.85-7.48 4.5-10.5 5.7-8.88 15-20.5" style="fill:none;fill-rule:nonzero;stroke:#dfbd9d;stroke-width:1px" transform="translate(10.9733 10.6749)"/><path d="M732 616s2.02 1.58 4.5 3.5 6.3 6.2 8.5 9.5 4.67 8.25 7 16" style="fill:none;fill-rule:nonzero;stroke:#e0bd9d;stroke-width:1px" transform="translate(10.9733 10.6749)"/><path d="M752 645s-1.8 2.48-4 5.5c-2.3 3.16-6.34 6.99-9.5 9-3.02 1.92-7.52 3.95-10 4.5s-5.62.77-7 .5-3.4-1.4-4.5-2.5c-1.47-1.47-2-3.33-2-7 0-3.75 1-7.12 4-13.5 2.2-4.67 6.02-12.33 13-25.5" style="fill:none;fill-rule:nonzero;stroke:#e0bd9d;stroke-width:1px" transform="translate(10.9733 10.6749)"/><path d="M700 617.5c2.75-.27 5.45-.5 6-.5s1 .67 1 1.5-1.35 4.88-3 9-3.9 11.1-7 23.5l-13 .5c-7.15.27-13 .27-13 0s4.05-6.12 9-13 10.35-14.3 12-16.5c2.65-3.53 3.59-4.06 8-4.5" style="fill:none;fill-rule:nonzero;stroke:#f7f2e8;stroke-width:1px" transform="translate(10.9733 10.6749)"/><path d="M626.5 618.5c7.42-.27 15.75-.5 18.5-.5s5 .23 5 .5-.9 1.85-2 3.5-5.6 8.17-10 14.5-9.12 12.62-10.5 14c-2.42 2.42-3.02 2.52-19.5 3-11.16.33-16.83.16-16.5-.5.27-.55 5.23-8.42 21.5-34l13.5-.5M542.5 620.5c5.77-.27 14.33-.27 27.5.5l-24 34-16.5.5c-9.08.27-17.4.27-18.5 0-1.76-.44-.63-2.53 21-34.5l10.5-.5" style="fill:none;fill-rule:nonzero;stroke:#f7f1e6;stroke-width:1px" transform="translate(10.9733 10.6749)"/><path d="M481 628.5c.55-.27 2.12-.05 3.5.5s3.18 1.67 4 2.5 1.5 2.62 1.5 4-.68 3.85-1.5 5.5c-1 2-2.67 3.33-5 4-2.67.76-4.33.64-7-.5q-3.495-1.5-4.5-4.5c-.76-2.27-.63-3.73.5-6 .87-1.73 2.77-3.42 4.5-4 1.65-.55 3.45-1.23 4-1.5" style="fill:none;fill-rule:nonzero;stroke:#22231e;stroke-width:1px" transform="translate(10.9733 10.6749)"/><path d="M674.5 665.5c.27-.27 6.12-.5 25.5-.5l2 4c1.18 2.36 4.05 5.44 7 7.5 2.75 1.92 5.67 3.5 6.5 3.5 1.25 0 1.5 2.06 1.5 12.5 0 6.88.23 34.33 1 109.5l-7 7-12.5.5c-6.88.27-21.5.73-32.5 1s-34.62.73-52.5 1-37.45.73-43.5 1-27.2.73-47 1-47.02.73-60.5 1c-15.37.31-25.25.13-26.5-.5-1.1-.55-2.68-2.58-3.5-4.5-.92-2.15-1.69-8.12-2-15.5-.27-6.6-.5-33.15-.5-59v-50c0-2.47.89-3.62 5-6.5 2.75-1.92 6.12-4.62 7.5-6 2.4-2.4 3-2.5 15-2.5 6.88 0 16.32-.23 21-.5s29.43-.73 55-1c25.58-.27 48.98-.73 52-1s24.17-.73 47-1 41.73-.73 42-1" style="fill:none;fill-rule:nonzero;stroke:#303638;stroke-width:1px" transform="translate(10.9733 10.6749)"/><path d="M404 685h3.5c2.22 0 3.68.55 4 1.5.27.83.73 13.42 1 28s.73 39.77 1.5 85.5" style="fill:none;fill-rule:nonzero;stroke:#e0bd9d;stroke-width:1px" transform="translate(10.9733 10.6749)"/><path d="M414 800s-.45.23-1 .5-1 .05-1-.5-1.35-3.02-3-5.5-4.35-7.42-6-11-4.12-10.77-5.5-16c-2.05-7.79-2.59-12.64-3-27-.35-12.4-.06-20.85 1-29 .82-6.33 2.62-14.65 4-18.5s2.95-7.23 4.5-8" style="fill:none;fill-rule:nonzero;stroke:#e0bd9d;stroke-width:1px" transform="translate(10.9733 10.6749)"/><path d="M668 702.5c4.95-.27 14.17-.5 32-.5v10l-13.5.5c-7.42.27-34.42.95-60 1.5s-54.38 1.23-64 1.5-17.95.95-18.5 1.5c-.64.64-.82 9.82 0 50l21-.5c11.55-.27 38.33-.95 59.5-1.5s47.05-1.23 76.5-2v10l-6.5.5c-3.58.27-28.77.95-56 1.5s-54.9 1.23-61.5 1.5-20.1.73-30 1-33.08.73-51.5 1c-18.43.27-36.65.5-47.5.5v-9l30.5-1c16.77-.55 36.12-1.23 55.5-2l-.5-24.5c-.29-14.29-.92-24.92-1.5-25.5q-1.005-1.005-27 0c-14.3.55-33.2 1-58 1v-10l27-.5c14.85-.27 34.2-.73 43-1s44.35-1.17 79-2 67.05-1.73 72-2" style="fill:none;fill-rule:nonzero;stroke:#f6f1e8;stroke-width:1px" transform="translate(10.9733 10.6749)"/><path d="M258 724.5c0-.27.23-.27.5 0s.27.5 0 .5-.5-.23-.5-.5" style="fill:none;fill-rule:nonzero;stroke:#7a9b99;stroke-width:1px" transform="translate(10.9733 10.6749)"/><path d="m276 812 4 4c2.2 2.2 3.77 4.45 3.5 5s-3.43 1.23-7 1.5c-3.85.3-9.56-.11-14-1-4.12-.83-8.85-2.17-10.5-3-2.95-1.47-2.85-1.51 5.5-2 5.08-.3 10.51-1.3 18.5-4.5" style="fill:none;fill-rule:nonzero;stroke:#e6c6a5;stroke-width:1px" transform="translate(10.9733 10.6749)"/><path d="M488 855s-2.93-1.12-6.5-2.5-9.88-4.08-14-6-10.65-5.52-14.5-8-6.77-4.95-6-6.5M447 832s33.3-.67 74-1.5 77.6-1.5 82-1.5c7.11 0 7.83.17 6.5 1.5-.83.83-8.48 4.42-17 8s-19.77 7.85-25 9.5-17.38 4.58-27 6.5-19.98 3.73-28.5 4.5" style="fill:none;fill-rule:nonzero;stroke:#e0be9e;stroke-width:1px" transform="translate(10.9733 10.6749)"/><path d="M616.5 846c3.27-1.87 4.3-1.94 16-1 9.71.78 13.73 1.56 18 3.5 3.02 1.38 6.85 3.85 8.5 5.5s3.67 4.35 4.5 6 1.5 5.02 1.5 7.5-.23 4.95-.5 5.5-1.4 1.45-2.5 2c-1.76.88-2.24.45-4-3.5-1.1-2.48-3.58-6.08-5.5-8s-5.52-4.17-8-5-5.17-1.27-6-1-1.5 1.62-1.5 3c0 1.67 1.33 3.67 4 6 2.2 1.92 4.67 4.85 5.5 6.5s1.27 3.45 1 4-2.75 1-5.5 1-10.85-1.12-18-2.5-19.3-4.52-27-7-14.45-4.95-15-5.5c-.67-.67 4.33-3.33 15-8 8.8-3.85 17.58-7.9 19.5-9" style="fill:none;fill-rule:nonzero;stroke:#e1bf9f;stroke-width:1px" transform="translate(10.9733 10.6749)"/><path d="M488 855h1.5c.82 0 6.23.9 22.5 4M512 859s-.45.23-1 .5-7.98 1.17-32 3.5M478 863h-1M477 863l1-1c.55-.55 3.48-1.45 6.5-2 5.04-.92 5.42-1.17 3.5-5" style="fill:none;fill-rule:nonzero;stroke:#8eb3b5;stroke-width:1px" transform="translate(10.9733 10.6749)"/><path d="M429 862s-.68-.23-1.5-.5-3.07-.5-8.5-.5" style="fill:none;fill-rule:nonzero;stroke:#9bbfbf;stroke-width:1px" transform="translate(10.9733 10.6749)"/><path d="M419 861s.23-.45.5-1 2.3-1 4.5-1 4.45.45 5 1 .77 1.23 0 2" style="fill:none;fill-rule:nonzero;stroke:#9bbfbf;stroke-width:1px" transform="translate(10.9733 10.6749)"/><path d="M479 863h-1M478 863v-.5c0-.27.23-.27 1 .5" style="fill:none;fill-rule:nonzero;stroke:#8babaa;stroke-width:1px" transform="translate(10.9733 10.6749)"/><path d="m347 863 10.5 3c5.77 1.65 15 4.12 20.5 5.5s14.27 3.17 19.5 4 10.62 2.17 12 3 3.85 3.75 5.5 6.5c2.15 3.58 3 6.28 3 9.5 0 2.48-.68 5.4-1.5 6.5s-2.4 2.9-3.5 4-4.02 2.67-6.5 3.5-6.52 1.5-9 1.5-4.5-.45-4.5-1-.9-3.48-2-6.5-3.8-7.75-6-10.5c-2.4-3-6-6-9-7.5-2.75-1.38-5.9-2.27-7-2s-2.23 1.17-2.5 2c-.3.89 1.33 3.33 4 6 2.48 2.48 5.4 6.52 6.5 9s2 5.62 2 7c0 1.56-.57 2.5-1.5 2.5-.82 0-5.32-1.35-10-3s-10.52-4.12-13-5.5-6.52-4.3-9-6.5-5.4-6.02-6.5-8.5-2-6.08-2-8 .9-4.85 2-6.5 3.35-4.12 8-8" style="fill:none;fill-rule:nonzero;stroke:#e0be9f;stroke-width:1px" transform="translate(10.9733 10.6749)"/><path d="M478 54c3.3-.55 11.4-1 18-1s15.38.45 19.5 1 10.2 1.67 13.5 2.5 9.15 2.62 13 4 10.38 4.75 14.5 7.5 9.52 7.25 12 10 5.85 7.92 7.5 11.5 3.67 9.2 4.5 12.5 1.5 8.47 1.5 11.5-.45 7.97-1 11-3.02 9.78-5.5 15-6.3 11.53-8.5 14c-3.05 3.43-3.64 4.62-2.5 5 .83.28 4.42.95 14.5 2.5l7-6.5c3.85-3.57 9.7-8.3 13-10.5s9.6-5.12 14-6.5 10.7-2.72 14-3c3.52-.29 8.89.12 13 1 3.85.82 9.02 2.62 11.5 4s6.3 4.07 8.5 6c2.21 1.94 5.12 5.96 6.5 9 1.58 3.48 2.68 8.07 3 12.5.27 3.85.05 9.25-.5 12s-2.35 7.93-4 11.5-4.58 8.53-10 15.5l4 3.5c2.2 1.93 6.7 4.85 10 6.5s8.02 4.35 10.5 6 7.42 5.7 11 9 8.3 8.7 10.5 12 5.8 9.82 8 14.5 4.9 12.32 6 17c1.5 6.38 2 12 2 22.5 0 8.67-.57 16.67-1.5 21-.83 3.85-2.62 9.7-6.5 19l2.5 9.5c1.38 5.23 3.85 18.95 5.5 30.5s3.45 27.75 4 36 1.45 22.65 2 32 1.9 21.27 3 26.5 3.12 12.88 4.5 17 4.08 10.65 6 14.5 9.35 15.55 16.5 26 15.02 22.83 17.5 27.5 5.62 12.1 7 16.5c2.04 6.53 2.59 10.76 3 23 .41 12.43.16 16.71-1.5 25-1.1 5.5-3.12 12.7-4.5 16s-4.3 9.15-6.5 13c-2.41 4.21-7.39 10.39-12.5 15.5-6.29 6.29-10.19 9.28-21.5 14.5l.5 60.5c.43 51.9.29 61.21-1 65.5-.93 3.11-3.2 6.89-6 10-2.48 2.75-6.3 5.9-8.5 7s-5.8 2.23-8 2.5-17.95.95-35 1.5c-24.42.79-31.53 1.32-33.5 2.5-1.9 1.14-2.14 1.62-1 2 .83.27 3.52.95 6 1.5s6.98 2.12 10 3.5c3.26 1.48 7.94 4.94 11.5 8.5 3.3 3.3 6.9 8.02 8 10.5 1.42 3.2 2 6.67 2 12 0 5.5-.53 8.57-2 11.5-1.1 2.2-3.35 5.12-5 6.5s-5.02 3.4-7.5 4.5-7.88 2.45-12 3c-5 .67-11.17.67-18.5 0-6.05-.55-16.4-2.35-23-4s-16.5-4.58-22-6.5-13.38-5.08-17.5-7-8.85-4.4-13.5-7.5l-17.5 3.5c-9.62 1.92-24.48 4.4-33 5.5-12.58 1.62-21.33 2-77.5 2l2 5.5c1.52 4.19 1.88 7.05 1.5 12-.27 3.58-1.18 8.08-2 10s-3.3 5.3-5.5 7.5-6.25 5.12-9 6.5-7.7 3.17-11 4c-4.35 1.09-9.17 1.36-17.5 1-7.08-.31-14.19-1.27-18.5-2.5-3.85-1.1-9.7-3.12-13-4.5s-8.93-4.3-12.5-6.5-8.75-6.48-11.5-9.5-6.12-7.98-7.5-11-2.73-7.98-3-11-.05-7.52.5-10 2.57-6.52 4.5-9 3.5-4.95 3.5-5.5-4.05-3.02-9-5.5-12.38-7.2-24-16.5l-4.5 1c-2.48.55-10.12 1-17 1-7.11 0-15.73-.65-20-1.5-4.12-.83-10.43-2.85-14-4.5-3.58-1.65-8.52-5.02-11-7.5-2.47-2.48-5.62-6.75-7-9.5-1.42-2.83-2.5-6.73-2.5-9 0-3.2.5-4.3 2.5-5.5 2.22-1.33 2.94-1.33 6.5 0 2.2.83 6.03 2.17 8.5 3s7.43 1.5 11 1.5 8.75-.45 11.5-1 5-1.45 5-2-3.82-8.42-8.5-17.5-10.07-21-12-26.5-4.62-14.95-6-21-3.18-15.5-4-21-1.95-17.88-2.5-27.5q-1.005-17.505 0-36c.55-10.17 2.12-29.3 3.5-42.5s3.62-34.8 5-48 2.72-30.98 3-39.5-.18-28.55-1-44.5c-.94-18.11-1.31-38.2-1-53.5.28-13.48 1.18-30.35 2-37.5s2.4-18.4 3.5-25 3.12-16.5 4.5-22 4.07-14.27 6-19.5 3.27-9.73 3-10-2.07-.05-4 .5-6.88 1-11 1-9.97-.68-13-1.5-8.88-3.07-13-5c-5.47-2.55-8.85-4.99-12.5-9-2.75-3.02-6.12-7.98-7.5-11s-2.95-7.75-3.5-10.5-.78-8.82-.5-13.5c.28-4.77 1.38-10.91 2.5-14 1.1-3.03 4.25-8.88 7-13s8.15-11.32 12-16 12.4-13.68 19-20 18.75-16.9 27-23.5 21.98-16.95 30.5-23 25.18-17.75 37-26 22.4-15.9 23.5-17c1.88-1.88 1.91-2.24.5-6-.82-2.2-1.5-5.8-1.5-8s.45-5.12 1-6.5 2.35-4.08 4-6 4.35-4.17 6-5 4.8-1.5 7-1.5c2.5 0 4.94.75 6.5 2 1.67 1.33 2.5 3 2.5 5 0 1.65-1.12 5.03-2.5 7.5s-2.27 4.72-2 5 5.23-2.2 11-5.5 16.35-8.92 23.5-12.5 17.27-8.08 22.5-10 12.43-4.4 16-5.5 9.88-2.67 14-3.5 10.2-1.95 13.5-2.5m1 15c-2.2.55-8.05 1.9-13 3s-15.98 4.7-24.5 8-20.23 8.47-26 11.5-17.7 9.78-26.5 15-25 15.58-36 23c-11 7.43-21.35 14.4-23 15.5s-6.82 4.7-11.5 8-10.98 7.8-14 10-9.77 7.15-15 11-14.9 11.5-21.5 17-17.85 15.85-25 23-15.47 16.6-18.5 21-6.4 9.8-7.5 12-2.45 6.7-3 10-.78 7.35-.5 9 1.62 5.48 3 8.5 4.07 7.07 6 9 5.97 4.62 9 6c3.48 1.58 8.07 2.68 12.5 3 3.85.27 8.57.27 10.5 0 2.78-.4 4.11-1.42 6.5-5 1.65-2.48 7.73-9.23 13.5-15s12.75-12.52 15.5-15c2.75-2.47 8.82-7.65 13.5-11.5s10.75-8.57 13.5-10.5 5.68-4.18 6.5-5 8.02-5.78 16-11 20.35-12.88 27.5-17 19.52-10.65 27.5-14.5 15.62-7.45 17-8 8.12-3.25 15-6 17.45-6.57 23.5-8.5 17.3-5.07 25-7 16.25-3.95 19-4.5 8.82-1.68 13.5-2.5c4.67-.82 10.52-1.72 13-2s6.08-.72 8-1 7.33-.5 12-.5h8.5c6.2-7.75 9.35-12.93 11-16.5 1.65-3.58 3.45-9.42 4-13 .67-4.33.67-8.5 0-12.5-.55-3.3-2.12-8.03-3.5-10.5s-4.3-6.53-6.5-9-6.02-5.62-8.5-7-7.42-3.62-11-5-11.67-3.4-18-4.5c-6.8-1.18-16-2-22.5-2-6.05 0-12.8.45-15 1m139.5 83c-2.48 1.1-7.42 3.8-11 6s-7.4 5.12-8.5 6.5l-2 2.5c14.73 6.97 24.4 12.6 31 17s12.67 8.45 13.5 9c1.1.73 2.03.47 3.5-1 1.1-1.1 3.35-4.93 5-8.5 2.43-5.26 3-7.83 3-13.5 0-5.73-.45-7.72-2.5-11-1.64-2.62-4.23-4.86-7.5-6.5-4-2-6.5-2.5-12.5-2.5-5.33 0-8.8.58-12 2M262 500v14c-.77 14.73-2.12 30.25-3.5 44s-3.62 35.8-5 49-2.95 30.52-3.5 38.5-.78 22.15-.5 31.5 1.18 22.17 2 28.5 2.62 16.67 4 23 4.07 16 6 21.5 5.3 13.83 7.5 18.5 6.48 12.55 9.5 17.5 7.52 11.7 10 15 7.88 9.15 12 13 11.32 9.92 16 13.5c4.86 3.71 13.43 8.86 20 12 6.32 3.02 15.32 6.85 20 8.5s12.32 4.12 17 5.5 11.65 3.17 15.5 4 12.18 1.95 18.5 2.5 11.5 1 11.5 1c5.43 0 7.68.23 8.5.5s1.5.5 1.5.5c12.4.77 23.2 1 32 1h18c24.02-2.33 31.45-3.23 32-3.5s1-.5 1-.5c8.52-.77 18.88-2.58 28.5-4.5s21.77-4.85 27-6.5 16.48-5.92 25-9.5 16.17-7.17 17-8c1.33-1.33.61-1.5-6.5-1.5-4.4 0-41.3.67-82 1.5s-74 1.5-74 1.5c-9.3 0-13.35-.45-15-1s-4.57-2.12-6.5-3.5-4.85-4.52-6.5-7-3.45-6.3-4-8.5-1-5.8-1-8v-4c-.77-45.73-1.23-70.92-1.5-85.5s-.73-27.17-1-28c-.32-.95-1.78-1.5-4-1.5H404c-10.85-2.33-18.5-4.35-24-6s-15.85-5.92-23-9.5-17.5-9.42-23-13-12.93-9.42-16.5-13-8.98-9.88-12-14-7.3-11.1-9.5-15.5-4.9-11.38-6-15.5-2-9.75-2-12.5c0-3.67.53-5.53 2-7 1.1-1.1 3.12-2 4.5-2 1.47 0 3.33 1.03 4.5 2.5 1.1 1.38 2.9 6.1 4 10.5s3.35 10.92 5 14.5 4.8 9.2 7 12.5 7.38 9.38 11.5 13.5 10.88 9.75 15 12.5 12.68 7.48 19 10.5S372 659 372 659c13.18 4.65 21.05 6.9 26 8s11.02 2 13.5 2 6.3-.67 8.5-1.5 5.8-2.62 8-4 4-2.95 4-3.5-2.7-2.35-6-4-6.68-4.12-7.5-5.5c-1.12-1.87-1.25-3.13-.5-5 .69-1.73 1.77-2.5 3.5-2.5 1.38 0 5.2 1.35 8.5 3s6.68 3 7.5 3c.95 0 1.68-1.28 2-3.5.27-1.92.05-5.3-.5-7.5s-2.12-5.35-3.5-7-5.65-4.8-9.5-7-10.6-5.58-15-7.5-10.25-4.62-13-6-5-2.5-5-2.5c-7.75-5.42-14.73-11.73-20.5-17.5-8-8-11.33-12.17-14-17.5-2.25-4.5-3.5-8.43-3.5-11 0-3.07.58-4.47 2.5-6 1.6-1.28 3.4-1.82 5-1.5 1.38.27 3.4 1.17 4.5 2s3.12 3.75 4.5 6.5 4.3 7.48 6.5 10.5 7.6 8.42 12 12 10.7 7.85 14 9.5 6.23 3 6.5 3 .5-4.05.5-9c0-7.17.41-9.71 2-12.5 1.3-2.28 3.56-4.2 6.5-5.5 2.48-1.1 12.6-4.92 22.5-8.5s43.43-15.73 74.5-27c31.08-11.27 67.08-24.32 80-29s31.83-11.43 42-15 26.38-9.2 36-12.5 18.62-6.23 20-6.5c1.54-.31 3.65.27 5.5 1.5 2.29 1.52 3.6 3.79 5.5 9.5 1.38 4.12 5.2 14.48 8.5 23 3.75 9.69 6 17 6 19.5 0 2.67-.67 4.67-2 6-1.1 1.1-8.08 4.25-15.5 7s-23.4 8.6-35.5 13-22.45 8.23-23 8.5-1 .5-1 .5c-27.12 9.3-53.67 18.98-76.5 27.5S524.1 604.45 523 605c-1.36.68 7.82.84 28.5.5 16.77-.27 32.75-.73 35.5-1s20.3-.95 39-1.5 36.48-1.23 39.5-1.5 5.5-.5 5.5-.5c10.85 0 18.95-.23 25-.5l11-.5c.77-4.65 1.23-13.88 1.5-23.5s.73-18.62 1-20 1.17-3.17 2-4 2.62-1.5 4-1.5q2.505 0 4.5 3c1.1 1.65 2.45 5.25 3 8s1 12.42 1 21.5V600c4.65 1.55 6.67 3.12 7.5 4.5s1.5 4.08 1.5 6-.23 3.95-.5 4.5-.5 1-.5 1c-6.98 13.17-10.8 20.83-13 25.5-3 6.38-4 9.75-4 13.5 0 3.67.53 5.53 2 7 1.1 1.1 3.12 2.23 4.5 2.5s4.52.05 7-.5 6.98-2.58 10-4.5c3.16-2.01 7.2-5.84 9.5-9 2.2-3.02 4-5.5 4-5.5 6.2-10.08 8.9-15.92 10-19.5s2.45-9.65 3-13.5.77-11.73.5-17.5c-.3-6.31-1.3-13.09-2.5-17-1.1-3.58-2.9-8.52-4-11s-4.92-9-8.5-14.5-10.1-14.95-14.5-21-10.25-15.5-13-21-6.58-14.73-8.5-20.5-4.17-14.77-5-20-1.95-14.23-2.5-20-1-10.5-1-10.5v-12c-1.55-20.93-2.9-34.43-4-43.5s-2.67-19.2-3.5-22.5-1.73-6.23-2-6.5-2.98 1.52-6 4-8.88 6.07-13 8-10.42 4.18-14 5-10.55 1.5-15.5 1.5-9 .23-9 .5.9 2.07 2 4 2.67 5.52 3.5 8 1.5 7.65 1.5 11.5c0 4.83-.62 8.39-2 11.5-1.1 2.48-3.58 6.3-5.5 8.5-2.11 2.41-6.09 5.19-10 7l-6.5 3c0 11.62-.67 17.25-1.5 20s-2.17 6.35-3 8-2.4 4.12-3.5 5.5-3.58 3.18-5.5 4-6.42 1.73-10 2-8.3 1.4-10.5 2.5-6.92 2.45-10.5 3-8.52.77-11 .5c-2.87-.32-5.95-1.59-8.5-3.5-2.33-1.75-4.83-4.88-6-7.5-1.1-2.48-2.9-7.65-4-11.5l-2-7c-18.63-.89-22.35-1.56-27-3.5-3.8-1.58-7.28-3.96-9.5-6.5-1.93-2.2-4.4-5.8-5.5-8s-2.45-6.48-3-9.5-.77-7.3-.5-9.5 1.4-6.93 2.5-10.5 2.45-6.73 3-7 1-.95 1-1.5-3.15 1.48-7 4.5-10.38 7.07-14.5 9-11.1 4.4-15.5 5.5c-6.16 1.54-11.33 2-22.5 2-11.33 0-16.14-.44-22-2-4.12-1.1-12.68-4.48-19-7.5-6.57-3.14-14.07-7.64-17.5-10.5-3.3-2.75-8.25-7.7-11-11s-7.02-10.05-9.5-15-5.4-12.38-6.5-16.5c-1.58-5.92-2-10.67-2-22.5s.42-16.58 2-22.5c1.1-4.12 4.25-12.23 7-18s7.48-13.65 10.5-17.5 9.1-9.93 13.5-13.5c4.76-3.87 11.84-8.32 17.5-11 5.23-2.47 12.88-5.4 17-6.5 5.8-1.55 10.67-2 21.5-2 8.67 0 16.67.57 21 1.5 3.85.82 10.6 2.85 15 4.5s10.7 4.8 14 7 8.7 6.7 12 10 8.02 9.15 10.5 13 5.85 10.15 7.5 14 3.9 10.82 5 15.5c1.48 6.3 2 12 2 22 0 10.17-.49 15.48-2 21.5-1.1 4.4-3.58 11.38-5.5 15.5L525 364c5.42-3.88 9.25-6.12 12-7.5 3.2-1.6 5.72-3.76 7-6 1.1-1.93 4.7-5.3 8-7.5s7.35-4.23 9-4.5 3.9-.95 5-1.5c1.92-.96 1.84-1.25-2-7.5-2.2-3.57-5.35-10.55-7-15.5-2.8-8.4-3-10-3-24 0-13.07.32-16.1 2.5-23.5 1.38-4.68 4.3-12.1 6.5-16.5s6.48-10.93 9.5-14.5 7.98-8.53 11-11 9.77-6.53 15-9 12.42-5.18 16-6 8.52-1.5 11-1.5c2.67 0 4.3-.41 4-1-.27-.55-4.1-3.7-8.5-7s-12.5-8.25-18-11-14.5-6.57-20-8.5-13.15-3.95-17-4.5-15.1-.78-25-.5c-11.31.31-22.28 1.24-29.5 2.5-6.32 1.1-18.02 3.57-26 5.5s-21.25 5.75-29.5 8.5-21.3 7.7-29 11-19.4 8.7-26 12-17.85 9.38-25 13.5-17.95 10.88-24 15-16.85 12-24 17.5-18.62 14.95-25.5 21-13.85 13.02-15.5 15.5-4.57 7.65-6.5 11.5-5.3 12.62-7.5 19.5-5.12 17.9-6.5 24.5-3.4 19.2-4.5 28c-1.12 8.94-2.22 25.26-2.5 37-.27 11.55-.05 33.6.5 49s1.23 29.12 1.5 30.5.5 2.5.5 2.5m354.5-277c-1.92.55-7.33 2.8-12 5-6.34 2.98-10.54 5.91-16.5 11.5-4.71 4.42-9.23 9.76-11 13-1.65 3.03-4.35 9.32-6 14-2.45 6.93-3.09 10.62-3.5 20-.41 9.46-.14 12.83 1.5 19 1.1 4.12 3.12 9.75 4.5 12.5s3.85 7.02 5.5 9.5 3.67 5.18 4.5 6 4.2 1.95 7.5 2.5 8.92 2.35 12.5 4c4.87 2.25 7.63 4.38 11 8.5 3.53 4.31 5.69 5.93 10 7.5 3.02 1.1 7.3 2.45 9.5 3s7.38 1 11.5 1c4.33 0 10.67-.84 15-2 4.12-1.1 10.2-3.35 13.5-5 3.49-1.74 8.72-5.72 12.5-9.5s7.76-9.01 9.5-12.5c1.65-3.3 3.9-9.38 5-13.5 1.51-5.67 2-10.67 2-20.5s-.49-14.83-2-20.5c-1.1-4.12-3.35-10.43-5-14s-4.35-8.53-6-11-5.48-6.97-8.5-10-8.2-7.07-11.5-9-10.05-4.85-15-6.5c-7.57-2.52-11.07-3.08-22-3.5-7.34-.28-14.52-.06-16.5.5M437 246c-2.75.55-7.25 1.68-10 2.5s-7.25 2.62-10 4-7.02 3.85-9.5 5.5-6.52 4.8-9 7-6.52 6.7-9 10-6.07 9.15-8 13-4.4 10.6-5.5 15c-1.49 5.95-2 11.33-2 21 0 11.07.37 14.19 2.5 21 1.38 4.4 4.07 10.7 6 14s6.65 9.15 10.5 13 10.15 8.8 14 11 10.6 5.35 15 7 11.6 3.45 16 4 11.15.77 15 .5 10.38-1.4 14.5-2.5 10.65-3.57 14.5-5.5 10.15-5.98 14-9 8.8-7.75 11-10.5 5.35-7.93 7-11.5 3.9-9.2 5-12.5 2.45-9.38 3-13.5.77-10.65.5-14.5-1.17-10.15-2-14-3.3-10.82-5.5-15.5-6.02-11.2-8.5-14.5-6.98-8.02-10-10.5-8.43-5.85-12-7.5-9.88-3.9-14-5-12.23-2.22-18-2.5-12.75-.05-15.5.5m118 125c.77.77 1 1.23 1 1.5v.5c3.1 3.1 5.8 4.45 8 5s6.48 1 9.5 1 8.65-.9 12.5-2 9.02-3.35 11.5-5c3.18-2.12 4.79-4.03 5.5-6.5q1.005-3.495 0-6c-.55-1.38-2.12-3.4-3.5-4.5s-4.75-2.45-7.5-3-9.27-.77-14.5-.5c-6.43.34-10.96 1.15-14 2.5-2.48 1.1-5.62 3.35-7 5s-2.73 4.12-3 5.5-.05 3.4.5 4.5zm63 1c-2.33 6.2-4.58 9.35-6.5 11s-5.75 4.12-8.5 5.5-8.15 3.18-12 4c-3.92.84-12.06 1.5-18.5 1.5-9 0-12.7-.43-17-2-3.02-1.1-7.52-3.8-10-6s-5.4-5.8-6.5-8-2.45-4-3-4-3.7 2.7-7 6c-4.17 4.17-7.07 8.29-9.5 13.5-3.02 6.48-3.5 8.52-3.5 15 0 5.67.49 8.36 2 11 1.12 1.95 3.99 4.6 6.5 6 3.68 2.04 5.87 2.5 12 2.5 4.22 0 9.25-.66 11.5-1.5 2.2-.82 10.08-4.65 17.5-8.5 9.32-4.83 15.36-7.31 19.5-8 4-.67 7.83-.67 11.5 0 3.02.55 9.33 1.23 14 1.5 7.06.42 9.26.16 13-1.5 2.48-1.1 5.4-3.35 6.5-5 1.44-2.17 2-4.67 2-9 0-4.4-.67-7.33-2.5-11-1.38-2.75-4.52-6.8-7-9zm-23 52c0 22.48.23 29.23.5 29.5s2.3.27 4.5 0 4.45-1.18 5-2 1.67-3.75 2.5-6.5 1.5-8.15 1.5-12c0-4-.43-7-1-7-.55 0-3.7-.45-7-1zm-20 5c-2.75 1.65-7.02 4.12-9.5 5.5L561 437c.77 10.07 1.67 14.35 2.5 16s2.4 3.68 3.5 4.5c1.49 1.12 3.66 1.37 8.5 1 3.58-.27 6.95-.73 7.5-1 .59-.3 1-6 1-14 0-7.43-.23-14.4-.5-15.5s-1.17-2-2-2-3.75 1.35-6.5 3m90 70c-11.55 4.4-21.45 8-22 8s-1 .45-1 1 3.6 3.93 8 7.5c4.4 3.58 10.7 8.98 14 12l6 5.5c21.7-7.75 28.9-10.23 30-10.5s2-.95 2-1.5-1.8-5.05-4-10-5.35-11.25-7-14-3.45-5.23-4-5.5-10.45 3.1-22 7.5m-84.5 30.5c-9.08 3.58-16.95 6.5-17.5 6.5s-1 .45-1 1 2.02 2.35 4.5 4 9 6.83 14.5 11.5 10.67 8.5 11.5 8.5 8.7-2.92 17.5-6.5 16-6.95 16-7.5-5.17-5.73-11.5-11.5-12.85-10.95-14.5-11.5c-2.61-.87-5.14-.16-19.5 5.5m-65.5 24c0 .27-6.98 2.98-15.5 6S484 565.45 484 566s6.3 5.73 14 11.5 14.67 10.95 15.5 11.5c1.1.74 5.85-.71 18-5.5 9.08-3.58 16.73-6.95 17-7.5s-4.67-4.83-11-9.5-13.08-9.62-15-11-4.4-2.5-5.5-2.5-2 .23-2 .5M432.5 583c-2.48 1.1-4.95 2.45-5.5 3-.6.6-.8 4.97-.5 11 .35 7.02.95 10.45 2 11.5.82.83 4.88 3.3 9 5.5 4.86 2.59 8.56 5.41 10.5 8 1.65 2.2 3.9 6.02 5 8.5 1.52 3.42 2 6.67 2 13.5 0 4.95.45 9.45 1 10 .62.62 6.65.81 16 .5 14.62-.49 15.11-.58 19.5-3.5 2.48-1.65 5.4-4.58 6.5-6.5s2.23-5.75 2.5-8.5c.31-3.08-.08-6.73-1-9.5-1.05-3.14-3.61-6.61-8.5-11.5-3.85-3.85-10.6-10.83-15-15.5s-10.02-9.85-12.5-11.5-6.75-3.9-9.5-5c-3.06-1.22-7.33-2-11-2-3.83 0-7.62.72-10.5 2M700 617.5c-4.41.44-5.35.97-8 4.5-1.65 2.2-7.05 9.62-12 16.5s-9 12.73-9 13 5.85.27 13 0l13-.5c3.1-12.4 5.35-19.38 7-23.5s3-8.17 3-9-.45-1.5-1-1.5-3.25.23-6 .5m-73.5 1-13.5.5c-16.27 25.58-21.23 33.45-21.5 34-.33.66 5.34.83 16.5.5 16.48-.48 17.08-.58 19.5-3 1.38-1.38 6.1-7.67 10.5-14s8.9-12.85 10-14.5 2-3.23 2-3.5-2.25-.5-5-.5-11.08.23-18.5.5m-84 2-10.5.5c-21.63 31.97-22.76 34.06-21 34.5 1.1.27 9.42.27 18.5 0l16.5-.5 24-34c-13.17-.77-21.73-.77-27.5-.5m132 45c-.27.27-19.17.73-42 1s-43.98.73-47 1-26.42.73-52 1c-25.57.27-50.32.73-55 1s-14.12.5-21 .5c-12 0-12.6.1-15 2.5-1.38 1.38-4.75 4.08-7.5 6-4.11 2.88-5 4.03-5 6.5v50c0 25.85.23 52.4.5 59 .31 7.38 1.08 13.35 2 15.5.82 1.92 2.4 3.95 3.5 4.5 1.25.63 11.13.81 26.5.5 13.48-.27 40.7-.73 60.5-1s40.95-.73 47-1 25.62-.73 43.5-1 41.5-.73 52.5-1 25.62-.73 32.5-1l12.5-.5 7-7c-.77-75.17-1-102.62-1-109.5 0-10.44-.25-12.5-1.5-12.5-.83 0-3.75-1.58-6.5-3.5-2.95-2.06-5.82-5.14-7-7.5l-2-4c-19.38 0-25.23.23-25.5.5M276 812c-7.99 3.2-13.42 4.2-18.5 4.5-8.35.49-8.45.53-5.5 2 1.65.83 6.38 2.17 10.5 3 4.44.89 10.15 1.3 14 1 3.57-.27 6.73-.95 7-1.5s-1.3-2.8-3.5-5zm340.5 34c-1.92 1.1-10.7 5.15-19.5 9-10.67 4.67-15.67 7.33-15 8 .55.55 7.3 3.02 15 5.5s19.85 5.62 27 7 15.25 2.5 18 2.5 5.23-.45 5.5-1-.17-2.35-1-4-3.3-4.58-5.5-6.5c-2.67-2.33-4-4.33-4-6 0-1.38.67-2.73 1.5-3s3.52.17 6 1 6.08 3.08 8 5 4.4 5.52 5.5 8c1.76 3.95 2.24 4.38 4 3.5 1.1-.55 2.23-1.45 2.5-2s.5-3.02.5-5.5-.67-5.85-1.5-7.5-2.85-4.35-4.5-6-5.48-4.12-8.5-5.5c-4.27-1.94-8.29-2.72-18-3.5-11.7-.94-12.73-.87-16 1M347 863c-4.65 3.88-6.9 6.35-8 8s-2 4.58-2 6.5.9 5.52 2 8 4.02 6.3 6.5 8.5 6.52 5.12 9 6.5 8.32 3.85 13 5.5 9.18 3 10 3c.93 0 1.5-.94 1.5-2.5 0-1.38-.9-4.52-2-7s-4.02-6.52-6.5-9c-2.67-2.67-4.3-5.11-4-6 .27-.83 1.4-1.73 2.5-2s4.25.62 7 2c3 1.5 6.6 4.5 9 7.5 2.2 2.75 4.9 7.48 6 10.5s2 5.95 2 6.5 2.02 1 4.5 1 6.52-.67 9-1.5 5.4-2.4 6.5-3.5 2.68-2.9 3.5-4 1.5-4.02 1.5-6.5c0-3.22-.85-5.92-3-9.5-1.65-2.75-4.12-5.67-5.5-6.5s-6.77-2.17-12-3-14-2.62-19.5-4-14.73-3.85-20.5-5.5z" style="fill:#20211d" transform="translate(10.9733 10.6749)"/><path d="M479 69c2.2-.55 8.95-1 15-1 6.5 0 15.7.82 22.5 2 6.33 1.1 14.42 3.12 18 4.5s8.52 3.62 11 5 6.3 4.53 8.5 7 5.12 6.53 6.5 9 2.95 7.2 3.5 10.5c.67 4 .67 8.17 0 12.5-.55 3.58-2.35 9.42-4 13-1.65 3.57-4.8 8.75-11 16.5h-8.5c-4.67 0-10.08.22-12 .5s-5.52.72-8 1-8.33 1.18-13 2c-4.68.82-10.75 1.95-13.5 2.5s-11.3 2.57-19 4.5-18.95 5.07-25 7-16.62 5.75-23.5 8.5-13.62 5.45-15 6-9.02 4.15-17 8-20.35 10.38-27.5 14.5-19.52 11.78-27.5 17-15.18 10.18-16 11-3.75 3.07-6.5 5-8.82 6.65-13.5 10.5-10.75 9.03-13.5 11.5c-2.75 2.48-9.73 9.23-15.5 15s-11.85 12.52-13.5 15c-2.39 3.58-3.72 4.6-6.5 5-1.93.27-6.65.27-10.5 0-4.43-.32-9.02-1.42-12.5-3-3.03-1.38-7.07-4.07-9-6s-4.62-5.98-6-9-2.72-6.85-3-8.5-.05-5.7.5-9 1.9-7.8 3-10 4.47-7.6 7.5-12 11.35-13.85 18.5-21 18.4-17.5 25-23 16.27-13.15 21.5-17 11.98-8.8 15-11 9.32-6.7 14-10 9.85-6.9 11.5-8 12-8.07 23-15.5c11-7.42 27.2-17.78 36-23s20.73-11.97 26.5-15 17.48-8.2 26-11.5 19.55-6.9 24.5-8 10.8-2.45 13-3" style="fill:#31373a" transform="translate(10.9733 10.6749)"/><path d="M618.5 152c3.2-1.42 6.67-2 12-2 6 0 8.5.5 12.5 2.5 3.27 1.64 5.86 3.88 7.5 6.5 2.05 3.28 2.5 5.27 2.5 11 0 5.67-.57 8.24-3 13.5-1.65 3.57-3.9 7.4-5 8.5-1.47 1.47-2.4 1.73-3.5 1-.83-.55-6.9-4.6-13.5-9s-16.27-10.03-31-17l2-2.5c1.1-1.38 4.92-4.3 8.5-6.5s8.52-4.9 11-6" style="fill:#8dadad" transform="translate(10.9733 10.6749)"/><path d="M706 427c-1.55 3.1-2.23 6.02-2.5 8.5-.41 3.69-.23 4.41 1 4 .83-.27 1.5-.5 1.5-.5s.45 4.73 1 10.5 1.67 14.77 2.5 20 3.08 14.23 5 20 5.75 15 8.5 20.5 8.6 14.95 13 21 10.92 15.5 14.5 21 7.4 12.02 8.5 14.5 2.9 7.42 4 11c1.2 3.91 2.2 10.69 2.5 17 .27 5.77.05 13.65-.5 17.5s-1.9 9.92-3 13.5-3.8 9.42-10 19.5c-2.33-7.75-4.8-12.7-7-16s-6.02-7.58-8.5-9.5-4.5-3.5-4.5-3.5.23-.45.5-1 .5-2.58.5-4.5-.67-4.62-1.5-6-2.85-2.95-7.5-4.5v-16.5c0-9.08-.45-18.75-1-21.5s-1.9-6.35-3-8q-1.995-3-4.5-3c-1.38 0-3.17.67-4 1.5s-1.73 2.62-2 4-.73 10.38-1 20-.73 18.85-1.5 23.5l-11 .5c-6.05.27-14.15.5-25 .5-6.2-13.17-10.02-19.48-12.5-22.5s-6.98-8.2-10-11.5-5.5-6-5.5-6 .45-.23 1-.5 10.9-4.1 23-8.5 28.08-10.25 35.5-13 14.4-5.9 15.5-7c1.33-1.33 2-3.33 2-6 0-2.5-2.25-9.81-6-19.5-3.3-8.52-7.12-18.88-8.5-23-1.9-5.71-3.21-7.98-5.5-9.5-1.85-1.23-3.96-1.81-5.5-1.5-1.38.27-10.38 3.2-20 6.5s-25.83 8.93-36 12.5-29.08 10.32-42 15-48.92 17.73-80 29c-31.07 11.27-64.6 23.42-74.5 27s-20.02 7.4-22.5 8.5c-2.94 1.3-5.2 3.22-6.5 5.5-1.59 2.79-2 5.33-2 12.5 0 4.95-.23 9-.5 9s-3.2-1.35-6.5-3-9.6-5.92-14-9.5-9.8-8.98-12-12-5.12-7.75-6.5-10.5-3.4-5.67-4.5-6.5-3.12-1.73-4.5-2c-1.6-.32-3.4.22-5 1.5-1.92 1.53-2.5 2.93-2.5 6 0 2.57 1.25 6.5 3.5 11 2.67 5.33 6 9.5 14 17.5 5.77 5.77 12.75 12.08 20.5 17.5-9.3 11.62-13.35 17.48-15 20.5s-3.68 7.75-4.5 10.5-1.5 8.38-1.5 12.5v7.5s-5.18-2.48-11.5-5.5-14.88-7.75-19-10.5-10.88-8.38-15-12.5-9.3-10.2-11.5-13.5-5.35-8.92-7-12.5-3.9-10.1-5-14.5-2.9-9.12-4-10.5c-1.17-1.47-3.03-2.5-4.5-2.5-1.38 0-3.4.9-4.5 2-1.47 1.47-2 3.33-2 7 0 2.75.9 8.38 2 12.5s3.8 11.1 6 15.5 6.48 11.38 9.5 15.5 8.43 10.42 12 14 11 9.42 16.5 13 15.85 9.42 23 13 17.5 7.85 23 9.5 13.15 3.67 24 6c-1.55.77-3.12 4.15-4.5 8s-3.18 12.17-4 18.5c-1.06 8.15-1.35 16.6-1 29 .41 14.36.95 19.21 3 27 1.38 5.23 3.85 12.42 5.5 16s4.35 8.52 6 11 3 4.95 3 5.5.45.77 1 .5 1-.5 1-.5v4c0 2.2.45 5.8 1 8s2.35 6.02 4 8.5 4.57 5.62 6.5 7 4.85 2.95 6.5 3.5 5.7 1 15 1c-.77 1.55 2.15 4.02 6 6.5s10.38 6.08 14.5 8 10.43 4.62 14 6 6.5 2.5 6.5 2.5c1.92 3.83 1.54 4.08-3.5 5-3.02.55-5.95 1.45-6.5 2l-1 1h-16c-8.8 0-19.6-.23-32-1 .77-.77.55-1.45 0-2s-2.8-1-5-1-4.23.45-4.5 1-.5 1-.5 1-5.18-.45-11.5-1-14.65-1.67-18.5-2.5-10.82-2.62-15.5-4-12.32-3.85-17-5.5-13.68-5.48-20-8.5c-6.57-3.14-15.14-8.29-20-12-4.68-3.58-11.88-9.65-16-13.5s-9.52-9.7-12-13-6.98-10.05-10-15-7.3-12.83-9.5-17.5-5.57-13-7.5-18.5-4.62-15.17-6-21.5-3.18-16.67-4-23-1.72-19.15-2-28.5-.05-23.52.5-31.5 2.12-25.3 3.5-38.5 3.62-35.25 5-49 2.73-29.27 3.5-44c1.55-.77 2-3.93 2-7.5s-.45-6.95-1-7.5c-.67-.67-1-.67-1 0v1s-.23-1.12-.5-2.5-.95-15.1-1.5-30.5-.77-37.45-.5-49c.28-11.74 1.38-28.06 2.5-37 1.1-8.8 3.12-21.4 4.5-28s4.3-17.62 6.5-24.5 5.57-15.65 7.5-19.5 4.85-9.02 6.5-11.5 8.62-9.45 15.5-15.5 18.35-15.5 25.5-21 17.95-13.38 24-17.5 16.85-10.88 24-15 18.4-10.2 25-13.5 18.3-8.7 26-12 20.75-8.25 29-11 21.52-6.57 29.5-8.5 19.68-4.4 26-5.5c7.22-1.26 18.19-2.19 29.5-2.5 9.9-.28 21.15-.05 25 .5s11.5 2.57 17 4.5 14.5 5.75 20 8.5 13.6 7.7 18 11 8.23 6.45 8.5 7c.3.59-1.33 1-4 1-2.48 0-7.42.68-11 1.5s-10.77 3.53-16 6-11.98 6.53-15 9-7.98 7.43-11 11-7.3 10.1-9.5 14.5-5.12 11.82-6.5 16.5c-2.18 7.4-2.5 10.43-2.5 23.5 0 14 .2 15.6 3 24 1.65 4.95 4.8 11.93 7 15.5 3.84 6.25 3.92 6.54 2 7.5-1.1.55-3.35 1.23-5 1.5s-5.7 2.3-9 4.5-6.9 5.57-8 7.5c-1.28 2.24-3.8 4.4-7 6-2.75 1.38-6.58 3.62-12 7.5l3.5-7.5c1.92-4.12 4.4-11.1 5.5-15.5 1.51-6.02 2-11.33 2-21.5 0-10-.52-15.7-2-22-1.1-4.68-3.35-11.65-5-15.5s-5.02-10.15-7.5-14-7.2-9.7-10.5-13-8.7-7.8-12-10-9.6-5.35-14-7-11.15-3.68-15-4.5c-4.33-.93-12.33-1.5-21-1.5-10.83 0-15.7.45-21.5 2-4.12 1.1-11.77 4.03-17 6.5-5.66 2.68-12.74 7.13-17.5 11-4.4 3.57-10.48 9.65-13.5 13.5s-7.75 11.73-10.5 17.5-5.9 13.88-7 18c-1.58 5.92-2 10.67-2 22.5s.42 16.58 2 22.5c1.1 4.12 4.02 11.55 6.5 16.5s6.75 11.7 9.5 15 7.7 8.25 11 11c3.43 2.86 10.93 7.36 17.5 10.5 6.32 3.02 14.88 6.4 19 7.5 5.86 1.56 10.67 2 22 2 11.17 0 16.34-.46 22.5-2 4.4-1.1 11.38-3.57 15.5-5.5s10.65-5.98 14.5-9 7-5.05 7-4.5-.45 1.23-1 1.5-1.9 3.43-3 7-2.23 8.3-2.5 10.5-.05 6.48.5 9.5 1.9 7.3 3 9.5 3.57 5.8 5.5 8c2.22 2.54 5.7 4.92 9.5 6.5 4.65 1.94 8.37 2.61 27 3.5l2 7c1.1 3.85 2.9 9.02 4 11.5 1.17 2.62 3.67 5.75 6 7.5 2.55 1.91 5.63 3.18 8.5 3.5 2.48.27 7.42.05 11-.5s8.3-1.9 10.5-3 6.92-2.23 10.5-2.5 8.08-1.18 10-2 4.4-2.62 5.5-4 2.67-3.85 3.5-5.5 2.17-5.25 3-8 1.5-8.38 1.5-20l6.5-3c3.91-1.81 7.89-4.59 10-7 1.92-2.2 4.4-6.02 5.5-8.5 1.38-3.11 2-6.67 2-11.5 0-3.85-.67-9.02-1.5-11.5s-2.4-6.07-3.5-8-2-3.73-2-4 4.05-.5 9-.5 11.92-.68 15.5-1.5 9.88-3.07 14-5 9.98-5.52 13-8 5.73-4.27 6-4 1.17 3.2 2 6.5 2.4 13.43 3.5 22.5 2.45 22.57 4 43.5m-441 83c0 .55.23 1.23.5 1.5s1.4.27 2.5 0c1.85-.46 1.81-.58-.5-1.5-1.67-.67-2.5-.67-2.5 0m-.5 9.5c-.27.27-.05.95.5 1.5q1.005 1.005 1.5 0c.27-.55.05-1.23-.5-1.5s-1.23-.27-1.5 0M729 560c-.55.55-.77 1.45-.5 2 .3.59 1.11.39 2-.5s1.09-1.7.5-2c-.55-.27-1.45-.05-2 .5m-3 5c0 .55.67 1 1.5 1 1.33 0 1.33-.11 0-1q-1.5-1.005-1.5 0M258 724.5c0 .27.23.5.5.5s.27-.23 0-.5-.5-.27-.5 0" style="fill:#8babaa" transform="translate(10.9733 10.6749)"/><path d="M616.5 223c1.98-.56 9.16-.78 16.5-.5 10.93.42 14.43.98 22 3.5 4.95 1.65 11.7 4.57 15 6.5s8.48 5.97 11.5 9 6.85 7.53 8.5 10 4.35 7.43 6 11 3.9 9.88 5 14c1.51 5.67 2 10.67 2 20.5s-.49 14.83-2 20.5c-1.1 4.12-3.35 10.2-5 13.5-1.74 3.49-5.72 8.72-9.5 12.5s-9.01 7.76-12.5 9.5c-3.3 1.65-9.38 3.9-13.5 5-4.33 1.16-10.67 2-15 2-4.12 0-9.3-.45-11.5-1s-6.48-1.9-9.5-3c-4.31-1.57-6.47-3.19-10-7.5-3.37-4.12-6.13-6.25-11-8.5-3.58-1.65-9.2-3.45-12.5-4s-6.67-1.68-7.5-2.5-2.85-3.52-4.5-6-4.12-6.75-5.5-9.5-3.4-8.38-4.5-12.5c-1.64-6.17-1.91-9.54-1.5-19 .41-9.38 1.05-13.07 3.5-20 1.65-4.68 4.35-10.97 6-14 1.77-3.24 6.29-8.58 11-13 5.96-5.59 10.16-8.52 16.5-11.5 4.67-2.2 10.08-4.45 12-5M601 277c-2.2 1.1-5.58 3.8-7.5 6s-4.17 5.57-5 7.5-1.73 6.43-2 10-.05 8.3.5 10.5 2.35 6.02 4 8.5c1.73 2.59 4.91 5.56 7.5 7 2.61 1.45 6.81 2.71 10 3 4.07.37 6.8-.02 10.5-1.5 2.95-1.18 6.44-3.64 8.5-6 1.92-2.2 4.4-6.02 5.5-8.5 1.64-3.7 1.91-5.92 1.5-12.5-.27-4.4-1.17-9.35-2-11s-3.08-4.8-5-7-5.3-4.9-7.5-6c-2.55-1.27-6-2-9.5-2s-6.95.73-9.5 2M437 246c2.75-.55 9.73-.78 15.5-.5s13.88 1.4 18 2.5 10.43 3.35 14 5 8.98 5.02 12 7.5 7.52 7.2 10 10.5 6.3 9.82 8.5 14.5 4.67 11.65 5.5 15.5 1.73 10.15 2 14 .05 10.38-.5 14.5-1.9 10.2-3 13.5-3.35 8.93-5 12.5-4.8 8.75-7 11.5-7.15 7.48-11 10.5-10.15 7.07-14 9-10.38 4.4-14.5 5.5-10.65 2.23-14.5 2.5-10.6.05-15-.5-11.6-2.35-16-4-11.15-4.8-15-7-10.15-7.15-14-11-8.57-9.7-10.5-13-4.62-9.6-6-14c-2.13-6.81-2.5-9.93-2.5-21 0-9.67.51-15.05 2-21 1.1-4.4 3.57-11.15 5.5-15s5.52-9.7 8-13 6.52-7.8 9-10 6.52-5.35 9-7 6.75-4.12 9.5-5.5 7.25-3.18 10-4 7.25-1.95 10-2.5m28 53c-2.8 1.68-6.1 4.76-7.5 7-1.38 2.2-3.18 6.02-4 8.5s-1.5 6.75-1.5 9.5.68 7.02 1.5 9.5c.97 2.91 3.44 6.44 7 10 4.19 4.19 6.57 5.74 10 6.5 2.48.55 6.52.77 9 .5s6.52-1.62 9-3 5.62-3.85 7-5.5 3.4-4.8 4.5-7c1.43-2.86 2-6 2-11 0-4.83-.62-8.39-2-11.5-1.1-2.48-3.57-6.3-5.5-8.5s-5.3-4.9-7.5-6c-2.77-1.38-6-2-10.5-2-5.44 0-7.31.49-11.5 3" style="fill:#f7f1e6" transform="translate(10.9733 10.6749)"/><path d="M601 277c2.55-1.27 6-2 9.5-2s6.95.73 9.5 2c2.2 1.1 5.58 3.8 7.5 6s4.17 5.35 5 7 1.73 6.6 2 11c.41 6.58.14 8.8-1.5 12.5-1.1 2.48-3.58 6.3-5.5 8.5-2.06 2.36-5.55 4.82-8.5 6-3.7 1.48-6.43 1.87-10.5 1.5-3.19-.29-7.39-1.55-10-3-2.59-1.44-5.77-4.41-7.5-7-1.65-2.48-3.45-6.3-4-8.5s-.77-6.93-.5-10.5 1.17-8.07 2-10 3.08-5.3 5-7.5 5.3-4.9 7.5-6m16 15.5c-.55.82-1.23 1.95-1.5 2.5s-.05 2.12.5 3.5c.79 1.98 1.52 2.4 3.5 2q2.505-.495 3-3c.27-1.38.05-3.4-.5-4.5s-1.67-2-2.5-2-1.95.68-2.5 1.5" style="fill:#20211d" transform="translate(10.9733 10.6749)"/><path d="M617 292.5c.55-.82 1.67-1.5 2.5-1.5s1.95.9 2.5 2 .77 3.12.5 4.5q-.495 2.505-3 3c-1.98.4-2.71-.02-3.5-2-.55-1.38-.77-2.95-.5-3.5s.95-1.68 1.5-2.5" style="fill:#f9f7ee" transform="translate(10.9733 10.6749)"/><path d="M465 299c4.19-2.51 6.06-3 11.5-3 4.5 0 7.73.62 10.5 2 2.2 1.1 5.57 3.8 7.5 6s4.4 6.02 5.5 8.5c1.38 3.11 2 6.67 2 11.5 0 5-.57 8.14-2 11-1.1 2.2-3.12 5.35-4.5 7s-4.52 4.12-7 5.5-6.52 2.73-9 3-6.52.05-9-.5c-3.43-.76-5.81-2.31-10-6.5-3.56-3.56-6.03-7.09-7-10-.82-2.48-1.5-6.75-1.5-9.5s.68-7.02 1.5-9.5 2.62-6.3 4-8.5c1.4-2.24 4.7-5.32 7.5-7m18 15.5c-.67 1.67-.67 3 0 4 .55.82 1.68 1.95 2.5 2.5q1.5 1.005 3 0c.82-.55 1.5-2.35 1.5-4s-.45-3.45-1-4-1.9-1-3-1c-1.2 0-2.4 1-3 2.5" style="fill:#20211d" transform="translate(10.9733 10.6749)"/><path d="M483 314.5c.6-1.5 1.8-2.5 3-2.5 1.1 0 2.45.45 3 1s1 2.35 1 4-.68 3.45-1.5 4q-1.5 1.005-3 0c-.82-.55-1.95-1.68-2.5-2.5-.67-1-.67-2.33 0-4" style="fill:#f9f6ee" transform="translate(10.9733 10.6749)"/><path d="M556 373c.77-.77.55-1.23 0-1.5s-1-.5-1-.5l-1-2c-.55-1.1-.77-3.12-.5-4.5s1.62-3.85 3-5.5 4.52-3.9 7-5c3.04-1.35 7.57-2.16 14-2.5 5.23-.27 11.75-.05 14.5.5s6.12 1.9 7.5 3 2.95 3.12 3.5 4.5q1.005 2.505 0 6c-.71 2.47-2.32 4.38-5.5 6.5-2.48 1.65-7.65 3.9-11.5 5s-9.48 2-12.5 2-7.3-.45-9.5-1-4.9-1.9-8-5" style="fill:#31373a" transform="translate(10.9733 10.6749)"/><path d="M556 373v-.5c0-.27-.23-.73-1-1.5 0 0 .45.23 1 .5s.77.73 0 1.5" style="fill:#353c40" transform="translate(10.9733 10.6749)"/><path d="m618 372 4.5 4c2.48 2.2 5.62 6.25 7 9 1.83 3.67 2.5 6.6 2.5 11 0 4.33-.56 6.83-2 9-1.1 1.65-4.02 3.9-6.5 5-3.74 1.66-5.94 1.92-13 1.5-4.67-.27-10.98-.95-14-1.5-3.67-.67-7.5-.67-11.5 0-4.14.69-10.18 3.17-19.5 8-7.42 3.85-15.3 7.68-17.5 8.5-2.25.84-7.28 1.5-11.5 1.5-6.13 0-8.32-.46-12-2.5-2.51-1.4-5.38-4.05-6.5-6-1.51-2.64-2-5.33-2-11 0-6.48.48-8.52 3.5-15 2.43-5.21 5.33-9.33 9.5-13.5 3.3-3.3 6.45-6 7-6s1.9 1.8 3 4 4.02 5.8 6.5 8 6.98 4.9 10 6c4.3 1.57 8 2 17 2 6.44 0 14.58-.66 18.5-1.5 3.85-.82 9.25-2.62 12-4s6.58-3.85 8.5-5.5 4.17-4.8 6.5-11" style="fill:#e0bd9d" transform="translate(10.9733 10.6749)"/><path d="m595 424 6 1c3.3.55 6.45 1 7 1 .57 0 1 3 1 7 0 3.85-.67 9.25-1.5 12s-1.95 5.68-2.5 6.5-2.8 1.73-5 2-4.23.27-4.5 0-.5-7.02-.5-29.5" style="fill:#f8f3e9" transform="translate(10.9733 10.6749)"/><path d="M575 429c2.75-1.65 5.67-3 6.5-3s1.73.9 2 2 .5 8.07.5 15.5c0 8-.41 13.7-1 14-.55.27-3.92.73-7.5 1-4.84.37-7.01.12-8.5-1-1.1-.82-2.67-2.85-3.5-4.5s-1.73-5.93-2.5-16l4.5-2.5c2.48-1.38 6.75-3.85 9.5-5.5" style="fill:#f7f2e7" transform="translate(10.9733 10.6749)"/><path d="M706 427v12s-.67.23-1.5.5c-1.23.41-1.41-.31-1-4 .27-2.48.95-5.4 2.5-8.5" style="fill:#97bbba" transform="translate(10.9733 10.6749)"/><path d="M665 499c11.55-4.4 21.45-7.77 22-7.5s2.35 2.75 4 5.5 4.8 9.05 7 14 4 9.45 4 10-.9 1.23-2 1.5-8.3 2.75-30 10.5l-6-5.5c-3.3-3.02-9.6-8.42-14-12-4.4-3.57-8-6.95-8-7.5s.45-1 1-1 10.45-3.6 22-8" style="fill:#f7f1e7" transform="translate(10.9733 10.6749)"/><path d="M262 514v-15c0-.67.33-.67 1 0 .55.55 1 3.93 1 7.5s-.45 6.73-2 7.5" style="fill:#9bbfc0" transform="translate(10.9733 10.6749)"/><path d="M265 510c0-.67.83-.67 2.5 0 2.31.92 2.35 1.04.5 1.5-1.1.27-2.23.27-2.5 0s-.5-.95-.5-1.5" style="fill:#85a4a4" transform="translate(10.9733 10.6749)"/><path d="M264.5 519.5c.27-.27.95-.27 1.5 0s.77.95.5 1.5q-.495 1.005-1.5 0c-.55-.55-.77-1.23-.5-1.5" style="fill:#81a2a0" transform="translate(10.9733 10.6749)"/><path d="M580.5 529.5c14.36-5.66 16.89-6.37 19.5-5.5 1.65.55 8.17 5.73 14.5 11.5S626 546.45 626 547s-7.2 3.92-16 7.5-16.67 6.5-17.5 6.5-6-3.83-11.5-8.5-12.02-9.85-14.5-11.5-4.5-3.45-4.5-4 .45-1 1-1 8.42-2.92 17.5-6.5M515 553.5c0-.27.9-.5 2-.5s3.58 1.12 5.5 2.5 8.67 6.33 15 11 11.27 8.95 11 9.5-7.92 3.92-17 7.5c-12.15 4.79-16.9 6.24-18 5.5-.83-.55-7.8-5.73-15.5-11.5s-14-10.95-14-11.5 6.98-3.48 15.5-6.5 15.5-5.73 15.5-6" style="fill:#f7f1e7" transform="translate(10.9733 10.6749)"/><path d="M729 560c.55-.55 1.45-.77 2-.5.59.3.39 1.11-.5 2s-1.7 1.09-2 .5c-.27-.55-.05-1.45.5-2" style="fill:#90b1b0" transform="translate(10.9733 10.6749)"/><path d="M643 561s2.48 2.7 5.5 6 7.52 8.48 10 11.5 6.3 9.33 12.5 22.5c0 0-2.48.23-5.5.5s-20.8.95-39.5 1.5-36.25 1.23-39 1.5-18.73.73-35.5 1c-20.68.34-29.86.18-28.5-.5 1.1-.55 20.67-7.98 43.5-16.5s49.38-18.2 76.5-27.5" style="fill:#e0bd9d" transform="translate(10.9733 10.6749)"/><path d="M726 565q0-1.005 1.5 0c1.33.89 1.33 1 0 1-.83 0-1.5-.45-1.5-1" style="fill:#87a7a9" transform="translate(10.9733 10.6749)"/><path d="M432.5 583c2.88-1.28 6.67-2 10.5-2 3.67 0 7.94.78 11 2 2.75 1.1 7.02 3.35 9.5 5s8.1 6.83 12.5 11.5 11.15 11.65 15 15.5c4.89 4.89 7.45 8.36 8.5 11.5.92 2.77 1.31 6.42 1 9.5-.27 2.75-1.4 6.58-2.5 8.5s-4.02 4.85-6.5 6.5c-4.39 2.92-4.88 3.01-19.5 3.5-9.35.31-15.38.12-16-.5-.55-.55-1-5.05-1-10 0-6.83-.48-10.08-2-13.5-1.1-2.48-3.35-6.3-5-8.5-1.94-2.59-5.64-5.41-10.5-8-4.12-2.2-8.18-4.67-9-5.5-1.05-1.05-1.65-4.48-2-11.5-.3-6.03-.1-10.4.5-11 .55-.55 3.02-1.9 5.5-3m7 13.5c-1.83 1.83-2.5 3.57-2.5 6.5 0 2.67.67 4.67 2 6s3.33 2 6 2c3.11 0 4.67-.67 7-3q3-3 3-6c0-1.87-.94-3.94-2.5-5.5-1.83-1.83-3.57-2.5-6.5-2.5s-4.67.67-6.5 2.5m41.5 32c-.55.27-2.35.95-4 1.5-1.73.58-3.63 2.27-4.5 4-1.13 2.27-1.26 3.73-.5 6q1.005 3 4.5 4.5c2.67 1.14 4.33 1.26 7 .5 2.33-.67 4-2 5-4 .82-1.65 1.5-4.12 1.5-5.5s-.68-3.17-1.5-4-2.62-1.95-4-2.5-2.95-.77-3.5-.5" style="fill:#31373a" transform="translate(10.9733 10.6749)"/><path d="M439.5 596.5c1.83-1.83 3.57-2.5 6.5-2.5s4.67.67 6.5 2.5c1.56 1.56 2.5 3.63 2.5 5.5q0 3-3 6c-2.33 2.33-3.89 3-7 3-2.67 0-4.67-.67-6-2s-2-3.33-2-6c0-2.93.67-4.67 2.5-6.5" style="fill:#22231e" transform="translate(10.9733 10.6749)"/><path d="M393 608s2.25 1.12 5 2.5 8.6 4.08 13 6 11.15 5.3 15 7.5 8.12 5.35 9.5 7 2.95 4.8 3.5 7 .77 5.58.5 7.5c-.32 2.22-1.05 3.5-2 3.5-.82 0-4.2-1.35-7.5-3s-7.12-3-8.5-3c-1.73 0-2.81.77-3.5 2.5-.75 1.87-.62 3.13.5 5 .82 1.38 4.2 3.85 7.5 5.5s6 3.45 6 4-1.8 2.12-4 3.5-5.8 3.17-8 4-6.02 1.5-8.5 1.5-8.55-.9-13.5-2-12.82-3.35-26-8v-7.5c0-4.12.68-9.75 1.5-12.5s2.85-7.48 4.5-10.5 5.7-8.88 15-20.5" style="fill:#dfbd9d" transform="translate(10.9733 10.6749)"/><path d="M732 616s2.02 1.58 4.5 3.5 6.3 6.2 8.5 9.5 4.67 8.25 7 16c0 0-1.8 2.48-4 5.5-2.3 3.16-6.34 6.99-9.5 9-3.02 1.92-7.52 3.95-10 4.5s-5.62.77-7 .5-3.4-1.4-4.5-2.5c-1.47-1.47-2-3.33-2-7 0-3.75 1-7.12 4-13.5 2.2-4.67 6.02-12.33 13-25.5" style="fill:#e0bd9d" transform="translate(10.9733 10.6749)"/><path d="M700 617.5c2.75-.27 5.45-.5 6-.5s1 .67 1 1.5-1.35 4.88-3 9-3.9 11.1-7 23.5l-13 .5c-7.15.27-13 .27-13 0s4.05-6.12 9-13 10.35-14.3 12-16.5c2.65-3.53 3.59-4.06 8-4.5" style="fill:#f7f2e8" transform="translate(10.9733 10.6749)"/><path d="M626.5 618.5c7.42-.27 15.75-.5 18.5-.5s5 .23 5 .5-.9 1.85-2 3.5-5.6 8.17-10 14.5-9.12 12.62-10.5 14c-2.42 2.42-3.02 2.52-19.5 3-11.16.33-16.83.16-16.5-.5.27-.55 5.23-8.42 21.5-34zM542.5 620.5c5.77-.27 14.33-.27 27.5.5l-24 34-16.5.5c-9.08.27-17.4.27-18.5 0-1.76-.44-.63-2.53 21-34.5z" style="fill:#f7f1e6" transform="translate(10.9733 10.6749)"/><path d="M481 628.5c.55-.27 2.12-.05 3.5.5s3.18 1.67 4 2.5 1.5 2.62 1.5 4-.68 3.85-1.5 5.5c-1 2-2.67 3.33-5 4-2.67.76-4.33.64-7-.5q-3.495-1.5-4.5-4.5c-.76-2.27-.63-3.73.5-6 .87-1.73 2.77-3.42 4.5-4 1.65-.55 3.45-1.23 4-1.5" style="fill:#22231e" transform="translate(10.9733 10.6749)"/><path d="M674.5 665.5c.27-.27 6.12-.5 25.5-.5l2 4c1.18 2.36 4.05 5.44 7 7.5 2.75 1.92 5.67 3.5 6.5 3.5 1.25 0 1.5 2.06 1.5 12.5 0 6.88.23 34.33 1 109.5l-7 7-12.5.5c-6.88.27-21.5.73-32.5 1s-34.62.73-52.5 1-37.45.73-43.5 1-27.2.73-47 1-47.02.73-60.5 1c-15.37.31-25.25.13-26.5-.5-1.1-.55-2.68-2.58-3.5-4.5-.92-2.15-1.69-8.12-2-15.5-.27-6.6-.5-33.15-.5-59v-50c0-2.47.89-3.62 5-6.5 2.75-1.92 6.12-4.62 7.5-6 2.4-2.4 3-2.5 15-2.5 6.88 0 16.32-.23 21-.5s29.43-.73 55-1c25.58-.27 48.98-.73 52-1s24.17-.73 47-1 41.73-.73 42-1m-6.5 37c-4.95.27-37.35 1.17-72 2s-70.2 1.73-79 2-28.15.73-43 1l-27 .5v10c24.8 0 43.7-.45 58-1q25.995-1.005 27 0c.58.58 1.21 11.21 1.5 25.5l.5 24.5c-19.38.77-38.73 1.45-55.5 2l-30.5 1v9c10.85 0 29.07-.23 47.5-.5 18.42-.27 41.6-.73 51.5-1s23.4-.73 30-1 34.27-.95 61.5-1.5 52.42-1.23 56-1.5l6.5-.5v-10c-29.45.77-55.33 1.45-76.5 2s-47.95 1.23-59.5 1.5l-21 .5c-.82-40.18-.64-49.36 0-50 .55-.55 8.88-1.23 18.5-1.5s38.42-.95 64-1.5 52.58-1.23 60-1.5l13.5-.5v-10c-17.83 0-27.05.23-32 .5" style="fill:#303638" transform="translate(10.9733 10.6749)"/><path d="M404 685h3.5c2.22 0 3.68.55 4 1.5.27.83.73 13.42 1 28s.73 39.77 1.5 85.5c0 0-.45.23-1 .5s-1 .05-1-.5-1.35-3.02-3-5.5-4.35-7.42-6-11-4.12-10.77-5.5-16c-2.05-7.79-2.59-12.64-3-27-.35-12.4-.06-20.85 1-29 .82-6.33 2.62-14.65 4-18.5s2.95-7.23 4.5-8" style="fill:#e0bd9d" transform="translate(10.9733 10.6749)"/><path d="M668 702.5c4.95-.27 14.17-.5 32-.5v10l-13.5.5c-7.42.27-34.42.95-60 1.5s-54.38 1.23-64 1.5-17.95.95-18.5 1.5c-.64.64-.82 9.82 0 50l21-.5c11.55-.27 38.33-.95 59.5-1.5s47.05-1.23 76.5-2v10l-6.5.5c-3.58.27-28.77.95-56 1.5s-54.9 1.23-61.5 1.5-20.1.73-30 1-33.08.73-51.5 1c-18.43.27-36.65.5-47.5.5v-9l30.5-1c16.77-.55 36.12-1.23 55.5-2l-.5-24.5c-.29-14.29-.92-24.92-1.5-25.5q-1.005-1.005-27 0c-14.3.55-33.2 1-58 1v-10l27-.5c14.85-.27 34.2-.73 43-1s44.35-1.17 79-2 67.05-1.73 72-2" style="fill:#f6f1e8" transform="translate(10.9733 10.6749)"/><path d="M258 724.5c0-.27.23-.27.5 0s.27.5 0 .5-.5-.23-.5-.5" style="fill:#7a9b99" transform="translate(10.9733 10.6749)"/><path d="m276 812 4 4c2.2 2.2 3.77 4.45 3.5 5s-3.43 1.23-7 1.5c-3.85.3-9.56-.11-14-1-4.12-.83-8.85-2.17-10.5-3-2.95-1.47-2.85-1.51 5.5-2 5.08-.3 10.51-1.3 18.5-4.5" style="fill:#e6c6a5" transform="translate(10.9733 10.6749)"/><path d="M512 859c-16.27-3.1-21.68-4-22.5-4H488s-2.93-1.12-6.5-2.5-9.88-4.08-14-6-10.65-5.52-14.5-8-6.77-4.95-6-6.5c0 0 33.3-.67 74-1.5s77.6-1.5 82-1.5c7.11 0 7.83.17 6.5 1.5-.83.83-8.48 4.42-17 8s-19.77 7.85-25 9.5-17.38 4.58-27 6.5-19.98 3.73-28.5 4.5" style="fill:#e0be9e" transform="translate(10.9733 10.6749)"/><path d="M616.5 846c3.27-1.87 4.3-1.94 16-1 9.71.78 13.73 1.56 18 3.5 3.02 1.38 6.85 3.85 8.5 5.5s3.67 4.35 4.5 6 1.5 5.02 1.5 7.5-.23 4.95-.5 5.5-1.4 1.45-2.5 2c-1.76.88-2.24.45-4-3.5-1.1-2.48-3.58-6.08-5.5-8s-5.52-4.17-8-5-5.17-1.27-6-1-1.5 1.62-1.5 3c0 1.67 1.33 3.67 4 6 2.2 1.92 4.67 4.85 5.5 6.5s1.27 3.45 1 4-2.75 1-5.5 1-10.85-1.12-18-2.5-19.3-4.52-27-7-14.45-4.95-15-5.5c-.67-.67 4.33-3.33 15-8 8.8-3.85 17.58-7.9 19.5-9" style="fill:#e1bf9f" transform="translate(10.9733 10.6749)"/><path d="M488 855h1.5c.82 0 6.23.9 22.5 4 0 0-.45.23-1 .5s-7.98 1.17-32 3.5c-.77-.77-1-.77-1-.5v.5h-1l1-1c.55-.55 3.48-1.45 6.5-2 5.04-.92 5.42-1.17 3.5-5" style="fill:#8eb3b5" transform="translate(10.9733 10.6749)"/><path d="M429 862s-.68-.23-1.5-.5-3.07-.5-8.5-.5c0 0 .23-.45.5-1s2.3-1 4.5-1 4.45.45 5 1 .77 1.23 0 2" style="fill:#9bbfbf" transform="translate(10.9733 10.6749)"/><path d="M479 863h-1v-.5c0-.27.23-.27 1 .5" style="fill:#8babaa" transform="translate(10.9733 10.6749)"/><path d="m347 863 10.5 3c5.77 1.65 15 4.12 20.5 5.5s14.27 3.17 19.5 4 10.62 2.17 12 3 3.85 3.75 5.5 6.5c2.15 3.58 3 6.28 3 9.5 0 2.48-.68 5.4-1.5 6.5s-2.4 2.9-3.5 4-4.02 2.67-6.5 3.5-6.52 1.5-9 1.5-4.5-.45-4.5-1-.9-3.48-2-6.5-3.8-7.75-6-10.5c-2.4-3-6-6-9-7.5-2.75-1.38-5.9-2.27-7-2s-2.23 1.17-2.5 2c-.3.89 1.33 3.33 4 6 2.48 2.48 5.4 6.52 6.5 9s2 5.62 2 7c0 1.56-.57 2.5-1.5 2.5-.82 0-5.32-1.35-10-3s-10.52-4.12-13-5.5-6.52-4.3-9-6.5-5.4-6.02-6.5-8.5-2-6.08-2-8 .9-4.85 2-6.5 3.35-4.12 8-8" style="fill:#e0be9f" transform="translate(10.9733 10.6749)"/></svg>