<?xml version="1.0" encoding="UTF-8" standalone="no"?><!DOCTYPE svg PUBLIC "-//W3C//DTD SVG 1.1//EN" "http://www.w3.org/Graphics/SVG/1.1/DTD/svg11.dtd"><svg width="100%" height="100%" viewBox="0 0 1000 1000" version="1.1" xmlns="http://www.w3.org/2000/svg" xmlns:xlink="http://www.w3.org/1999/xlink" xml:space="preserve" xmlns:serif="http://www.serif.com/" style="fill-rule:evenodd;clip-rule:evenodd;"><g transform="matrix(1,0,0,1,10.9733,10.6749)"><g transform="matrix(0.985827,0,0,0.950503,-13.4172,-9.21784)"><rect x="2.479" y="-1.533" width="1014.38" height="1052.08" style="fill:rgb(247,241,228);"/></g><g><path d="M478,54C481.3,53.45 489.4,53 496,53C502.6,53 511.38,53.45 515.5,54C519.62,54.55 525.7,55.67 529,56.5C532.3,57.33 538.15,59.12 542,60.5C545.85,61.88 552.38,65.25 556.5,68C560.62,70.75 566.02,75.25 568.5,78C570.98,80.75 574.35,85.92 576,89.5C577.65,93.08 579.67,98.7 580.5,102C581.33,105.3 582,110.47 582,113.5C582,116.53 581.55,121.47 581,124.5C580.45,127.53 577.98,134.28 575.5,139.5C573.02,144.72 569.2,151.03 567,153.5C563.95,156.93 563.36,158.12 564.5,158.5C565.33,158.78 568.92,159.45 579,161L586,154.5C589.85,150.93 595.7,146.2 599,144C602.3,141.8 608.6,138.88 613,137.5C617.4,136.12 623.7,134.78 627,134.5C630.52,134.21 635.89,134.62 640,135.5C643.85,136.32 649.02,138.12 651.5,139.5C653.98,140.88 657.8,143.57 660,145.5C662.21,147.44 665.12,151.46 666.5,154.5C668.08,157.98 669.18,162.57 669.5,167C669.77,170.85 669.55,176.25 669,179C668.45,181.75 666.65,186.93 665,190.5C663.35,194.07 660.42,199.03 655,206L659,209.5C661.2,211.43 665.7,214.35 669,216C672.3,217.65 677.02,220.35 679.5,222C681.98,223.65 686.92,227.7 690.5,231C694.08,234.3 698.8,239.7 701,243C703.2,246.3 706.8,252.82 709,257.5C711.2,262.18 713.9,269.82 715,274.5C716.5,280.88 717,286.5 717,297C717,305.67 716.43,313.67 715.5,318C714.67,321.85 712.88,327.7 709,337L711.5,346.5C712.88,351.73 715.35,365.45 717,377C718.65,388.55 720.45,404.75 721,413C721.55,421.25 722.45,435.65 723,445C723.55,454.35 724.9,466.27 726,471.5C727.1,476.73 729.12,484.38 730.5,488.5C731.88,492.62 734.58,499.15 736.5,503C738.42,506.85 745.85,518.55 753,529C760.15,539.45 768.02,551.83 770.5,556.5C772.98,561.17 776.12,568.6 777.5,573C779.54,579.53 780.09,583.76 780.5,596C780.91,608.43 780.66,612.71 779,621C777.9,626.5 775.88,633.7 774.5,637C773.12,640.3 770.2,646.15 768,650C765.59,654.21 760.61,660.39 755.5,665.5C749.21,671.79 745.31,674.78 734,680L734.5,740.5C734.93,792.4 734.79,801.71 733.5,806C732.57,809.11 730.3,812.89 727.5,816C725.02,818.75 721.2,821.9 719,823C716.8,824.1 713.2,825.23 711,825.5C708.8,825.77 693.05,826.45 676,827C651.58,827.79 644.47,828.32 642.5,829.5C640.6,830.64 640.36,831.12 641.5,831.5C642.33,831.77 645.02,832.45 647.5,833C649.98,833.55 654.48,835.12 657.5,836.5C660.76,837.98 665.44,841.44 669,845C672.3,848.3 675.9,853.02 677,855.5C678.42,858.7 679,862.17 679,867.5C679,873 678.47,876.07 677,879C675.9,881.2 673.65,884.12 672,885.5C670.35,886.88 666.98,888.9 664.5,890C662.02,891.1 656.62,892.45 652.5,893C647.5,893.67 641.33,893.67 634,893C627.95,892.45 617.6,890.65 611,889C604.4,887.35 594.5,884.42 589,882.5C583.5,880.58 575.62,877.42 571.5,875.5C567.38,873.58 562.65,871.1 558,868L540.5,871.5C530.88,873.42 516.02,875.9 507.5,877C494.92,878.62 486.17,879 430,879L432,884.5C433.52,888.69 433.88,891.55 433.5,896.5C433.23,900.08 432.32,904.58 431.5,906.5C430.68,908.42 428.2,911.8 426,914C423.8,916.2 419.75,919.12 417,920.5C414.25,921.88 409.3,923.67 406,924.5C401.65,925.59 396.83,925.86 388.5,925.5C381.42,925.19 374.31,924.23 370,923C366.15,921.9 360.3,919.88 357,918.5C353.7,917.12 348.07,914.2 344.5,912C340.93,909.8 335.75,905.52 333,902.5C330.25,899.48 326.88,894.52 325.5,891.5C324.12,888.48 322.77,883.52 322.5,880.5C322.23,877.48 322.45,872.98 323,870.5C323.55,868.02 325.57,863.98 327.5,861.5C329.43,859.02 331,856.55 331,856C331,855.45 326.95,852.98 322,850.5C317.05,848.02 309.62,843.3 298,834L293.5,835C291.02,835.55 283.38,836 276.5,836C269.39,836 260.77,835.35 256.5,834.5C252.38,833.67 246.07,831.65 242.5,830C238.92,828.35 233.98,824.98 231.5,822.5C229.03,820.02 225.88,815.75 224.5,813C223.08,810.17 222,806.27 222,804C222,800.8 222.5,799.7 224.5,798.5C226.72,797.17 227.44,797.17 231,798.5C233.2,799.33 237.03,800.67 239.5,801.5C241.97,802.33 246.93,803 250.5,803C254.07,803 259.25,802.55 262,802C264.75,801.45 267,800.55 267,800C267,799.45 263.18,791.58 258.5,782.5C253.82,773.42 248.43,761.5 246.5,756C244.57,750.5 241.88,741.05 240.5,735C239.12,728.95 237.32,719.5 236.5,714C235.68,708.5 234.55,696.12 234,686.5C233.33,674.83 233.33,662.83 234,650.5C234.55,640.33 236.12,621.2 237.5,608C238.88,594.8 241.12,573.2 242.5,560C243.88,546.8 245.22,529.02 245.5,520.5C245.78,511.98 245.32,491.95 244.5,476C243.56,457.89 243.19,437.8 243.5,422.5C243.78,409.02 244.68,392.15 245.5,385C246.32,377.85 247.9,366.6 249,360C250.1,353.4 252.12,343.5 253.5,338C254.88,332.5 257.57,323.73 259.5,318.5C261.43,313.27 262.77,308.77 262.5,308.5C262.23,308.23 260.43,308.45 258.5,309C256.57,309.55 251.62,310 247.5,310C243.38,310 237.53,309.32 234.5,308.5C231.47,307.68 225.62,305.43 221.5,303.5C216.03,300.95 212.65,298.51 209,294.5C206.25,291.48 202.88,286.52 201.5,283.5C200.12,280.48 198.55,275.75 198,273C197.45,270.25 197.22,264.18 197.5,259.5C197.78,254.73 198.88,248.59 200,245.5C201.1,242.47 204.25,236.62 207,232.5C209.75,228.38 215.15,221.18 219,216.5C222.85,211.82 231.4,202.82 238,196.5C244.6,190.18 256.75,179.6 265,173C273.25,166.4 286.98,156.05 295.5,150C304.02,143.95 320.68,132.25 332.5,124C344.32,115.75 354.9,108.1 356,107C357.88,105.12 357.91,104.76 356.5,101C355.68,98.8 355,95.2 355,93C355,90.8 355.45,87.88 356,86.5C356.55,85.12 358.35,82.42 360,80.5C361.65,78.58 364.35,76.33 366,75.5C367.65,74.67 370.8,74 373,74C375.5,74 377.94,74.75 379.5,76C381.17,77.33 382,79 382,81C382,82.65 380.88,86.03 379.5,88.5C378.12,90.97 377.23,93.22 377.5,93.5C377.77,93.78 382.73,91.3 388.5,88C394.27,84.7 404.85,79.08 412,75.5C419.15,71.92 429.27,67.42 434.5,65.5C439.73,63.58 446.93,61.1 450.5,60C454.07,58.9 460.38,57.33 464.5,56.5C468.62,55.67 474.7,54.55 478,54" style="fill:none;fill-rule:nonzero;stroke:rgb(32,33,29);stroke-width:1px;"/><path d="M479,69C481.2,68.45 487.95,68 494,68C500.5,68 509.7,68.82 516.5,70C522.83,71.1 530.92,73.12 534.5,74.5C538.08,75.88 543.02,78.12 545.5,79.5C547.98,80.88 551.8,84.03 554,86.5C556.2,88.97 559.12,93.03 560.5,95.5C561.88,97.97 563.45,102.7 564,106C564.67,110 564.67,114.17 564,118.5C563.45,122.08 561.65,127.92 560,131.5C558.35,135.07 555.2,140.25 549,148L540.5,148C535.83,148 530.42,148.22 528.5,148.5C526.58,148.78 522.98,149.22 520.5,149.5C518.02,149.78 512.17,150.68 507.5,151.5C502.82,152.32 496.75,153.45 494,154C491.25,154.55 482.7,156.57 475,158.5C467.3,160.43 456.05,163.57 450,165.5C443.95,167.43 433.38,171.25 426.5,174C419.62,176.75 412.88,179.45 411.5,180C410.12,180.55 402.48,184.15 394.5,188C386.52,191.85 374.15,198.38 367,202.5C359.85,206.62 347.48,214.28 339.5,219.5C331.52,224.72 324.32,229.68 323.5,230.5C322.68,231.32 319.75,233.57 317,235.5C314.25,237.43 308.18,242.15 303.5,246C298.82,249.85 292.75,255.03 290,257.5C287.25,259.98 280.27,266.73 274.5,272.5C268.73,278.27 262.65,285.02 261,287.5C258.61,291.08 257.28,292.1 254.5,292.5C252.57,292.77 247.85,292.77 244,292.5C239.57,292.18 234.98,291.08 231.5,289.5C228.47,288.12 224.43,285.43 222.5,283.5C220.57,281.57 217.88,277.52 216.5,274.5C215.12,271.48 213.78,267.65 213.5,266C213.22,264.35 213.45,260.3 214,257C214.55,253.7 215.9,249.2 217,247C218.1,244.8 221.47,239.4 224.5,235C227.53,230.6 235.85,221.15 243,214C250.15,206.85 261.4,196.5 268,191C274.6,185.5 284.27,177.85 289.5,174C294.73,170.15 301.48,165.2 304.5,163C307.52,160.8 313.82,156.3 318.5,153C323.18,149.7 328.35,146.1 330,145C331.65,143.9 342,136.93 353,129.5C364,122.08 380.2,111.72 389,106.5C397.8,101.28 409.73,94.53 415.5,91.5C421.27,88.47 432.98,83.3 441.5,80C450.02,76.7 461.05,73.1 466,72C470.95,70.9 476.8,69.55 479,69" style="fill:none;fill-rule:nonzero;stroke:rgb(49,55,58);stroke-width:1px;"/><path d="M618.5,152C621.7,150.58 625.17,150 630.5,150C636.5,150 639,150.5 643,152.5C646.27,154.14 648.86,156.38 650.5,159C652.55,162.28 653,164.27 653,170C653,175.67 652.43,178.24 650,183.5C648.35,187.07 646.1,190.9 645,192C643.53,193.47 642.6,193.73 641.5,193C640.67,192.45 634.6,188.4 628,184C621.4,179.6 611.73,173.97 597,167L599,164.5C600.1,163.12 603.92,160.2 607.5,158C611.08,155.8 616.02,153.1 618.5,152" style="fill:none;fill-rule:nonzero;stroke:rgb(141,173,173);stroke-width:1px;"/><path d="M706,439C706,439 706.45,443.73 707,449.5C707.55,455.27 708.67,464.27 709.5,469.5C710.33,474.73 712.58,483.73 714.5,489.5C716.42,495.27 720.25,504.5 723,510C725.75,515.5 731.6,524.95 736,531C740.4,537.05 746.92,546.5 750.5,552C754.08,557.5 757.9,564.02 759,566.5C760.1,568.98 761.9,573.92 763,577.5C764.2,581.41 765.2,588.19 765.5,594.5C765.77,600.27 765.55,608.15 765,612C764.45,615.85 763.1,621.92 762,625.5C760.9,629.08 758.2,634.92 752,645" style="fill:none;fill-rule:nonzero;stroke:rgb(139,171,170);stroke-width:1px;"/><path d="M732,616C732,616 732.23,615.55 732.5,615C732.77,614.45 733,612.42 733,610.5C733,608.58 732.33,605.88 731.5,604.5C730.67,603.12 728.65,601.55 724,600L724,583.5C724,574.42 723.55,564.75 723,562C722.45,559.25 721.1,555.65 720,554C718.67,552 717.17,551 715.5,551C714.12,551 712.33,551.67 711.5,552.5C710.67,553.33 709.77,555.12 709.5,556.5C709.23,557.88 708.77,566.88 708.5,576.5C708.23,586.12 707.77,595.35 707,600L696,600.5C689.95,600.77 681.85,601 671,601" style="fill:none;fill-rule:nonzero;stroke:rgb(139,171,170);stroke-width:1px;"/><path d="M643,561C643,561 643.45,560.77 644,560.5C644.55,560.23 654.9,556.4 667,552C679.1,547.6 695.08,541.75 702.5,539C709.92,536.25 716.9,533.1 718,532C719.33,530.67 720,528.67 720,526C720,523.5 717.75,516.19 714,506.5C710.7,497.98 706.88,487.62 705.5,483.5C703.6,477.79 702.29,475.52 700,474C698.15,472.77 696.04,472.19 694.5,472.5C693.12,472.77 684.12,475.7 674.5,479C664.88,482.3 648.67,487.93 638.5,491.5C628.33,495.07 609.42,501.82 596.5,506.5C583.58,511.18 547.58,524.23 516.5,535.5C485.43,546.77 451.9,558.92 442,562.5C432.1,566.08 421.98,569.9 419.5,571C416.56,572.3 414.3,574.22 413,576.5C411.41,579.29 411,581.83 411,589C411,593.95 410.77,598 410.5,598C410.23,598 407.3,596.65 404,595C400.7,593.35 394.4,589.08 390,585.5C385.6,581.92 380.2,576.52 378,573.5C375.8,570.48 372.88,565.75 371.5,563C370.12,560.25 368.1,557.33 367,556.5C365.9,555.67 363.88,554.77 362.5,554.5C360.9,554.18 359.1,554.72 357.5,556C355.58,557.53 355,558.93 355,562C355,564.57 356.25,568.5 358.5,573C361.17,578.33 364.5,582.5 372.5,590.5C378.27,596.27 385.25,602.58 393,608" style="fill:none;fill-rule:nonzero;stroke:rgb(139,171,170);stroke-width:1px;"/><path d="M372,659C372,659 366.82,656.52 360.5,653.5C354.18,650.48 345.62,645.75 341.5,643C337.38,640.25 330.62,634.62 326.5,630.5C322.38,626.38 317.2,620.3 315,617C312.8,613.7 309.65,608.08 308,604.5C306.35,600.92 304.1,594.4 303,590C301.9,585.6 300.1,580.88 299,579.5C297.83,578.03 295.97,577 294.5,577C293.12,577 291.1,577.9 290,579C288.53,580.47 288,582.33 288,586C288,588.75 288.9,594.38 290,598.5C291.1,602.62 293.8,609.6 296,614C298.2,618.4 302.48,625.38 305.5,629.5C308.52,633.62 313.93,639.92 317.5,643.5C321.07,647.08 328.5,652.92 334,656.5C339.5,660.08 349.85,665.92 357,669.5C364.15,673.08 374.5,677.35 380,679C385.5,680.65 393.15,682.67 404,685" style="fill:none;fill-rule:nonzero;stroke:rgb(139,171,170);stroke-width:1px;"/><path d="M414,800L414,804C414,806.2 414.45,809.8 415,812C415.55,814.2 417.35,818.02 419,820.5C420.65,822.98 423.57,826.12 425.5,827.5C427.43,828.88 430.35,830.45 432,831C433.65,831.55 437.7,832 447,832" style="fill:none;fill-rule:nonzero;stroke:rgb(139,171,170);stroke-width:1px;"/><path d="M477,863L461,863C452.2,863 441.4,862.77 429,862" style="fill:none;fill-rule:nonzero;stroke:rgb(139,171,170);stroke-width:1px;"/><path d="M419,861C419,861 413.82,860.55 407.5,860C401.18,859.45 392.85,858.33 389,857.5C385.15,856.67 378.18,854.88 373.5,853.5C368.82,852.12 361.18,849.65 356.5,848C351.82,846.35 342.82,842.52 336.5,839.5C329.93,836.36 321.36,831.21 316.5,827.5C311.82,823.92 304.62,817.85 300.5,814C296.38,810.15 290.98,804.3 288.5,801C286.02,797.7 281.52,790.95 278.5,786C275.48,781.05 271.2,773.17 269,768.5C266.8,763.83 263.43,755.5 261.5,750C259.57,744.5 256.88,734.83 255.5,728.5C254.12,722.17 252.32,711.83 251.5,705.5C250.68,699.17 249.78,686.35 249.5,677C249.22,667.65 249.45,653.48 250,645.5C250.55,637.52 252.12,620.2 253.5,607C254.88,593.8 257.12,571.75 258.5,558C259.88,544.25 261.23,528.73 262,514" style="fill:none;fill-rule:nonzero;stroke:rgb(139,171,170);stroke-width:1px;"/><path d="M262,500C262,500 261.77,498.88 261.5,497.5C261.23,496.12 260.55,482.4 260,467C259.45,451.6 259.23,429.55 259.5,418C259.78,406.26 260.88,389.94 262,381C263.1,372.2 265.12,359.6 266.5,353C267.88,346.4 270.8,335.38 273,328.5C275.2,321.62 278.57,312.85 280.5,309C282.43,305.15 285.35,299.98 287,297.5C288.65,295.02 295.62,288.05 302.5,282C309.38,275.95 320.85,266.5 328,261C335.15,255.5 345.95,247.62 352,243.5C358.05,239.38 368.85,232.62 376,228.5C383.15,224.38 394.4,218.3 401,215C407.6,211.7 419.3,206.3 427,203C434.7,199.7 447.75,194.75 456,192C464.25,189.25 477.52,185.43 485.5,183.5C493.48,181.57 505.18,179.1 511.5,178C518.72,176.74 529.69,175.81 541,175.5C550.9,175.22 562.15,175.45 566,176C569.85,176.55 577.5,178.57 583,180.5C588.5,182.43 597.5,186.25 603,189C608.5,191.75 616.6,196.7 621,200C625.4,203.3 629.23,206.45 629.5,207C629.8,207.59 628.17,208 625.5,208C623.02,208 618.08,208.68 614.5,209.5C610.92,210.32 603.73,213.03 598.5,215.5C593.27,217.97 586.52,222.03 583.5,224.5C580.48,226.97 575.52,231.93 572.5,235.5C569.48,239.07 565.2,245.6 563,250C560.8,254.4 557.88,261.82 556.5,266.5C554.32,273.9 554,276.93 554,290C554,304 554.2,305.6 557,314C558.65,318.95 561.8,325.93 564,329.5C567.84,335.75 567.92,336.04 566,337C564.9,337.55 562.65,338.23 561,338.5C559.35,338.77 555.3,340.8 552,343C548.7,345.2 545.1,348.57 544,350.5C542.72,352.74 540.2,354.9 537,356.5C534.25,357.88 530.42,360.12 525,364L528.5,356.5C530.42,352.38 532.9,345.4 534,341C535.51,334.98 536,329.67 536,319.5C536,309.5 535.48,303.8 534,297.5C532.9,292.82 530.65,285.85 529,282C527.35,278.15 523.98,271.85 521.5,268C519.02,264.15 514.3,258.3 511,255C507.7,251.7 502.3,247.2 499,245C495.7,242.8 489.4,239.65 485,238C480.6,236.35 473.85,234.32 470,233.5C465.67,232.57 457.67,232 449,232C438.17,232 433.3,232.45 427.5,234C423.38,235.1 415.73,238.03 410.5,240.5C404.84,243.18 397.76,247.63 393,251.5C388.6,255.07 382.52,261.15 379.5,265C376.48,268.85 371.75,276.73 369,282.5C366.25,288.27 363.1,296.38 362,300.5C360.42,306.42 360,311.17 360,323C360,334.83 360.42,339.58 362,345.5C363.1,349.62 366.02,357.05 368.5,362C370.98,366.95 375.25,373.7 378,377C380.75,380.3 385.7,385.25 389,388C392.43,390.86 399.93,395.36 406.5,398.5C412.82,401.52 421.38,404.9 425.5,406C431.36,407.56 436.17,408 447.5,408C458.67,408 463.84,407.54 470,406C474.4,404.9 481.38,402.43 485.5,400.5C489.62,398.57 496.15,394.52 500,391.5C503.85,388.48 507,386.45 507,387C507,387.55 506.55,388.23 506,388.5C505.45,388.77 504.1,391.93 503,395.5C501.9,399.07 500.77,403.8 500.5,406C500.23,408.2 500.45,412.48 501,415.5C501.55,418.52 502.9,422.8 504,425C505.1,427.2 507.57,430.8 509.5,433C511.72,435.54 515.2,437.92 519,439.5C523.65,441.44 527.37,442.11 546,443L548,450C549.1,453.85 550.9,459.02 552,461.5C553.17,464.12 555.67,467.25 558,469C560.55,470.91 563.63,472.18 566.5,472.5C568.98,472.77 573.92,472.55 577.5,472C581.08,471.45 585.8,470.1 588,469C590.2,467.9 594.92,466.77 598.5,466.5C602.08,466.23 606.58,465.32 608.5,464.5C610.42,463.68 612.9,461.88 614,460.5C615.1,459.12 616.67,456.65 617.5,455C618.33,453.35 619.67,449.75 620.5,447C621.33,444.25 622,438.62 622,427L628.5,424C632.41,422.19 636.39,419.41 638.5,417C640.42,414.8 642.9,410.98 644,408.5C645.38,405.39 646,401.83 646,397C646,393.15 645.33,387.98 644.5,385.5C643.67,383.02 642.1,379.43 641,377.5C639.9,375.57 639,373.77 639,373.5C639,373.23 643.05,373 648,373C652.95,373 659.92,372.32 663.5,371.5C667.08,370.68 673.38,368.43 677.5,366.5C681.62,364.57 687.48,360.98 690.5,358.5C693.52,356.02 696.23,354.23 696.5,354.5C696.77,354.77 697.67,357.7 698.5,361C699.33,364.3 700.9,374.43 702,383.5C703.1,392.57 704.45,406.07 706,427" style="fill:none;fill-rule:nonzero;stroke:rgb(139,171,170);stroke-width:1px;"/><path d="M616.5,223C618.48,222.44 625.66,222.22 633,222.5C643.93,222.92 647.43,223.48 655,226C659.95,227.65 666.7,230.57 670,232.5C673.3,234.43 678.48,238.47 681.5,241.5C684.52,244.53 688.35,249.03 690,251.5C691.65,253.97 694.35,258.93 696,262.5C697.65,266.07 699.9,272.38 701,276.5C702.51,282.17 703,287.17 703,297C703,306.83 702.51,311.83 701,317.5C699.9,321.62 697.65,327.7 696,331C694.26,334.49 690.28,339.72 686.5,343.5C682.72,347.28 677.49,351.26 674,353C670.7,354.65 664.62,356.9 660.5,358C656.17,359.16 649.83,360 645.5,360C641.38,360 636.2,359.55 634,359C631.8,358.45 627.52,357.1 624.5,356C620.19,354.43 618.03,352.81 614.5,348.5C611.13,344.38 608.37,342.25 603.5,340C599.92,338.35 594.3,336.55 591,336C587.7,335.45 584.33,334.32 583.5,333.5C582.67,332.68 580.65,329.98 579,327.5C577.35,325.02 574.88,320.75 573.5,318C572.12,315.25 570.1,309.62 569,305.5C567.36,299.33 567.09,295.96 567.5,286.5C567.91,277.12 568.55,273.43 571,266.5C572.65,261.82 575.35,255.53 577,252.5C578.77,249.26 583.29,243.92 588,239.5C593.96,233.91 598.16,230.98 604.5,228C609.17,225.8 614.58,223.55 616.5,223" style="fill:none;fill-rule:nonzero;stroke:rgb(247,241,230);stroke-width:1px;"/><path d="M437,246C439.75,245.45 446.73,245.22 452.5,245.5C458.27,245.78 466.38,246.9 470.5,248C474.62,249.1 480.93,251.35 484.5,253C488.07,254.65 493.48,258.02 496.5,260.5C499.52,262.98 504.02,267.7 506.5,271C508.98,274.3 512.8,280.82 515,285.5C517.2,290.18 519.67,297.15 520.5,301C521.33,304.85 522.23,311.15 522.5,315C522.77,318.85 522.55,325.38 522,329.5C521.45,333.62 520.1,339.7 519,343C517.9,346.3 515.65,351.93 514,355.5C512.35,359.07 509.2,364.25 507,367C504.8,369.75 499.85,374.48 496,377.5C492.15,380.52 485.85,384.57 482,386.5C478.15,388.43 471.62,390.9 467.5,392C463.38,393.1 456.85,394.23 453,394.5C449.15,394.77 442.4,394.55 438,394C433.6,393.45 426.4,391.65 422,390C417.6,388.35 410.85,385.2 407,383C403.15,380.8 396.85,375.85 393,372C389.15,368.15 384.43,362.3 382.5,359C380.57,355.7 377.88,349.4 376.5,345C374.37,338.19 374,335.07 374,324C374,314.33 374.51,308.95 376,303C377.1,298.6 379.57,291.85 381.5,288C383.43,284.15 387.02,278.3 389.5,275C391.98,271.7 396.02,267.2 398.5,265C400.98,262.8 405.02,259.65 407.5,258C409.98,256.35 414.25,253.88 417,252.5C419.75,251.12 424.25,249.32 427,248.5C429.75,247.68 434.25,246.55 437,246" style="fill:none;fill-rule:nonzero;stroke:rgb(247,241,230);stroke-width:1px;"/><path d="M601,277C603.55,275.73 607,275 610.5,275C614,275 617.45,275.73 620,277C622.2,278.1 625.58,280.8 627.5,283C629.42,285.2 631.67,288.35 632.5,290C633.33,291.65 634.23,296.6 634.5,301C634.91,307.58 634.64,309.8 633,313.5C631.9,315.98 629.42,319.8 627.5,322C625.44,324.36 621.95,326.82 619,328C615.3,329.48 612.57,329.87 608.5,329.5C605.31,329.21 601.11,327.95 598.5,326.5C595.91,325.06 592.73,322.09 591,319.5C589.35,317.02 587.55,313.2 587,311C586.45,308.8 586.23,304.07 586.5,300.5C586.77,296.93 587.67,292.43 588.5,290.5C589.33,288.57 591.58,285.2 593.5,283C595.42,280.8 598.8,278.1 601,277" style="fill:none;fill-rule:nonzero;stroke:rgb(32,33,29);stroke-width:1px;"/><path d="M617,292.5C617.55,291.68 618.67,291 619.5,291C620.33,291 621.45,291.9 622,293C622.55,294.1 622.77,296.12 622.5,297.5C622.17,299.17 621.17,300.17 619.5,300.5C617.52,300.9 616.79,300.48 616,298.5C615.45,297.12 615.23,295.55 615.5,295C615.77,294.45 616.45,293.32 617,292.5" style="fill:none;fill-rule:nonzero;stroke:rgb(249,247,238);stroke-width:1px;"/><path d="M465,299C469.19,296.49 471.06,296 476.5,296C481,296 484.23,296.62 487,298C489.2,299.1 492.57,301.8 494.5,304C496.43,306.2 498.9,310.02 500,312.5C501.38,315.61 502,319.17 502,324C502,329 501.43,332.14 500,335C498.9,337.2 496.88,340.35 495.5,342C494.12,343.65 490.98,346.12 488.5,347.5C486.02,348.88 481.98,350.23 479.5,350.5C477.02,350.77 472.98,350.55 470.5,350C467.07,349.24 464.69,347.69 460.5,343.5C456.94,339.94 454.47,336.41 453.5,333.5C452.68,331.02 452,326.75 452,324C452,321.25 452.68,316.98 453.5,314.5C454.32,312.02 456.12,308.2 457.5,306C458.9,303.76 462.2,300.68 465,299" style="fill:none;fill-rule:nonzero;stroke:rgb(32,33,29);stroke-width:1px;"/><path d="M483,314.5C483.6,313 484.8,312 486,312C487.1,312 488.45,312.45 489,313C489.55,313.55 490,315.35 490,317C490,318.65 489.32,320.45 488.5,321C487.5,321.67 486.5,321.67 485.5,321C484.68,320.45 483.55,319.32 483,318.5C482.33,317.5 482.33,316.17 483,314.5" style="fill:none;fill-rule:nonzero;stroke:rgb(249,246,238);stroke-width:1px;"/><path d="M555,371C555,371 554.55,370.1 554,369C553.45,367.9 553.23,365.88 553.5,364.5C553.77,363.12 555.12,360.65 556.5,359C557.88,357.35 561.02,355.1 563.5,354C566.54,352.65 571.07,351.84 577.5,351.5C582.73,351.23 589.25,351.45 592,352C594.75,352.55 598.12,353.9 599.5,355C600.88,356.1 602.45,358.12 603,359.5C603.67,361.17 603.67,363.17 603,365.5C602.29,367.97 600.68,369.88 597.5,372C595.02,373.65 589.85,375.9 586,377C582.15,378.1 576.52,379 573.5,379C570.48,379 566.2,378.55 564,378C561.8,377.45 559.1,376.1 556,373" style="fill:none;fill-rule:nonzero;stroke:rgb(49,55,58);stroke-width:1px;"/><path d="M556,373L556,372.5C556,372.23 555.77,371.77 555,371" style="fill:none;fill-rule:nonzero;stroke:rgb(53,60,64);stroke-width:1px;"/><path d="M555,371C555,371 555.45,371.23 556,371.5C556.55,371.77 556.77,372.23 556,373" style="fill:none;fill-rule:nonzero;stroke:rgb(53,60,64);stroke-width:1px;"/><path d="M618,372L622.5,376C624.98,378.2 628.12,382.25 629.5,385C631.33,388.67 632,391.6 632,396C632,400.33 631.44,402.83 630,405C628.9,406.65 625.98,408.9 623.5,410C619.76,411.66 617.56,411.92 610.5,411.5C605.83,411.23 599.52,410.55 596.5,410C592.83,409.33 589,409.33 585,410C580.86,410.69 574.82,413.17 565.5,418C558.08,421.85 550.2,425.68 548,426.5C545.75,427.34 540.72,428 536.5,428C530.37,428 528.18,427.54 524.5,425.5C521.99,424.1 519.12,421.45 518,419.5C516.49,416.86 516,414.17 516,408.5C516,402.02 516.48,399.98 519.5,393.5C521.93,388.29 524.83,384.17 529,380C532.3,376.7 535.45,374 536,374C536.55,374 537.9,375.8 539,378C540.1,380.2 543.02,383.8 545.5,386C547.98,388.2 552.48,390.9 555.5,392C559.8,393.57 563.5,394 572.5,394C578.94,394 587.08,393.34 591,392.5C594.85,391.68 600.25,389.88 603,388.5C605.75,387.12 609.58,384.65 611.5,383C613.42,381.35 615.67,378.2 618,372" style="fill:none;fill-rule:nonzero;stroke:rgb(224,189,157);stroke-width:1px;"/><path d="M595,424L601,425C604.3,425.55 607.45,426 608,426C608.57,426 609,429 609,433C609,436.85 608.33,442.25 607.5,445C606.67,447.75 605.55,450.68 605,451.5C604.45,452.32 602.2,453.23 600,453.5C597.8,453.77 595.77,453.77 595.5,453.5C595.23,453.23 595,446.48 595,424" style="fill:none;fill-rule:nonzero;stroke:rgb(248,243,233);stroke-width:1px;"/><path d="M575,429C577.75,427.35 580.67,426 581.5,426C582.33,426 583.23,426.9 583.5,428C583.77,429.1 584,436.07 584,443.5C584,451.5 583.59,457.2 583,457.5C582.45,457.77 579.08,458.23 575.5,458.5C570.66,458.87 568.49,458.62 567,457.5C565.9,456.68 564.33,454.65 563.5,453C562.67,451.35 561.77,447.07 561,437L565.5,434.5C567.98,433.12 572.25,430.65 575,429" style="fill:none;fill-rule:nonzero;stroke:rgb(247,242,231);stroke-width:1px;"/><path d="M706,427L706,439" style="fill:none;fill-rule:nonzero;stroke:rgb(151,187,186);stroke-width:1px;"/><path d="M706,439C706,439 705.33,439.23 704.5,439.5C703.27,439.91 703.09,439.19 703.5,435.5C703.77,433.02 704.45,430.1 706,427" style="fill:none;fill-rule:nonzero;stroke:rgb(151,187,186);stroke-width:1px;"/><path d="M665,499C676.55,494.6 686.45,491.23 687,491.5C687.55,491.77 689.35,494.25 691,497C692.65,499.75 695.8,506.05 698,511C700.2,515.95 702,520.45 702,521C702,521.55 701.1,522.23 700,522.5C698.9,522.77 691.7,525.25 670,533L664,527.5C660.7,524.48 654.4,519.08 650,515.5C645.6,511.93 642,508.55 642,508C642,507.45 642.45,507 643,507C643.55,507 653.45,503.4 665,499" style="fill:none;fill-rule:nonzero;stroke:rgb(247,241,231);stroke-width:1px;"/><path d="M262,514L262,500" style="fill:none;fill-rule:nonzero;stroke:rgb(155,191,192);stroke-width:1px;"/><path d="M262,500L262,499C262,498.33 262.33,498.33 263,499C263.55,499.55 264,502.93 264,506.5C264,510.07 263.55,513.23 262,514" style="fill:none;fill-rule:nonzero;stroke:rgb(155,191,192);stroke-width:1px;"/><path d="M265,510C265,509.33 265.83,509.33 267.5,510C269.81,510.92 269.85,511.04 268,511.5C266.9,511.77 265.77,511.77 265.5,511.5C265.23,511.23 265,510.55 265,510" style="fill:none;fill-rule:nonzero;stroke:rgb(133,164,164);stroke-width:1px;"/><path d="M264.5,519.5C264.77,519.23 265.45,519.23 266,519.5C266.55,519.77 266.77,520.45 266.5,521C266.17,521.67 265.67,521.67 265,521C264.45,520.45 264.23,519.77 264.5,519.5" style="fill:none;fill-rule:nonzero;stroke:rgb(129,162,160);stroke-width:1px;"/><path d="M580.5,529.5C594.86,523.84 597.39,523.13 600,524C601.65,524.55 608.17,529.73 614.5,535.5C620.83,541.27 626,546.45 626,547C626,547.55 618.8,550.92 610,554.5C601.2,558.08 593.33,561 592.5,561C591.67,561 586.5,557.17 581,552.5C575.5,547.83 568.98,542.65 566.5,541C564.02,539.35 562,537.55 562,537C562,536.45 562.45,536 563,536C563.55,536 571.42,533.08 580.5,529.5" style="fill:none;fill-rule:nonzero;stroke:rgb(247,241,231);stroke-width:1px;"/><path d="M515,553.5C515,553.23 515.9,553 517,553C518.1,553 520.58,554.12 522.5,555.5C524.42,556.88 531.17,561.83 537.5,566.5C543.83,571.17 548.77,575.45 548.5,576C548.23,576.55 540.58,579.92 531.5,583.5C519.35,588.29 514.6,589.74 513.5,589C512.67,588.45 505.7,583.27 498,577.5C490.3,571.73 484,566.55 484,566C484,565.45 490.98,562.52 499.5,559.5C508.02,556.48 515,553.77 515,553.5" style="fill:none;fill-rule:nonzero;stroke:rgb(247,241,231);stroke-width:1px;"/><path d="M729,560C729.55,559.45 730.45,559.23 731,559.5C731.59,559.8 731.39,560.61 730.5,561.5C729.61,562.39 728.8,562.59 728.5,562C728.23,561.45 728.45,560.55 729,560" style="fill:none;fill-rule:nonzero;stroke:rgb(144,177,176);stroke-width:1px;"/><path d="M643,561C643,561 645.48,563.7 648.5,567C651.52,570.3 656.02,575.48 658.5,578.5C660.98,581.52 664.8,587.83 671,601" style="fill:none;fill-rule:nonzero;stroke:rgb(224,189,157);stroke-width:1px;"/><path d="M671,601C671,601 668.52,601.23 665.5,601.5C662.48,601.77 644.7,602.45 626,603C607.3,603.55 589.75,604.23 587,604.5C584.25,604.77 568.27,605.23 551.5,605.5C530.82,605.84 521.64,605.68 523,605C524.1,604.45 543.67,597.02 566.5,588.5C589.33,579.98 615.88,570.3 643,561" style="fill:none;fill-rule:nonzero;stroke:rgb(224,189,157);stroke-width:1px;"/><path d="M726,565C726,564.33 726.5,564.33 727.5,565C728.83,565.89 728.83,566 727.5,566C726.67,566 726,565.55 726,565" style="fill:none;fill-rule:nonzero;stroke:rgb(135,167,169);stroke-width:1px;"/><path d="M432.5,583C435.38,581.72 439.17,581 443,581C446.67,581 450.94,581.78 454,583C456.75,584.1 461.02,586.35 463.5,588C465.98,589.65 471.6,594.83 476,599.5C480.4,604.17 487.15,611.15 491,615C495.89,619.89 498.45,623.36 499.5,626.5C500.42,629.27 500.81,632.92 500.5,636C500.23,638.75 499.1,642.58 498,644.5C496.9,646.42 493.98,649.35 491.5,651C487.11,653.92 486.62,654.01 472,654.5C462.65,654.81 456.62,654.62 456,654C455.45,653.45 455,648.95 455,644C455,637.17 454.52,633.92 453,630.5C451.9,628.02 449.65,624.2 448,622C446.06,619.41 442.36,616.59 437.5,614C433.38,611.8 429.32,609.33 428.5,608.5C427.45,607.45 426.85,604.02 426.5,597C426.2,590.97 426.4,586.6 427,586C427.55,585.45 430.02,584.1 432.5,583" style="fill:none;fill-rule:nonzero;stroke:rgb(49,55,58);stroke-width:1px;"/><path d="M439.5,596.5C441.33,594.67 443.07,594 446,594C448.93,594 450.67,594.67 452.5,596.5C454.06,598.06 455,600.13 455,602C455,604 454,606 452,608C449.67,610.33 448.11,611 445,611C442.33,611 440.33,610.33 439,609C437.67,607.67 437,605.67 437,603C437,600.07 437.67,598.33 439.5,596.5" style="fill:none;fill-rule:nonzero;stroke:rgb(34,35,30);stroke-width:1px;"/><path d="M393,608C393,608 395.25,609.12 398,610.5C400.75,611.88 406.6,614.58 411,616.5C415.4,618.42 422.15,621.8 426,624C429.85,626.2 434.12,629.35 435.5,631C436.88,632.65 438.45,635.8 439,638C439.55,640.2 439.77,643.58 439.5,645.5C439.18,647.72 438.45,649 437.5,649C436.68,649 433.3,647.65 430,646C426.7,644.35 422.88,643 421.5,643C419.77,643 418.69,643.77 418,645.5C417.25,647.37 417.38,648.63 418.5,650.5C419.32,651.88 422.7,654.35 426,656C429.3,657.65 432,659.45 432,660C432,660.55 430.2,662.12 428,663.5C425.8,664.88 422.2,666.67 420,667.5C417.8,668.33 413.98,669 411.5,669C409.02,669 402.95,668.1 398,667C393.05,665.9 385.18,663.65 372,659" style="fill:none;fill-rule:nonzero;stroke:rgb(223,189,157);stroke-width:1px;"/><path d="M372,659L372,651.5C372,647.38 372.68,641.75 373.5,639C374.32,636.25 376.35,631.52 378,628.5C379.65,625.48 383.7,619.62 393,608" style="fill:none;fill-rule:nonzero;stroke:rgb(223,189,157);stroke-width:1px;"/><path d="M732,616C732,616 734.02,617.58 736.5,619.5C738.98,621.42 742.8,625.7 745,629C747.2,632.3 749.67,637.25 752,645" style="fill:none;fill-rule:nonzero;stroke:rgb(224,189,157);stroke-width:1px;"/><path d="M752,645C752,645 750.2,647.48 748,650.5C745.7,653.66 741.66,657.49 738.5,659.5C735.48,661.42 730.98,663.45 728.5,664C726.02,664.55 722.88,664.77 721.5,664.5C720.12,664.23 718.1,663.1 717,662C715.53,660.53 715,658.67 715,655C715,651.25 716,647.88 719,641.5C721.2,636.83 725.02,629.17 732,616" style="fill:none;fill-rule:nonzero;stroke:rgb(224,189,157);stroke-width:1px;"/><path d="M700,617.5C702.75,617.23 705.45,617 706,617C706.55,617 707,617.67 707,618.5C707,619.33 705.65,623.38 704,627.5C702.35,631.62 700.1,638.6 697,651L684,651.5C676.85,651.77 671,651.77 671,651.5C671,651.23 675.05,645.38 680,638.5C684.95,631.62 690.35,624.2 692,622C694.65,618.47 695.59,617.94 700,617.5" style="fill:none;fill-rule:nonzero;stroke:rgb(247,242,232);stroke-width:1px;"/><path d="M626.5,618.5C633.92,618.23 642.25,618 645,618C647.75,618 650,618.23 650,618.5C650,618.77 649.1,620.35 648,622C646.9,623.65 642.4,630.17 638,636.5C633.6,642.83 628.88,649.12 627.5,650.5C625.08,652.92 624.48,653.02 608,653.5C596.84,653.83 591.17,653.66 591.5,653C591.77,652.45 596.73,644.58 613,619L626.5,618.5" style="fill:none;fill-rule:nonzero;stroke:rgb(247,241,230);stroke-width:1px;"/><path d="M542.5,620.5C548.27,620.23 556.83,620.23 570,621L546,655L529.5,655.5C520.42,655.77 512.1,655.77 511,655.5C509.24,655.06 510.37,652.97 532,621L542.5,620.5" style="fill:none;fill-rule:nonzero;stroke:rgb(247,241,230);stroke-width:1px;"/><path d="M481,628.5C481.55,628.23 483.12,628.45 484.5,629C485.88,629.55 487.68,630.67 488.5,631.5C489.32,632.33 490,634.12 490,635.5C490,636.88 489.32,639.35 488.5,641C487.5,643 485.83,644.33 483.5,645C480.83,645.76 479.17,645.64 476.5,644.5C474.17,643.5 472.67,642 472,640C471.24,637.73 471.37,636.27 472.5,634C473.37,632.27 475.27,630.58 477,630C478.65,629.45 480.45,628.77 481,628.5" style="fill:none;fill-rule:nonzero;stroke:rgb(34,35,30);stroke-width:1px;"/><path d="M674.5,665.5C674.77,665.23 680.62,665 700,665L702,669C703.18,671.36 706.05,674.44 709,676.5C711.75,678.42 714.67,680 715.5,680C716.75,680 717,682.06 717,692.5C717,699.38 717.23,726.83 718,802L711,809L698.5,809.5C691.62,809.77 677,810.23 666,810.5C655,810.77 631.38,811.23 613.5,811.5C595.62,811.77 576.05,812.23 570,812.5C563.95,812.77 542.8,813.23 523,813.5C503.2,813.77 475.98,814.23 462.5,814.5C447.13,814.81 437.25,814.63 436,814C434.9,813.45 433.32,811.42 432.5,809.5C431.58,807.35 430.81,801.38 430.5,794C430.23,787.4 430,760.85 430,735L430,685C430,682.53 430.89,681.38 435,678.5C437.75,676.58 441.12,673.88 442.5,672.5C444.9,670.1 445.5,670 457.5,670C464.38,670 473.82,669.77 478.5,669.5C483.18,669.23 507.93,668.77 533.5,668.5C559.08,668.23 582.48,667.77 585.5,667.5C588.52,667.23 609.67,666.77 632.5,666.5C655.33,666.23 674.23,665.77 674.5,665.5" style="fill:none;fill-rule:nonzero;stroke:rgb(48,54,56);stroke-width:1px;"/><path d="M404,685L407.5,685C409.72,685 411.18,685.55 411.5,686.5C411.77,687.33 412.23,699.92 412.5,714.5C412.77,729.08 413.23,754.27 414,800" style="fill:none;fill-rule:nonzero;stroke:rgb(224,189,157);stroke-width:1px;"/><path d="M414,800C414,800 413.55,800.23 413,800.5C412.45,800.77 412,800.55 412,800C412,799.45 410.65,796.98 409,794.5C407.35,792.02 404.65,787.08 403,783.5C401.35,779.92 398.88,772.73 397.5,767.5C395.45,759.71 394.91,754.86 394.5,740.5C394.15,728.1 394.44,719.65 395.5,711.5C396.32,705.17 398.12,696.85 399.5,693C400.88,689.15 402.45,685.77 404,685" style="fill:none;fill-rule:nonzero;stroke:rgb(224,189,157);stroke-width:1px;"/><path d="M668,702.5C672.95,702.23 682.17,702 700,702L700,712L686.5,712.5C679.08,712.77 652.08,713.45 626.5,714C600.92,714.55 572.12,715.23 562.5,715.5C552.88,715.77 544.55,716.45 544,717C543.36,717.64 543.18,726.82 544,767L565,766.5C576.55,766.23 603.33,765.55 624.5,765C645.67,764.45 671.55,763.77 701,763L701,773L694.5,773.5C690.92,773.77 665.73,774.45 638.5,775C611.27,775.55 583.6,776.23 577,776.5C570.4,776.77 556.9,777.23 547,777.5C537.1,777.77 513.92,778.23 495.5,778.5C477.07,778.77 458.85,779 448,779L448,770L478.5,769C495.27,768.45 514.62,767.77 534,767L533.5,742.5C533.21,728.21 532.58,717.58 532,717C531.33,716.33 522.33,716.33 505,717C490.7,717.55 471.8,718 447,718L447,708L474,707.5C488.85,707.23 508.2,706.77 517,706.5C525.8,706.23 561.35,705.33 596,704.5C630.65,703.67 663.05,702.77 668,702.5" style="fill:none;fill-rule:nonzero;stroke:rgb(246,241,232);stroke-width:1px;"/><path d="M258,724.5C258,724.23 258.23,724.23 258.5,724.5C258.77,724.77 258.77,725 258.5,725C258.23,725 258,724.77 258,724.5" style="fill:none;fill-rule:nonzero;stroke:rgb(122,155,153);stroke-width:1px;"/><path d="M276,812L280,816C282.2,818.2 283.77,820.45 283.5,821C283.23,821.55 280.07,822.23 276.5,822.5C272.65,822.8 266.94,822.39 262.5,821.5C258.38,820.67 253.65,819.33 252,818.5C249.05,817.03 249.15,816.99 257.5,816.5C262.58,816.2 268.01,815.2 276,812" style="fill:none;fill-rule:nonzero;stroke:rgb(230,198,165);stroke-width:1px;"/><path d="M488,855C488,855 485.07,853.88 481.5,852.5C477.93,851.12 471.62,848.42 467.5,846.5C463.38,844.58 456.85,840.98 453,838.5C449.15,836.02 446.23,833.55 447,832" style="fill:none;fill-rule:nonzero;stroke:rgb(224,190,158);stroke-width:1px;"/><path d="M447,832C447,832 480.3,831.33 521,830.5C561.7,829.67 598.6,829 603,829C610.11,829 610.83,829.17 609.5,830.5C608.67,831.33 601.02,834.92 592.5,838.5C583.98,842.08 572.73,846.35 567.5,848C562.27,849.65 550.12,852.58 540.5,854.5C530.88,856.42 520.52,858.23 512,859" style="fill:none;fill-rule:nonzero;stroke:rgb(224,190,158);stroke-width:1px;"/><path d="M616.5,846C619.77,844.13 620.8,844.06 632.5,845C642.21,845.78 646.23,846.56 650.5,848.5C653.52,849.88 657.35,852.35 659,854C660.65,855.65 662.67,858.35 663.5,860C664.33,861.65 665,865.02 665,867.5C665,869.98 664.77,872.45 664.5,873C664.23,873.55 663.1,874.45 662,875C660.24,875.88 659.76,875.45 658,871.5C656.9,869.02 654.42,865.42 652.5,863.5C650.58,861.58 646.98,859.33 644.5,858.5C642.02,857.67 639.33,857.23 638.5,857.5C637.67,857.77 637,859.12 637,860.5C637,862.17 638.33,864.17 641,866.5C643.2,868.42 645.67,871.35 646.5,873C647.33,874.65 647.77,876.45 647.5,877C647.23,877.55 644.75,878 642,878C639.25,878 631.15,876.88 624,875.5C616.85,874.12 604.7,870.98 597,868.5C589.3,866.02 582.55,863.55 582,863C581.33,862.33 586.33,859.67 597,855C605.8,851.15 614.58,847.1 616.5,846" style="fill:none;fill-rule:nonzero;stroke:rgb(225,191,159);stroke-width:1px;"/><path d="M488,855L489.5,855C490.32,855 495.73,855.9 512,859" style="fill:none;fill-rule:nonzero;stroke:rgb(142,179,181);stroke-width:1px;"/><path d="M512,859C512,859 511.55,859.23 511,859.5C510.45,859.77 503.02,860.67 479,863" style="fill:none;fill-rule:nonzero;stroke:rgb(142,179,181);stroke-width:1px;"/><path d="M478,863L477,863" style="fill:none;fill-rule:nonzero;stroke:rgb(142,179,181);stroke-width:1px;"/><path d="M477,863C477,863 477.45,862.55 478,862C478.55,861.45 481.48,860.55 484.5,860C489.54,859.08 489.92,858.83 488,855" style="fill:none;fill-rule:nonzero;stroke:rgb(142,179,181);stroke-width:1px;"/><path d="M429,862C429,862 428.32,861.77 427.5,861.5C426.68,861.23 424.43,861 419,861" style="fill:none;fill-rule:nonzero;stroke:rgb(155,191,191);stroke-width:1px;"/><path d="M419,861C419,861 419.23,860.55 419.5,860C419.77,859.45 421.8,859 424,859C426.2,859 428.45,859.45 429,860C429.55,860.55 429.77,861.23 429,862" style="fill:none;fill-rule:nonzero;stroke:rgb(155,191,191);stroke-width:1px;"/><path d="M479,863L478,863" style="fill:none;fill-rule:nonzero;stroke:rgb(139,171,170);stroke-width:1px;"/><path d="M478,863L478,862.5C478,862.23 478.23,862.23 479,863" style="fill:none;fill-rule:nonzero;stroke:rgb(139,171,170);stroke-width:1px;"/><path d="M347,863L357.5,866C363.27,867.65 372.5,870.12 378,871.5C383.5,872.88 392.27,874.67 397.5,875.5C402.73,876.33 408.12,877.67 409.5,878.5C410.88,879.33 413.35,882.25 415,885C417.15,888.58 418,891.28 418,894.5C418,896.98 417.32,899.9 416.5,901C415.68,902.1 414.1,903.9 413,905C411.9,906.1 408.98,907.67 406.5,908.5C404.02,909.33 399.98,910 397.5,910C395.02,910 393,909.55 393,909C393,908.45 392.1,905.52 391,902.5C389.9,899.48 387.2,894.75 385,892C382.6,889 379,886 376,884.5C373.25,883.12 370.1,882.23 369,882.5C367.9,882.77 366.77,883.67 366.5,884.5C366.2,885.39 367.83,887.83 370.5,890.5C372.98,892.98 375.9,897.02 377,899.5C378.1,901.98 379,905.12 379,906.5C379,908.06 378.43,909 377.5,909C376.68,909 372.18,907.65 367.5,906C362.82,904.35 356.98,901.88 354.5,900.5C352.02,899.12 347.98,896.2 345.5,894C343.02,891.8 340.1,887.98 339,885.5C337.9,883.02 337,879.42 337,877.5C337,875.58 337.9,872.65 339,871C340.1,869.35 342.35,866.88 347,863" style="fill:none;fill-rule:nonzero;stroke:rgb(224,190,159);stroke-width:1px;"/><path d="M478,54C481.3,53.45 489.4,53 496,53C502.6,53 511.38,53.45 515.5,54C519.62,54.55 525.7,55.67 529,56.5C532.3,57.33 538.15,59.12 542,60.5C545.85,61.88 552.38,65.25 556.5,68C560.62,70.75 566.02,75.25 568.5,78C570.98,80.75 574.35,85.92 576,89.5C577.65,93.08 579.67,98.7 580.5,102C581.33,105.3 582,110.47 582,113.5C582,116.53 581.55,121.47 581,124.5C580.45,127.53 577.98,134.28 575.5,139.5C573.02,144.72 569.2,151.03 567,153.5C563.95,156.93 563.36,158.12 564.5,158.5C565.33,158.78 568.92,159.45 579,161L586,154.5C589.85,150.93 595.7,146.2 599,144C602.3,141.8 608.6,138.88 613,137.5C617.4,136.12 623.7,134.78 627,134.5C630.52,134.21 635.89,134.62 640,135.5C643.85,136.32 649.02,138.12 651.5,139.5C653.98,140.88 657.8,143.57 660,145.5C662.21,147.44 665.12,151.46 666.5,154.5C668.08,157.98 669.18,162.57 669.5,167C669.77,170.85 669.55,176.25 669,179C668.45,181.75 666.65,186.93 665,190.5C663.35,194.07 660.42,199.03 655,206L659,209.5C661.2,211.43 665.7,214.35 669,216C672.3,217.65 677.02,220.35 679.5,222C681.98,223.65 686.92,227.7 690.5,231C694.08,234.3 698.8,239.7 701,243C703.2,246.3 706.8,252.82 709,257.5C711.2,262.18 713.9,269.82 715,274.5C716.5,280.88 717,286.5 717,297C717,305.67 716.43,313.67 715.5,318C714.67,321.85 712.88,327.7 709,337L711.5,346.5C712.88,351.73 715.35,365.45 717,377C718.65,388.55 720.45,404.75 721,413C721.55,421.25 722.45,435.65 723,445C723.55,454.35 724.9,466.27 726,471.5C727.1,476.73 729.12,484.38 730.5,488.5C731.88,492.62 734.58,499.15 736.5,503C738.42,506.85 745.85,518.55 753,529C760.15,539.45 768.02,551.83 770.5,556.5C772.98,561.17 776.12,568.6 777.5,573C779.54,579.53 780.09,583.76 780.5,596C780.91,608.43 780.66,612.71 779,621C777.9,626.5 775.88,633.7 774.5,637C773.12,640.3 770.2,646.15 768,650C765.59,654.21 760.61,660.39 755.5,665.5C749.21,671.79 745.31,674.78 734,680L734.5,740.5C734.93,792.4 734.79,801.71 733.5,806C732.57,809.11 730.3,812.89 727.5,816C725.02,818.75 721.2,821.9 719,823C716.8,824.1 713.2,825.23 711,825.5C708.8,825.77 693.05,826.45 676,827C651.58,827.79 644.47,828.32 642.5,829.5C640.6,830.64 640.36,831.12 641.5,831.5C642.33,831.77 645.02,832.45 647.5,833C649.98,833.55 654.48,835.12 657.5,836.5C660.76,837.98 665.44,841.44 669,845C672.3,848.3 675.9,853.02 677,855.5C678.42,858.7 679,862.17 679,867.5C679,873 678.47,876.07 677,879C675.9,881.2 673.65,884.12 672,885.5C670.35,886.88 666.98,888.9 664.5,890C662.02,891.1 656.62,892.45 652.5,893C647.5,893.67 641.33,893.67 634,893C627.95,892.45 617.6,890.65 611,889C604.4,887.35 594.5,884.42 589,882.5C583.5,880.58 575.62,877.42 571.5,875.5C567.38,873.58 562.65,871.1 558,868L540.5,871.5C530.88,873.42 516.02,875.9 507.5,877C494.92,878.62 486.17,879 430,879L432,884.5C433.52,888.69 433.88,891.55 433.5,896.5C433.23,900.08 432.32,904.58 431.5,906.5C430.68,908.42 428.2,911.8 426,914C423.8,916.2 419.75,919.12 417,920.5C414.25,921.88 409.3,923.67 406,924.5C401.65,925.59 396.83,925.86 388.5,925.5C381.42,925.19 374.31,924.23 370,923C366.15,921.9 360.3,919.88 357,918.5C353.7,917.12 348.07,914.2 344.5,912C340.93,909.8 335.75,905.52 333,902.5C330.25,899.48 326.88,894.52 325.5,891.5C324.12,888.48 322.77,883.52 322.5,880.5C322.23,877.48 322.45,872.98 323,870.5C323.55,868.02 325.57,863.98 327.5,861.5C329.43,859.02 331,856.55 331,856C331,855.45 326.95,852.98 322,850.5C317.05,848.02 309.62,843.3 298,834L293.5,835C291.02,835.55 283.38,836 276.5,836C269.39,836 260.77,835.35 256.5,834.5C252.38,833.67 246.07,831.65 242.5,830C238.92,828.35 233.98,824.98 231.5,822.5C229.03,820.02 225.88,815.75 224.5,813C223.08,810.17 222,806.27 222,804C222,800.8 222.5,799.7 224.5,798.5C226.72,797.17 227.44,797.17 231,798.5C233.2,799.33 237.03,800.67 239.5,801.5C241.97,802.33 246.93,803 250.5,803C254.07,803 259.25,802.55 262,802C264.75,801.45 267,800.55 267,800C267,799.45 263.18,791.58 258.5,782.5C253.82,773.42 248.43,761.5 246.5,756C244.57,750.5 241.88,741.05 240.5,735C239.12,728.95 237.32,719.5 236.5,714C235.68,708.5 234.55,696.12 234,686.5C233.33,674.83 233.33,662.83 234,650.5C234.55,640.33 236.12,621.2 237.5,608C238.88,594.8 241.12,573.2 242.5,560C243.88,546.8 245.22,529.02 245.5,520.5C245.78,511.98 245.32,491.95 244.5,476C243.56,457.89 243.19,437.8 243.5,422.5C243.78,409.02 244.68,392.15 245.5,385C246.32,377.85 247.9,366.6 249,360C250.1,353.4 252.12,343.5 253.5,338C254.88,332.5 257.57,323.73 259.5,318.5C261.43,313.27 262.77,308.77 262.5,308.5C262.23,308.23 260.43,308.45 258.5,309C256.57,309.55 251.62,310 247.5,310C243.38,310 237.53,309.32 234.5,308.5C231.47,307.68 225.62,305.43 221.5,303.5C216.03,300.95 212.65,298.51 209,294.5C206.25,291.48 202.88,286.52 201.5,283.5C200.12,280.48 198.55,275.75 198,273C197.45,270.25 197.22,264.18 197.5,259.5C197.78,254.73 198.88,248.59 200,245.5C201.1,242.47 204.25,236.62 207,232.5C209.75,228.38 215.15,221.18 219,216.5C222.85,211.82 231.4,202.82 238,196.5C244.6,190.18 256.75,179.6 265,173C273.25,166.4 286.98,156.05 295.5,150C304.02,143.95 320.68,132.25 332.5,124C344.32,115.75 354.9,108.1 356,107C357.88,105.12 357.91,104.76 356.5,101C355.68,98.8 355,95.2 355,93C355,90.8 355.45,87.88 356,86.5C356.55,85.12 358.35,82.42 360,80.5C361.65,78.58 364.35,76.33 366,75.5C367.65,74.67 370.8,74 373,74C375.5,74 377.94,74.75 379.5,76C381.17,77.33 382,79 382,81C382,82.65 380.88,86.03 379.5,88.5C378.12,90.97 377.23,93.22 377.5,93.5C377.77,93.78 382.73,91.3 388.5,88C394.27,84.7 404.85,79.08 412,75.5C419.15,71.92 429.27,67.42 434.5,65.5C439.73,63.58 446.93,61.1 450.5,60C454.07,58.9 460.38,57.33 464.5,56.5C468.62,55.67 474.7,54.55 478,54ZM479,69C476.8,69.55 470.95,70.9 466,72C461.05,73.1 450.02,76.7 441.5,80C432.98,83.3 421.27,88.47 415.5,91.5C409.73,94.53 397.8,101.28 389,106.5C380.2,111.72 364,122.08 353,129.5C342,136.93 331.65,143.9 330,145C328.35,146.1 323.18,149.7 318.5,153C313.82,156.3 307.52,160.8 304.5,163C301.48,165.2 294.73,170.15 289.5,174C284.27,177.85 274.6,185.5 268,191C261.4,196.5 250.15,206.85 243,214C235.85,221.15 227.53,230.6 224.5,235C221.47,239.4 218.1,244.8 217,247C215.9,249.2 214.55,253.7 214,257C213.45,260.3 213.22,264.35 213.5,266C213.78,267.65 215.12,271.48 216.5,274.5C217.88,277.52 220.57,281.57 222.5,283.5C224.43,285.43 228.47,288.12 231.5,289.5C234.98,291.08 239.57,292.18 244,292.5C247.85,292.77 252.57,292.77 254.5,292.5C257.28,292.1 258.61,291.08 261,287.5C262.65,285.02 268.73,278.27 274.5,272.5C280.27,266.73 287.25,259.98 290,257.5C292.75,255.03 298.82,249.85 303.5,246C308.18,242.15 314.25,237.43 317,235.5C319.75,233.57 322.68,231.32 323.5,230.5C324.32,229.68 331.52,224.72 339.5,219.5C347.48,214.28 359.85,206.62 367,202.5C374.15,198.38 386.52,191.85 394.5,188C402.48,184.15 410.12,180.55 411.5,180C412.88,179.45 419.62,176.75 426.5,174C433.38,171.25 443.95,167.43 450,165.5C456.05,163.57 467.3,160.43 475,158.5C482.7,156.57 491.25,154.55 494,154C496.75,153.45 502.82,152.32 507.5,151.5C512.17,150.68 518.02,149.78 520.5,149.5C522.98,149.22 526.58,148.78 528.5,148.5C530.42,148.22 535.83,148 540.5,148L549,148C555.2,140.25 558.35,135.07 560,131.5C561.65,127.92 563.45,122.08 564,118.5C564.67,114.17 564.67,110 564,106C563.45,102.7 561.88,97.97 560.5,95.5C559.12,93.03 556.2,88.97 554,86.5C551.8,84.03 547.98,80.88 545.5,79.5C543.02,78.12 538.08,75.88 534.5,74.5C530.92,73.12 522.83,71.1 516.5,70C509.7,68.82 500.5,68 494,68C487.95,68 481.2,68.45 479,69ZM618.5,152C616.02,153.1 611.08,155.8 607.5,158C603.92,160.2 600.1,163.12 599,164.5L597,167C611.73,173.97 621.4,179.6 628,184C634.6,188.4 640.67,192.45 641.5,193C642.6,193.73 643.53,193.47 645,192C646.1,190.9 648.35,187.07 650,183.5C652.43,178.24 653,175.67 653,170C653,164.27 652.55,162.28 650.5,159C648.86,156.38 646.27,154.14 643,152.5C639,150.5 636.5,150 630.5,150C625.17,150 621.7,150.58 618.5,152ZM262,500L262,514C261.23,528.73 259.88,544.25 258.5,558C257.12,571.75 254.88,593.8 253.5,607C252.12,620.2 250.55,637.52 250,645.5C249.45,653.48 249.22,667.65 249.5,677C249.78,686.35 250.68,699.17 251.5,705.5C252.32,711.83 254.12,722.17 255.5,728.5C256.88,734.83 259.57,744.5 261.5,750C263.43,755.5 266.8,763.83 269,768.5C271.2,773.17 275.48,781.05 278.5,786C281.52,790.95 286.02,797.7 288.5,801C290.98,804.3 296.38,810.15 300.5,814C304.62,817.85 311.82,823.92 316.5,827.5C321.36,831.21 329.93,836.36 336.5,839.5C342.82,842.52 351.82,846.35 356.5,848C361.18,849.65 368.82,852.12 373.5,853.5C378.18,854.88 385.15,856.67 389,857.5C392.85,858.33 401.18,859.45 407.5,860C413.82,860.55 419,861 419,861C424.43,861 426.68,861.23 427.5,861.5C428.32,861.77 429,862 429,862C441.4,862.77 452.2,863 461,863L479,863C503.02,860.67 510.45,859.77 511,859.5C511.55,859.23 512,859 512,859C520.52,858.23 530.88,856.42 540.5,854.5C550.12,852.58 562.27,849.65 567.5,848C572.73,846.35 583.98,842.08 592.5,838.5C601.02,834.92 608.67,831.33 609.5,830.5C610.83,829.17 610.11,829 603,829C598.6,829 561.7,829.67 521,830.5C480.3,831.33 447,832 447,832C437.7,832 433.65,831.55 432,831C430.35,830.45 427.43,828.88 425.5,827.5C423.57,826.12 420.65,822.98 419,820.5C417.35,818.02 415.55,814.2 415,812C414.45,809.8 414,806.2 414,804L414,800C413.23,754.27 412.77,729.08 412.5,714.5C412.23,699.92 411.77,687.33 411.5,686.5C411.18,685.55 409.72,685 407.5,685L404,685C393.15,682.67 385.5,680.65 380,679C374.5,677.35 364.15,673.08 357,669.5C349.85,665.92 339.5,660.08 334,656.5C328.5,652.92 321.07,647.08 317.5,643.5C313.93,639.92 308.52,633.62 305.5,629.5C302.48,625.38 298.2,618.4 296,614C293.8,609.6 291.1,602.62 290,598.5C288.9,594.38 288,588.75 288,586C288,582.33 288.53,580.47 290,579C291.1,577.9 293.12,577 294.5,577C295.97,577 297.83,578.03 299,579.5C300.1,580.88 301.9,585.6 303,590C304.1,594.4 306.35,600.92 308,604.5C309.65,608.08 312.8,613.7 315,617C317.2,620.3 322.38,626.38 326.5,630.5C330.62,634.62 337.38,640.25 341.5,643C345.62,645.75 354.18,650.48 360.5,653.5C366.82,656.52 372,659 372,659C385.18,663.65 393.05,665.9 398,667C402.95,668.1 409.02,669 411.5,669C413.98,669 417.8,668.33 420,667.5C422.2,666.67 425.8,664.88 428,663.5C430.2,662.12 432,660.55 432,660C432,659.45 429.3,657.65 426,656C422.7,654.35 419.32,651.88 418.5,650.5C417.38,648.63 417.25,647.37 418,645.5C418.69,643.77 419.77,643 421.5,643C422.88,643 426.7,644.35 430,646C433.3,647.65 436.68,649 437.5,649C438.45,649 439.18,647.72 439.5,645.5C439.77,643.58 439.55,640.2 439,638C438.45,635.8 436.88,632.65 435.5,631C434.12,629.35 429.85,626.2 426,624C422.15,621.8 415.4,618.42 411,616.5C406.6,614.58 400.75,611.88 398,610.5C395.25,609.12 393,608 393,608C385.25,602.58 378.27,596.27 372.5,590.5C364.5,582.5 361.17,578.33 358.5,573C356.25,568.5 355,564.57 355,562C355,558.93 355.58,557.53 357.5,556C359.1,554.72 360.9,554.18 362.5,554.5C363.88,554.77 365.9,555.67 367,556.5C368.1,557.33 370.12,560.25 371.5,563C372.88,565.75 375.8,570.48 378,573.5C380.2,576.52 385.6,581.92 390,585.5C394.4,589.08 400.7,593.35 404,595C407.3,596.65 410.23,598 410.5,598C410.77,598 411,593.95 411,589C411,581.83 411.41,579.29 413,576.5C414.3,574.22 416.56,572.3 419.5,571C421.98,569.9 432.1,566.08 442,562.5C451.9,558.92 485.43,546.77 516.5,535.5C547.58,524.23 583.58,511.18 596.5,506.5C609.42,501.82 628.33,495.07 638.5,491.5C648.67,487.93 664.88,482.3 674.5,479C684.12,475.7 693.12,472.77 694.5,472.5C696.04,472.19 698.15,472.77 700,474C702.29,475.52 703.6,477.79 705.5,483.5C706.88,487.62 710.7,497.98 714,506.5C717.75,516.19 720,523.5 720,526C720,528.67 719.33,530.67 718,532C716.9,533.1 709.92,536.25 702.5,539C695.08,541.75 679.1,547.6 667,552C654.9,556.4 644.55,560.23 644,560.5C643.45,560.77 643,561 643,561C615.88,570.3 589.33,579.98 566.5,588.5C543.67,597.02 524.1,604.45 523,605C521.64,605.68 530.82,605.84 551.5,605.5C568.27,605.23 584.25,604.77 587,604.5C589.75,604.23 607.3,603.55 626,603C644.7,602.45 662.48,601.77 665.5,601.5C668.52,601.23 671,601 671,601C681.85,601 689.95,600.77 696,600.5L707,600C707.77,595.35 708.23,586.12 708.5,576.5C708.77,566.88 709.23,557.88 709.5,556.5C709.77,555.12 710.67,553.33 711.5,552.5C712.33,551.67 714.12,551 715.5,551C717.17,551 718.67,552 720,554C721.1,555.65 722.45,559.25 723,562C723.55,564.75 724,574.42 724,583.5L724,600C728.65,601.55 730.67,603.12 731.5,604.5C732.33,605.88 733,608.58 733,610.5C733,612.42 732.77,614.45 732.5,615C732.23,615.55 732,616 732,616C725.02,629.17 721.2,636.83 719,641.5C716,647.88 715,651.25 715,655C715,658.67 715.53,660.53 717,662C718.1,663.1 720.12,664.23 721.5,664.5C722.88,664.77 726.02,664.55 728.5,664C730.98,663.45 735.48,661.42 738.5,659.5C741.66,657.49 745.7,653.66 748,650.5C750.2,647.48 752,645 752,645C758.2,634.92 760.9,629.08 762,625.5C763.1,621.92 764.45,615.85 765,612C765.55,608.15 765.77,600.27 765.5,594.5C765.2,588.19 764.2,581.41 763,577.5C761.9,573.92 760.1,568.98 759,566.5C757.9,564.02 754.08,557.5 750.5,552C746.92,546.5 740.4,537.05 736,531C731.6,524.95 725.75,515.5 723,510C720.25,504.5 716.42,495.27 714.5,489.5C712.58,483.73 710.33,474.73 709.5,469.5C708.67,464.27 707.55,455.27 707,449.5C706.45,443.73 706,439 706,439L706,427C704.45,406.07 703.1,392.57 702,383.5C700.9,374.43 699.33,364.3 698.5,361C697.67,357.7 696.77,354.77 696.5,354.5C696.23,354.23 693.52,356.02 690.5,358.5C687.48,360.98 681.62,364.57 677.5,366.5C673.38,368.43 667.08,370.68 663.5,371.5C659.92,372.32 652.95,373 648,373C643.05,373 639,373.23 639,373.5C639,373.77 639.9,375.57 641,377.5C642.1,379.43 643.67,383.02 644.5,385.5C645.33,387.98 646,393.15 646,397C646,401.83 645.38,405.39 644,408.5C642.9,410.98 640.42,414.8 638.5,417C636.39,419.41 632.41,422.19 628.5,424L622,427C622,438.62 621.33,444.25 620.5,447C619.67,449.75 618.33,453.35 617.5,455C616.67,456.65 615.1,459.12 614,460.5C612.9,461.88 610.42,463.68 608.5,464.5C606.58,465.32 602.08,466.23 598.5,466.5C594.92,466.77 590.2,467.9 588,469C585.8,470.1 581.08,471.45 577.5,472C573.92,472.55 568.98,472.77 566.5,472.5C563.63,472.18 560.55,470.91 558,469C555.67,467.25 553.17,464.12 552,461.5C550.9,459.02 549.1,453.85 548,450L546,443C527.37,442.11 523.65,441.44 519,439.5C515.2,437.92 511.72,435.54 509.5,433C507.57,430.8 505.1,427.2 504,425C502.9,422.8 501.55,418.52 501,415.5C500.45,412.48 500.23,408.2 500.5,406C500.77,403.8 501.9,399.07 503,395.5C504.1,391.93 505.45,388.77 506,388.5C506.55,388.23 507,387.55 507,387C507,386.45 503.85,388.48 500,391.5C496.15,394.52 489.62,398.57 485.5,400.5C481.38,402.43 474.4,404.9 470,406C463.84,407.54 458.67,408 447.5,408C436.17,408 431.36,407.56 425.5,406C421.38,404.9 412.82,401.52 406.5,398.5C399.93,395.36 392.43,390.86 389,388C385.7,385.25 380.75,380.3 378,377C375.25,373.7 370.98,366.95 368.5,362C366.02,357.05 363.1,349.62 362,345.5C360.42,339.58 360,334.83 360,323C360,311.17 360.42,306.42 362,300.5C363.1,296.38 366.25,288.27 369,282.5C371.75,276.73 376.48,268.85 379.5,265C382.52,261.15 388.6,255.07 393,251.5C397.76,247.63 404.84,243.18 410.5,240.5C415.73,238.03 423.38,235.1 427.5,234C433.3,232.45 438.17,232 449,232C457.67,232 465.67,232.57 470,233.5C473.85,234.32 480.6,236.35 485,238C489.4,239.65 495.7,242.8 499,245C502.3,247.2 507.7,251.7 511,255C514.3,258.3 519.02,264.15 521.5,268C523.98,271.85 527.35,278.15 529,282C530.65,285.85 532.9,292.82 534,297.5C535.48,303.8 536,309.5 536,319.5C536,329.67 535.51,334.98 534,341C532.9,345.4 530.42,352.38 528.5,356.5L525,364C530.42,360.12 534.25,357.88 537,356.5C540.2,354.9 542.72,352.74 544,350.5C545.1,348.57 548.7,345.2 552,343C555.3,340.8 559.35,338.77 561,338.5C562.65,338.23 564.9,337.55 566,337C567.92,336.04 567.84,335.75 564,329.5C561.8,325.93 558.65,318.95 557,314C554.2,305.6 554,304 554,290C554,276.93 554.32,273.9 556.5,266.5C557.88,261.82 560.8,254.4 563,250C565.2,245.6 569.48,239.07 572.5,235.5C575.52,231.93 580.48,226.97 583.5,224.5C586.52,222.03 593.27,217.97 598.5,215.5C603.73,213.03 610.92,210.32 614.5,209.5C618.08,208.68 623.02,208 625.5,208C628.17,208 629.8,207.59 629.5,207C629.23,206.45 625.4,203.3 621,200C616.6,196.7 608.5,191.75 603,189C597.5,186.25 588.5,182.43 583,180.5C577.5,178.57 569.85,176.55 566,176C562.15,175.45 550.9,175.22 541,175.5C529.69,175.81 518.72,176.74 511.5,178C505.18,179.1 493.48,181.57 485.5,183.5C477.52,185.43 464.25,189.25 456,192C447.75,194.75 434.7,199.7 427,203C419.3,206.3 407.6,211.7 401,215C394.4,218.3 383.15,224.38 376,228.5C368.85,232.62 358.05,239.38 352,243.5C345.95,247.62 335.15,255.5 328,261C320.85,266.5 309.38,275.95 302.5,282C295.62,288.05 288.65,295.02 287,297.5C285.35,299.98 282.43,305.15 280.5,309C278.57,312.85 275.2,321.62 273,328.5C270.8,335.38 267.88,346.4 266.5,353C265.12,359.6 263.1,372.2 262,381C260.88,389.94 259.78,406.26 259.5,418C259.23,429.55 259.45,451.6 260,467C260.55,482.4 261.23,496.12 261.5,497.5C261.77,498.88 262,500 262,500ZM616.5,223C614.58,223.55 609.17,225.8 604.5,228C598.16,230.98 593.96,233.91 588,239.5C583.29,243.92 578.77,249.26 577,252.5C575.35,255.53 572.65,261.82 571,266.5C568.55,273.43 567.91,277.12 567.5,286.5C567.09,295.96 567.36,299.33 569,305.5C570.1,309.62 572.12,315.25 573.5,318C574.88,320.75 577.35,325.02 579,327.5C580.65,329.98 582.67,332.68 583.5,333.5C584.33,334.32 587.7,335.45 591,336C594.3,336.55 599.92,338.35 603.5,340C608.37,342.25 611.13,344.38 614.5,348.5C618.03,352.81 620.19,354.43 624.5,356C627.52,357.1 631.8,358.45 634,359C636.2,359.55 641.38,360 645.5,360C649.83,360 656.17,359.16 660.5,358C664.62,356.9 670.7,354.65 674,353C677.49,351.26 682.72,347.28 686.5,343.5C690.28,339.72 694.26,334.49 696,331C697.65,327.7 699.9,321.62 701,317.5C702.51,311.83 703,306.83 703,297C703,287.17 702.51,282.17 701,276.5C699.9,272.38 697.65,266.07 696,262.5C694.35,258.93 691.65,253.97 690,251.5C688.35,249.03 684.52,244.53 681.5,241.5C678.48,238.47 673.3,234.43 670,232.5C666.7,230.57 659.95,227.65 655,226C647.43,223.48 643.93,222.92 633,222.5C625.66,222.22 618.48,222.44 616.5,223ZM437,246C434.25,246.55 429.75,247.68 427,248.5C424.25,249.32 419.75,251.12 417,252.5C414.25,253.88 409.98,256.35 407.5,258C405.02,259.65 400.98,262.8 398.5,265C396.02,267.2 391.98,271.7 389.5,275C387.02,278.3 383.43,284.15 381.5,288C379.57,291.85 377.1,298.6 376,303C374.51,308.95 374,314.33 374,324C374,335.07 374.37,338.19 376.5,345C377.88,349.4 380.57,355.7 382.5,359C384.43,362.3 389.15,368.15 393,372C396.85,375.85 403.15,380.8 407,383C410.85,385.2 417.6,388.35 422,390C426.4,391.65 433.6,393.45 438,394C442.4,394.55 449.15,394.77 453,394.5C456.85,394.23 463.38,393.1 467.5,392C471.62,390.9 478.15,388.43 482,386.5C485.85,384.57 492.15,380.52 496,377.5C499.85,374.48 504.8,369.75 507,367C509.2,364.25 512.35,359.07 514,355.5C515.65,351.93 517.9,346.3 519,343C520.1,339.7 521.45,333.62 522,329.5C522.55,325.38 522.77,318.85 522.5,315C522.23,311.15 521.33,304.85 520.5,301C519.67,297.15 517.2,290.18 515,285.5C512.8,280.82 508.98,274.3 506.5,271C504.02,267.7 499.52,262.98 496.5,260.5C493.48,258.02 488.07,254.65 484.5,253C480.93,251.35 474.62,249.1 470.5,248C466.38,246.9 458.27,245.78 452.5,245.5C446.73,245.22 439.75,245.45 437,246ZM555,371C555.77,371.77 556,372.23 556,372.5L556,373C559.1,376.1 561.8,377.45 564,378C566.2,378.55 570.48,379 573.5,379C576.52,379 582.15,378.1 586,377C589.85,375.9 595.02,373.65 597.5,372C600.68,369.88 602.29,367.97 603,365.5C603.67,363.17 603.67,361.17 603,359.5C602.45,358.12 600.88,356.1 599.5,355C598.12,353.9 594.75,352.55 592,352C589.25,351.45 582.73,351.23 577.5,351.5C571.07,351.84 566.54,352.65 563.5,354C561.02,355.1 557.88,357.35 556.5,359C555.12,360.65 553.77,363.12 553.5,364.5C553.23,365.88 553.45,367.9 554,369C554.55,370.1 555,371 555,371ZM618,372C615.67,378.2 613.42,381.35 611.5,383C609.58,384.65 605.75,387.12 603,388.5C600.25,389.88 594.85,391.68 591,392.5C587.08,393.34 578.94,394 572.5,394C563.5,394 559.8,393.57 555.5,392C552.48,390.9 547.98,388.2 545.5,386C543.02,383.8 540.1,380.2 539,378C537.9,375.8 536.55,374 536,374C535.45,374 532.3,376.7 529,380C524.83,384.17 521.93,388.29 519.5,393.5C516.48,399.98 516,402.02 516,408.5C516,414.17 516.49,416.86 518,419.5C519.12,421.45 521.99,424.1 524.5,425.5C528.18,427.54 530.37,428 536.5,428C540.72,428 545.75,427.34 548,426.5C550.2,425.68 558.08,421.85 565.5,418C574.82,413.17 580.86,410.69 585,410C589,409.33 592.83,409.33 596.5,410C599.52,410.55 605.83,411.23 610.5,411.5C617.56,411.92 619.76,411.66 623.5,410C625.98,408.9 628.9,406.65 630,405C631.44,402.83 632,400.33 632,396C632,391.6 631.33,388.67 629.5,385C628.12,382.25 624.98,378.2 622.5,376L618,372ZM595,424C595,446.48 595.23,453.23 595.5,453.5C595.77,453.77 597.8,453.77 600,453.5C602.2,453.23 604.45,452.32 605,451.5C605.55,450.68 606.67,447.75 607.5,445C608.33,442.25 609,436.85 609,433C609,429 608.57,426 608,426C607.45,426 604.3,425.55 601,425L595,424ZM575,429C572.25,430.65 567.98,433.12 565.5,434.5L561,437C561.77,447.07 562.67,451.35 563.5,453C564.33,454.65 565.9,456.68 567,457.5C568.49,458.62 570.66,458.87 575.5,458.5C579.08,458.23 582.45,457.77 583,457.5C583.59,457.2 584,451.5 584,443.5C584,436.07 583.77,429.1 583.5,428C583.23,426.9 582.33,426 581.5,426C580.67,426 577.75,427.35 575,429ZM665,499C653.45,503.4 643.55,507 643,507C642.45,507 642,507.45 642,508C642,508.55 645.6,511.93 650,515.5C654.4,519.08 660.7,524.48 664,527.5L670,533C691.7,525.25 698.9,522.77 700,522.5C701.1,522.23 702,521.55 702,521C702,520.45 700.2,515.95 698,511C695.8,506.05 692.65,499.75 691,497C689.35,494.25 687.55,491.77 687,491.5C686.45,491.23 676.55,494.6 665,499ZM580.5,529.5C571.42,533.08 563.55,536 563,536C562.45,536 562,536.45 562,537C562,537.55 564.02,539.35 566.5,541C568.98,542.65 575.5,547.83 581,552.5C586.5,557.17 591.67,561 592.5,561C593.33,561 601.2,558.08 610,554.5C618.8,550.92 626,547.55 626,547C626,546.45 620.83,541.27 614.5,535.5C608.17,529.73 601.65,524.55 600,524C597.39,523.13 594.86,523.84 580.5,529.5ZM515,553.5C515,553.77 508.02,556.48 499.5,559.5C490.98,562.52 484,565.45 484,566C484,566.55 490.3,571.73 498,577.5C505.7,583.27 512.67,588.45 513.5,589C514.6,589.74 519.35,588.29 531.5,583.5C540.58,579.92 548.23,576.55 548.5,576C548.77,575.45 543.83,571.17 537.5,566.5C531.17,561.83 524.42,556.88 522.5,555.5C520.58,554.12 518.1,553 517,553C515.9,553 515,553.23 515,553.5ZM432.5,583C430.02,584.1 427.55,585.45 427,586C426.4,586.6 426.2,590.97 426.5,597C426.85,604.02 427.45,607.45 428.5,608.5C429.32,609.33 433.38,611.8 437.5,614C442.36,616.59 446.06,619.41 448,622C449.65,624.2 451.9,628.02 453,630.5C454.52,633.92 455,637.17 455,644C455,648.95 455.45,653.45 456,654C456.62,654.62 462.65,654.81 472,654.5C486.62,654.01 487.11,653.92 491.5,651C493.98,649.35 496.9,646.42 498,644.5C499.1,642.58 500.23,638.75 500.5,636C500.81,632.92 500.42,629.27 499.5,626.5C498.45,623.36 495.89,619.89 491,615C487.15,611.15 480.4,604.17 476,599.5C471.6,594.83 465.98,589.65 463.5,588C461.02,586.35 456.75,584.1 454,583C450.94,581.78 446.67,581 443,581C439.17,581 435.38,581.72 432.5,583ZM700,617.5C695.59,617.94 694.65,618.47 692,622C690.35,624.2 684.95,631.62 680,638.5C675.05,645.38 671,651.23 671,651.5C671,651.77 676.85,651.77 684,651.5L697,651C700.1,638.6 702.35,631.62 704,627.5C705.65,623.38 707,619.33 707,618.5C707,617.67 706.55,617 706,617C705.45,617 702.75,617.23 700,617.5ZM626.5,618.5L613,619C596.73,644.58 591.77,652.45 591.5,653C591.17,653.66 596.84,653.83 608,653.5C624.48,653.02 625.08,652.92 627.5,650.5C628.88,649.12 633.6,642.83 638,636.5C642.4,630.17 646.9,623.65 648,622C649.1,620.35 650,618.77 650,618.5C650,618.23 647.75,618 645,618C642.25,618 633.92,618.23 626.5,618.5ZM542.5,620.5L532,621C510.37,652.97 509.24,655.06 511,655.5C512.1,655.77 520.42,655.77 529.5,655.5L546,655L570,621C556.83,620.23 548.27,620.23 542.5,620.5ZM674.5,665.5C674.23,665.77 655.33,666.23 632.5,666.5C609.67,666.77 588.52,667.23 585.5,667.5C582.48,667.77 559.08,668.23 533.5,668.5C507.93,668.77 483.18,669.23 478.5,669.5C473.82,669.77 464.38,670 457.5,670C445.5,670 444.9,670.1 442.5,672.5C441.12,673.88 437.75,676.58 435,678.5C430.89,681.38 430,682.53 430,685L430,735C430,760.85 430.23,787.4 430.5,794C430.81,801.38 431.58,807.35 432.5,809.5C433.32,811.42 434.9,813.45 436,814C437.25,814.63 447.13,814.81 462.5,814.5C475.98,814.23 503.2,813.77 523,813.5C542.8,813.23 563.95,812.77 570,812.5C576.05,812.23 595.62,811.77 613.5,811.5C631.38,811.23 655,810.77 666,810.5C677,810.23 691.62,809.77 698.5,809.5L711,809L718,802C717.23,726.83 717,699.38 717,692.5C717,682.06 716.75,680 715.5,680C714.67,680 711.75,678.42 709,676.5C706.05,674.44 703.18,671.36 702,669L700,665C680.62,665 674.77,665.23 674.5,665.5ZM276,812C268.01,815.2 262.58,816.2 257.5,816.5C249.15,816.99 249.05,817.03 252,818.5C253.65,819.33 258.38,820.67 262.5,821.5C266.94,822.39 272.65,822.8 276.5,822.5C280.07,822.23 283.23,821.55 283.5,821C283.77,820.45 282.2,818.2 280,816L276,812ZM616.5,846C614.58,847.1 605.8,851.15 597,855C586.33,859.67 581.33,862.33 582,863C582.55,863.55 589.3,866.02 597,868.5C604.7,870.98 616.85,874.12 624,875.5C631.15,876.88 639.25,878 642,878C644.75,878 647.23,877.55 647.5,877C647.77,876.45 647.33,874.65 646.5,873C645.67,871.35 643.2,868.42 641,866.5C638.33,864.17 637,862.17 637,860.5C637,859.12 637.67,857.77 638.5,857.5C639.33,857.23 642.02,857.67 644.5,858.5C646.98,859.33 650.58,861.58 652.5,863.5C654.42,865.42 656.9,869.02 658,871.5C659.76,875.45 660.24,875.88 662,875C663.1,874.45 664.23,873.55 664.5,873C664.77,872.45 665,869.98 665,867.5C665,865.02 664.33,861.65 663.5,860C662.67,858.35 660.65,855.65 659,854C657.35,852.35 653.52,849.88 650.5,848.5C646.23,846.56 642.21,845.78 632.5,845C620.8,844.06 619.77,844.13 616.5,846ZM347,863C342.35,866.88 340.1,869.35 339,871C337.9,872.65 337,875.58 337,877.5C337,879.42 337.9,883.02 339,885.5C340.1,887.98 343.02,891.8 345.5,894C347.98,896.2 352.02,899.12 354.5,900.5C356.98,901.88 362.82,904.35 367.5,906C372.18,907.65 376.68,909 377.5,909C378.43,909 379,908.06 379,906.5C379,905.12 378.1,901.98 377,899.5C375.9,897.02 372.98,892.98 370.5,890.5C367.83,887.83 366.2,885.39 366.5,884.5C366.77,883.67 367.9,882.77 369,882.5C370.1,882.23 373.25,883.12 376,884.5C379,886 382.6,889 385,892C387.2,894.75 389.9,899.48 391,902.5C392.1,905.52 393,908.45 393,909C393,909.55 395.02,910 397.5,910C399.98,910 404.02,909.33 406.5,908.5C408.98,907.67 411.9,906.1 413,905C414.1,903.9 415.68,902.1 416.5,901C417.32,899.9 418,896.98 418,894.5C418,891.28 417.15,888.58 415,885C413.35,882.25 410.88,879.33 409.5,878.5C408.12,877.67 402.73,876.33 397.5,875.5C392.27,874.67 383.5,872.88 378,871.5C372.5,870.12 363.27,867.65 357.5,866L347,863Z" style="fill:rgb(32,33,29);"/><path d="M479,69C481.2,68.45 487.95,68 494,68C500.5,68 509.7,68.82 516.5,70C522.83,71.1 530.92,73.12 534.5,74.5C538.08,75.88 543.02,78.12 545.5,79.5C547.98,80.88 551.8,84.03 554,86.5C556.2,88.97 559.12,93.03 560.5,95.5C561.88,97.97 563.45,102.7 564,106C564.67,110 564.67,114.17 564,118.5C563.45,122.08 561.65,127.92 560,131.5C558.35,135.07 555.2,140.25 549,148L540.5,148C535.83,148 530.42,148.22 528.5,148.5C526.58,148.78 522.98,149.22 520.5,149.5C518.02,149.78 512.17,150.68 507.5,151.5C502.82,152.32 496.75,153.45 494,154C491.25,154.55 482.7,156.57 475,158.5C467.3,160.43 456.05,163.57 450,165.5C443.95,167.43 433.38,171.25 426.5,174C419.62,176.75 412.88,179.45 411.5,180C410.12,180.55 402.48,184.15 394.5,188C386.52,191.85 374.15,198.38 367,202.5C359.85,206.62 347.48,214.28 339.5,219.5C331.52,224.72 324.32,229.68 323.5,230.5C322.68,231.32 319.75,233.57 317,235.5C314.25,237.43 308.18,242.15 303.5,246C298.82,249.85 292.75,255.03 290,257.5C287.25,259.98 280.27,266.73 274.5,272.5C268.73,278.27 262.65,285.02 261,287.5C258.61,291.08 257.28,292.1 254.5,292.5C252.57,292.77 247.85,292.77 244,292.5C239.57,292.18 234.98,291.08 231.5,289.5C228.47,288.12 224.43,285.43 222.5,283.5C220.57,281.57 217.88,277.52 216.5,274.5C215.12,271.48 213.78,267.65 213.5,266C213.22,264.35 213.45,260.3 214,257C214.55,253.7 215.9,249.2 217,247C218.1,244.8 221.47,239.4 224.5,235C227.53,230.6 235.85,221.15 243,214C250.15,206.85 261.4,196.5 268,191C274.6,185.5 284.27,177.85 289.5,174C294.73,170.15 301.48,165.2 304.5,163C307.52,160.8 313.82,156.3 318.5,153C323.18,149.7 328.35,146.1 330,145C331.65,143.9 342,136.93 353,129.5C364,122.08 380.2,111.72 389,106.5C397.8,101.28 409.73,94.53 415.5,91.5C421.27,88.47 432.98,83.3 441.5,80C450.02,76.7 461.05,73.1 466,72C470.95,70.9 476.8,69.55 479,69Z" style="fill:rgb(49,55,58);"/><path d="M618.5,152C621.7,150.58 625.17,150 630.5,150C636.5,150 639,150.5 643,152.5C646.27,154.14 648.86,156.38 650.5,159C652.55,162.28 653,164.27 653,170C653,175.67 652.43,178.24 650,183.5C648.35,187.07 646.1,190.9 645,192C643.53,193.47 642.6,193.73 641.5,193C640.67,192.45 634.6,188.4 628,184C621.4,179.6 611.73,173.97 597,167L599,164.5C600.1,163.12 603.92,160.2 607.5,158C611.08,155.8 616.02,153.1 618.5,152Z" style="fill:rgb(141,173,173);"/><path d="M706,427C704.45,430.1 703.77,433.02 703.5,435.5C703.09,439.19 703.27,439.91 704.5,439.5C705.33,439.23 706,439 706,439C706,439 706.45,443.73 707,449.5C707.55,455.27 708.67,464.27 709.5,469.5C710.33,474.73 712.58,483.73 714.5,489.5C716.42,495.27 720.25,504.5 723,510C725.75,515.5 731.6,524.95 736,531C740.4,537.05 746.92,546.5 750.5,552C754.08,557.5 757.9,564.02 759,566.5C760.1,568.98 761.9,573.92 763,577.5C764.2,581.41 765.2,588.19 765.5,594.5C765.77,600.27 765.55,608.15 765,612C764.45,615.85 763.1,621.92 762,625.5C760.9,629.08 758.2,634.92 752,645C749.67,637.25 747.2,632.3 745,629C742.8,625.7 738.98,621.42 736.5,619.5C734.02,617.58 732,616 732,616C732,616 732.23,615.55 732.5,615C732.77,614.45 733,612.42 733,610.5C733,608.58 732.33,605.88 731.5,604.5C730.67,603.12 728.65,601.55 724,600L724,583.5C724,574.42 723.55,564.75 723,562C722.45,559.25 721.1,555.65 720,554C718.67,552 717.17,551 715.5,551C714.12,551 712.33,551.67 711.5,552.5C710.67,553.33 709.77,555.12 709.5,556.5C709.23,557.88 708.77,566.88 708.5,576.5C708.23,586.12 707.77,595.35 707,600L696,600.5C689.95,600.77 681.85,601 671,601C664.8,587.83 660.98,581.52 658.5,578.5C656.02,575.48 651.52,570.3 648.5,567C645.48,563.7 643,561 643,561C643,561 643.45,560.77 644,560.5C644.55,560.23 654.9,556.4 667,552C679.1,547.6 695.08,541.75 702.5,539C709.92,536.25 716.9,533.1 718,532C719.33,530.67 720,528.67 720,526C720,523.5 717.75,516.19 714,506.5C710.7,497.98 706.88,487.62 705.5,483.5C703.6,477.79 702.29,475.52 700,474C698.15,472.77 696.04,472.19 694.5,472.5C693.12,472.77 684.12,475.7 674.5,479C664.88,482.3 648.67,487.93 638.5,491.5C628.33,495.07 609.42,501.82 596.5,506.5C583.58,511.18 547.58,524.23 516.5,535.5C485.43,546.77 451.9,558.92 442,562.5C432.1,566.08 421.98,569.9 419.5,571C416.56,572.3 414.3,574.22 413,576.5C411.41,579.29 411,581.83 411,589C411,593.95 410.77,598 410.5,598C410.23,598 407.3,596.65 404,595C400.7,593.35 394.4,589.08 390,585.5C385.6,581.92 380.2,576.52 378,573.5C375.8,570.48 372.88,565.75 371.5,563C370.12,560.25 368.1,557.33 367,556.5C365.9,555.67 363.88,554.77 362.5,554.5C360.9,554.18 359.1,554.72 357.5,556C355.58,557.53 355,558.93 355,562C355,564.57 356.25,568.5 358.5,573C361.17,578.33 364.5,582.5 372.5,590.5C378.27,596.27 385.25,602.58 393,608C383.7,619.62 379.65,625.48 378,628.5C376.35,631.52 374.32,636.25 373.5,639C372.68,641.75 372,647.38 372,651.5L372,659C372,659 366.82,656.52 360.5,653.5C354.18,650.48 345.62,645.75 341.5,643C337.38,640.25 330.62,634.62 326.5,630.5C322.38,626.38 317.2,620.3 315,617C312.8,613.7 309.65,608.08 308,604.5C306.35,600.92 304.1,594.4 303,590C301.9,585.6 300.1,580.88 299,579.5C297.83,578.03 295.97,577 294.5,577C293.12,577 291.1,577.9 290,579C288.53,580.47 288,582.33 288,586C288,588.75 288.9,594.38 290,598.5C291.1,602.62 293.8,609.6 296,614C298.2,618.4 302.48,625.38 305.5,629.5C308.52,633.62 313.93,639.92 317.5,643.5C321.07,647.08 328.5,652.92 334,656.5C339.5,660.08 349.85,665.92 357,669.5C364.15,673.08 374.5,677.35 380,679C385.5,680.65 393.15,682.67 404,685C402.45,685.77 400.88,689.15 399.5,693C398.12,696.85 396.32,705.17 395.5,711.5C394.44,719.65 394.15,728.1 394.5,740.5C394.91,754.86 395.45,759.71 397.5,767.5C398.88,772.73 401.35,779.92 403,783.5C404.65,787.08 407.35,792.02 409,794.5C410.65,796.98 412,799.45 412,800C412,800.55 412.45,800.77 413,800.5C413.55,800.23 414,800 414,800L414,804C414,806.2 414.45,809.8 415,812C415.55,814.2 417.35,818.02 419,820.5C420.65,822.98 423.57,826.12 425.5,827.5C427.43,828.88 430.35,830.45 432,831C433.65,831.55 437.7,832 447,832C446.23,833.55 449.15,836.02 453,838.5C456.85,840.98 463.38,844.58 467.5,846.5C471.62,848.42 477.93,851.12 481.5,852.5C485.07,853.88 488,855 488,855C489.92,858.83 489.54,859.08 484.5,860C481.48,860.55 478.55,861.45 478,862C477.45,862.55 477,863 477,863L461,863C452.2,863 441.4,862.77 429,862C429.77,861.23 429.55,860.55 429,860C428.45,859.45 426.2,859 424,859C421.8,859 419.77,859.45 419.5,860C419.23,860.55 419,861 419,861C419,861 413.82,860.55 407.5,860C401.18,859.45 392.85,858.33 389,857.5C385.15,856.67 378.18,854.88 373.5,853.5C368.82,852.12 361.18,849.65 356.5,848C351.82,846.35 342.82,842.52 336.5,839.5C329.93,836.36 321.36,831.21 316.5,827.5C311.82,823.92 304.62,817.85 300.5,814C296.38,810.15 290.98,804.3 288.5,801C286.02,797.7 281.52,790.95 278.5,786C275.48,781.05 271.2,773.17 269,768.5C266.8,763.83 263.43,755.5 261.5,750C259.57,744.5 256.88,734.83 255.5,728.5C254.12,722.17 252.32,711.83 251.5,705.5C250.68,699.17 249.78,686.35 249.5,677C249.22,667.65 249.45,653.48 250,645.5C250.55,637.52 252.12,620.2 253.5,607C254.88,593.8 257.12,571.75 258.5,558C259.88,544.25 261.23,528.73 262,514C263.55,513.23 264,510.07 264,506.5C264,502.93 263.55,499.55 263,499C262.33,498.33 262,498.33 262,499L262,500C262,500 261.77,498.88 261.5,497.5C261.23,496.12 260.55,482.4 260,467C259.45,451.6 259.23,429.55 259.5,418C259.78,406.26 260.88,389.94 262,381C263.1,372.2 265.12,359.6 266.5,353C267.88,346.4 270.8,335.38 273,328.5C275.2,321.62 278.57,312.85 280.5,309C282.43,305.15 285.35,299.98 287,297.5C288.65,295.02 295.62,288.05 302.5,282C309.38,275.95 320.85,266.5 328,261C335.15,255.5 345.95,247.62 352,243.5C358.05,239.38 368.85,232.62 376,228.5C383.15,224.38 394.4,218.3 401,215C407.6,211.7 419.3,206.3 427,203C434.7,199.7 447.75,194.75 456,192C464.25,189.25 477.52,185.43 485.5,183.5C493.48,181.57 505.18,179.1 511.5,178C518.72,176.74 529.69,175.81 541,175.5C550.9,175.22 562.15,175.45 566,176C569.85,176.55 577.5,178.57 583,180.5C588.5,182.43 597.5,186.25 603,189C608.5,191.75 616.6,196.7 621,200C625.4,203.3 629.23,206.45 629.5,207C629.8,207.59 628.17,208 625.5,208C623.02,208 618.08,208.68 614.5,209.5C610.92,210.32 603.73,213.03 598.5,215.5C593.27,217.97 586.52,222.03 583.5,224.5C580.48,226.97 575.52,231.93 572.5,235.5C569.48,239.07 565.2,245.6 563,250C560.8,254.4 557.88,261.82 556.5,266.5C554.32,273.9 554,276.93 554,290C554,304 554.2,305.6 557,314C558.65,318.95 561.8,325.93 564,329.5C567.84,335.75 567.92,336.04 566,337C564.9,337.55 562.65,338.23 561,338.5C559.35,338.77 555.3,340.8 552,343C548.7,345.2 545.1,348.57 544,350.5C542.72,352.74 540.2,354.9 537,356.5C534.25,357.88 530.42,360.12 525,364L528.5,356.5C530.42,352.38 532.9,345.4 534,341C535.51,334.98 536,329.67 536,319.5C536,309.5 535.48,303.8 534,297.5C532.9,292.82 530.65,285.85 529,282C527.35,278.15 523.98,271.85 521.5,268C519.02,264.15 514.3,258.3 511,255C507.7,251.7 502.3,247.2 499,245C495.7,242.8 489.4,239.65 485,238C480.6,236.35 473.85,234.32 470,233.5C465.67,232.57 457.67,232 449,232C438.17,232 433.3,232.45 427.5,234C423.38,235.1 415.73,238.03 410.5,240.5C404.84,243.18 397.76,247.63 393,251.5C388.6,255.07 382.52,261.15 379.5,265C376.48,268.85 371.75,276.73 369,282.5C366.25,288.27 363.1,296.38 362,300.5C360.42,306.42 360,311.17 360,323C360,334.83 360.42,339.58 362,345.5C363.1,349.62 366.02,357.05 368.5,362C370.98,366.95 375.25,373.7 378,377C380.75,380.3 385.7,385.25 389,388C392.43,390.86 399.93,395.36 406.5,398.5C412.82,401.52 421.38,404.9 425.5,406C431.36,407.56 436.17,408 447.5,408C458.67,408 463.84,407.54 470,406C474.4,404.9 481.38,402.43 485.5,400.5C489.62,398.57 496.15,394.52 500,391.5C503.85,388.48 507,386.45 507,387C507,387.55 506.55,388.23 506,388.5C505.45,388.77 504.1,391.93 503,395.5C501.9,399.07 500.77,403.8 500.5,406C500.23,408.2 500.45,412.48 501,415.5C501.55,418.52 502.9,422.8 504,425C505.1,427.2 507.57,430.8 509.5,433C511.72,435.54 515.2,437.92 519,439.5C523.65,441.44 527.37,442.11 546,443L548,450C549.1,453.85 550.9,459.02 552,461.5C553.17,464.12 555.67,467.25 558,469C560.55,470.91 563.63,472.18 566.5,472.5C568.98,472.77 573.92,472.55 577.5,472C581.08,471.45 585.8,470.1 588,469C590.2,467.9 594.92,466.77 598.5,466.5C602.08,466.23 606.58,465.32 608.5,464.5C610.42,463.68 612.9,461.88 614,460.5C615.1,459.12 616.67,456.65 617.5,455C618.33,453.35 619.67,449.75 620.5,447C621.33,444.25 622,438.62 622,427L628.5,424C632.41,422.19 636.39,419.41 638.5,417C640.42,414.8 642.9,410.98 644,408.5C645.38,405.39 646,401.83 646,397C646,393.15 645.33,387.98 644.5,385.5C643.67,383.02 642.1,379.43 641,377.5C639.9,375.57 639,373.77 639,373.5C639,373.23 643.05,373 648,373C652.95,373 659.92,372.32 663.5,371.5C667.08,370.68 673.38,368.43 677.5,366.5C681.62,364.57 687.48,360.98 690.5,358.5C693.52,356.02 696.23,354.23 696.5,354.5C696.77,354.77 697.67,357.7 698.5,361C699.33,364.3 700.9,374.43 702,383.5C703.1,392.57 704.45,406.07 706,427ZM265,510C265,510.55 265.23,511.23 265.5,511.5C265.77,511.77 266.9,511.77 268,511.5C269.85,511.04 269.81,510.92 267.5,510C265.83,509.33 265,509.33 265,510ZM264.5,519.5C264.23,519.77 264.45,520.45 265,521C265.67,521.67 266.17,521.67 266.5,521C266.77,520.45 266.55,519.77 266,519.5C265.45,519.23 264.77,519.23 264.5,519.5ZM729,560C728.45,560.55 728.23,561.45 728.5,562C728.8,562.59 729.61,562.39 730.5,561.5C731.39,560.61 731.59,559.8 731,559.5C730.45,559.23 729.55,559.45 729,560ZM726,565C726,565.55 726.67,566 727.5,566C728.83,566 728.83,565.89 727.5,565C726.5,564.33 726,564.33 726,565ZM258,724.5C258,724.77 258.23,725 258.5,725C258.77,725 258.77,724.77 258.5,724.5C258.23,724.23 258,724.23 258,724.5Z" style="fill:rgb(139,171,170);"/><path d="M616.5,223C618.48,222.44 625.66,222.22 633,222.5C643.93,222.92 647.43,223.48 655,226C659.95,227.65 666.7,230.57 670,232.5C673.3,234.43 678.48,238.47 681.5,241.5C684.52,244.53 688.35,249.03 690,251.5C691.65,253.97 694.35,258.93 696,262.5C697.65,266.07 699.9,272.38 701,276.5C702.51,282.17 703,287.17 703,297C703,306.83 702.51,311.83 701,317.5C699.9,321.62 697.65,327.7 696,331C694.26,334.49 690.28,339.72 686.5,343.5C682.72,347.28 677.49,351.26 674,353C670.7,354.65 664.62,356.9 660.5,358C656.17,359.16 649.83,360 645.5,360C641.38,360 636.2,359.55 634,359C631.8,358.45 627.52,357.1 624.5,356C620.19,354.43 618.03,352.81 614.5,348.5C611.13,344.38 608.37,342.25 603.5,340C599.92,338.35 594.3,336.55 591,336C587.7,335.45 584.33,334.32 583.5,333.5C582.67,332.68 580.65,329.98 579,327.5C577.35,325.02 574.88,320.75 573.5,318C572.12,315.25 570.1,309.62 569,305.5C567.36,299.33 567.09,295.96 567.5,286.5C567.91,277.12 568.55,273.43 571,266.5C572.65,261.82 575.35,255.53 577,252.5C578.77,249.26 583.29,243.92 588,239.5C593.96,233.91 598.16,230.98 604.5,228C609.17,225.8 614.58,223.55 616.5,223ZM601,277C598.8,278.1 595.42,280.8 593.5,283C591.58,285.2 589.33,288.57 588.5,290.5C587.67,292.43 586.77,296.93 586.5,300.5C586.23,304.07 586.45,308.8 587,311C587.55,313.2 589.35,317.02 591,319.5C592.73,322.09 595.91,325.06 598.5,326.5C601.11,327.95 605.31,329.21 608.5,329.5C612.57,329.87 615.3,329.48 619,328C621.95,326.82 625.44,324.36 627.5,322C629.42,319.8 631.9,315.98 633,313.5C634.64,309.8 634.91,307.58 634.5,301C634.23,296.6 633.33,291.65 632.5,290C631.67,288.35 629.42,285.2 627.5,283C625.58,280.8 622.2,278.1 620,277C617.45,275.73 614,275 610.5,275C607,275 603.55,275.73 601,277Z" style="fill:rgb(247,241,230);"/><path d="M437,246C439.75,245.45 446.73,245.22 452.5,245.5C458.27,245.78 466.38,246.9 470.5,248C474.62,249.1 480.93,251.35 484.5,253C488.07,254.65 493.48,258.02 496.5,260.5C499.52,262.98 504.02,267.7 506.5,271C508.98,274.3 512.8,280.82 515,285.5C517.2,290.18 519.67,297.15 520.5,301C521.33,304.85 522.23,311.15 522.5,315C522.77,318.85 522.55,325.38 522,329.5C521.45,333.62 520.1,339.7 519,343C517.9,346.3 515.65,351.93 514,355.5C512.35,359.07 509.2,364.25 507,367C504.8,369.75 499.85,374.48 496,377.5C492.15,380.52 485.85,384.57 482,386.5C478.15,388.43 471.62,390.9 467.5,392C463.38,393.1 456.85,394.23 453,394.5C449.15,394.77 442.4,394.55 438,394C433.6,393.45 426.4,391.65 422,390C417.6,388.35 410.85,385.2 407,383C403.15,380.8 396.85,375.85 393,372C389.15,368.15 384.43,362.3 382.5,359C380.57,355.7 377.88,349.4 376.5,345C374.37,338.19 374,335.07 374,324C374,314.33 374.51,308.95 376,303C377.1,298.6 379.57,291.85 381.5,288C383.43,284.15 387.02,278.3 389.5,275C391.98,271.7 396.02,267.2 398.5,265C400.98,262.8 405.02,259.65 407.5,258C409.98,256.35 414.25,253.88 417,252.5C419.75,251.12 424.25,249.32 427,248.5C429.75,247.68 434.25,246.55 437,246ZM465,299C462.2,300.68 458.9,303.76 457.5,306C456.12,308.2 454.32,312.02 453.5,314.5C452.68,316.98 452,321.25 452,324C452,326.75 452.68,331.02 453.5,333.5C454.47,336.41 456.94,339.94 460.5,343.5C464.69,347.69 467.07,349.24 470.5,350C472.98,350.55 477.02,350.77 479.5,350.5C481.98,350.23 486.02,348.88 488.5,347.5C490.98,346.12 494.12,343.65 495.5,342C496.88,340.35 498.9,337.2 500,335C501.43,332.14 502,329 502,324C502,319.17 501.38,315.61 500,312.5C498.9,310.02 496.43,306.2 494.5,304C492.57,301.8 489.2,299.1 487,298C484.23,296.62 481,296 476.5,296C471.06,296 469.19,296.49 465,299Z" style="fill:rgb(247,241,230);"/><path d="M601,277C603.55,275.73 607,275 610.5,275C614,275 617.45,275.73 620,277C622.2,278.1 625.58,280.8 627.5,283C629.42,285.2 631.67,288.35 632.5,290C633.33,291.65 634.23,296.6 634.5,301C634.91,307.58 634.64,309.8 633,313.5C631.9,315.98 629.42,319.8 627.5,322C625.44,324.36 621.95,326.82 619,328C615.3,329.48 612.57,329.87 608.5,329.5C605.31,329.21 601.11,327.95 598.5,326.5C595.91,325.06 592.73,322.09 591,319.5C589.35,317.02 587.55,313.2 587,311C586.45,308.8 586.23,304.07 586.5,300.5C586.77,296.93 587.67,292.43 588.5,290.5C589.33,288.57 591.58,285.2 593.5,283C595.42,280.8 598.8,278.1 601,277ZM617,292.5C616.45,293.32 615.77,294.45 615.5,295C615.23,295.55 615.45,297.12 616,298.5C616.79,300.48 617.52,300.9 619.5,300.5C621.17,300.17 622.17,299.17 622.5,297.5C622.77,296.12 622.55,294.1 622,293C621.45,291.9 620.33,291 619.5,291C618.67,291 617.55,291.68 617,292.5Z" style="fill:rgb(32,33,29);"/><path d="M617,292.5C617.55,291.68 618.67,291 619.5,291C620.33,291 621.45,291.9 622,293C622.55,294.1 622.77,296.12 622.5,297.5C622.17,299.17 621.17,300.17 619.5,300.5C617.52,300.9 616.79,300.48 616,298.5C615.45,297.12 615.23,295.55 615.5,295C615.77,294.45 616.45,293.32 617,292.5Z" style="fill:rgb(249,247,238);"/><path d="M465,299C469.19,296.49 471.06,296 476.5,296C481,296 484.23,296.62 487,298C489.2,299.1 492.57,301.8 494.5,304C496.43,306.2 498.9,310.02 500,312.5C501.38,315.61 502,319.17 502,324C502,329 501.43,332.14 500,335C498.9,337.2 496.88,340.35 495.5,342C494.12,343.65 490.98,346.12 488.5,347.5C486.02,348.88 481.98,350.23 479.5,350.5C477.02,350.77 472.98,350.55 470.5,350C467.07,349.24 464.69,347.69 460.5,343.5C456.94,339.94 454.47,336.41 453.5,333.5C452.68,331.02 452,326.75 452,324C452,321.25 452.68,316.98 453.5,314.5C454.32,312.02 456.12,308.2 457.5,306C458.9,303.76 462.2,300.68 465,299ZM483,314.5C482.33,316.17 482.33,317.5 483,318.5C483.55,319.32 484.68,320.45 485.5,321C486.5,321.67 487.5,321.67 488.5,321C489.32,320.45 490,318.65 490,317C490,315.35 489.55,313.55 489,313C488.45,312.45 487.1,312 486,312C484.8,312 483.6,313 483,314.5Z" style="fill:rgb(32,33,29);"/><path d="M483,314.5C483.6,313 484.8,312 486,312C487.1,312 488.45,312.45 489,313C489.55,313.55 490,315.35 490,317C490,318.65 489.32,320.45 488.5,321C487.5,321.67 486.5,321.67 485.5,321C484.68,320.45 483.55,319.32 483,318.5C482.33,317.5 482.33,316.17 483,314.5Z" style="fill:rgb(249,246,238);"/><path d="M556,373C556.77,372.23 556.55,371.77 556,371.5C555.45,371.23 555,371 555,371C555,371 554.55,370.1 554,369C553.45,367.9 553.23,365.88 553.5,364.5C553.77,363.12 555.12,360.65 556.5,359C557.88,357.35 561.02,355.1 563.5,354C566.54,352.65 571.07,351.84 577.5,351.5C582.73,351.23 589.25,351.45 592,352C594.75,352.55 598.12,353.9 599.5,355C600.88,356.1 602.45,358.12 603,359.5C603.67,361.17 603.67,363.17 603,365.5C602.29,367.97 600.68,369.88 597.5,372C595.02,373.65 589.85,375.9 586,377C582.15,378.1 576.52,379 573.5,379C570.48,379 566.2,378.55 564,378C561.8,377.45 559.1,376.1 556,373Z" style="fill:rgb(49,55,58);"/><path d="M556,373L556,372.5C556,372.23 555.77,371.77 555,371C555,371 555.45,371.23 556,371.5C556.55,371.77 556.77,372.23 556,373Z" style="fill:rgb(53,60,64);"/><path d="M618,372L622.5,376C624.98,378.2 628.12,382.25 629.5,385C631.33,388.67 632,391.6 632,396C632,400.33 631.44,402.83 630,405C628.9,406.65 625.98,408.9 623.5,410C619.76,411.66 617.56,411.92 610.5,411.5C605.83,411.23 599.52,410.55 596.5,410C592.83,409.33 589,409.33 585,410C580.86,410.69 574.82,413.17 565.5,418C558.08,421.85 550.2,425.68 548,426.5C545.75,427.34 540.72,428 536.5,428C530.37,428 528.18,427.54 524.5,425.5C521.99,424.1 519.12,421.45 518,419.5C516.49,416.86 516,414.17 516,408.5C516,402.02 516.48,399.98 519.5,393.5C521.93,388.29 524.83,384.17 529,380C532.3,376.7 535.45,374 536,374C536.55,374 537.9,375.8 539,378C540.1,380.2 543.02,383.8 545.5,386C547.98,388.2 552.48,390.9 555.5,392C559.8,393.57 563.5,394 572.5,394C578.94,394 587.08,393.34 591,392.5C594.85,391.68 600.25,389.88 603,388.5C605.75,387.12 609.58,384.65 611.5,383C613.42,381.35 615.67,378.2 618,372Z" style="fill:rgb(224,189,157);"/><path d="M595,424L601,425C604.3,425.55 607.45,426 608,426C608.57,426 609,429 609,433C609,436.85 608.33,442.25 607.5,445C606.67,447.75 605.55,450.68 605,451.5C604.45,452.32 602.2,453.23 600,453.5C597.8,453.77 595.77,453.77 595.5,453.5C595.23,453.23 595,446.48 595,424Z" style="fill:rgb(248,243,233);"/><path d="M575,429C577.75,427.35 580.67,426 581.5,426C582.33,426 583.23,426.9 583.5,428C583.77,429.1 584,436.07 584,443.5C584,451.5 583.59,457.2 583,457.5C582.45,457.77 579.08,458.23 575.5,458.5C570.66,458.87 568.49,458.62 567,457.5C565.9,456.68 564.33,454.65 563.5,453C562.67,451.35 561.77,447.07 561,437L565.5,434.5C567.98,433.12 572.25,430.65 575,429Z" style="fill:rgb(247,242,231);"/><path d="M706,427L706,439C706,439 705.33,439.23 704.5,439.5C703.27,439.91 703.09,439.19 703.5,435.5C703.77,433.02 704.45,430.1 706,427Z" style="fill:rgb(151,187,186);"/><path d="M665,499C676.55,494.6 686.45,491.23 687,491.5C687.55,491.77 689.35,494.25 691,497C692.65,499.75 695.8,506.05 698,511C700.2,515.95 702,520.45 702,521C702,521.55 701.1,522.23 700,522.5C698.9,522.77 691.7,525.25 670,533L664,527.5C660.7,524.48 654.4,519.08 650,515.5C645.6,511.93 642,508.55 642,508C642,507.45 642.45,507 643,507C643.55,507 653.45,503.4 665,499Z" style="fill:rgb(247,241,231);"/><path d="M262,514L262,499C262,498.33 262.33,498.33 263,499C263.55,499.55 264,502.93 264,506.5C264,510.07 263.55,513.23 262,514Z" style="fill:rgb(155,191,192);"/><path d="M265,510C265,509.33 265.83,509.33 267.5,510C269.81,510.92 269.85,511.04 268,511.5C266.9,511.77 265.77,511.77 265.5,511.5C265.23,511.23 265,510.55 265,510Z" style="fill:rgb(133,164,164);"/><path d="M264.5,519.5C264.77,519.23 265.45,519.23 266,519.5C266.55,519.77 266.77,520.45 266.5,521C266.17,521.67 265.67,521.67 265,521C264.45,520.45 264.23,519.77 264.5,519.5Z" style="fill:rgb(129,162,160);"/><path d="M580.5,529.5C594.86,523.84 597.39,523.13 600,524C601.65,524.55 608.17,529.73 614.5,535.5C620.83,541.27 626,546.45 626,547C626,547.55 618.8,550.92 610,554.5C601.2,558.08 593.33,561 592.5,561C591.67,561 586.5,557.17 581,552.5C575.5,547.83 568.98,542.65 566.5,541C564.02,539.35 562,537.55 562,537C562,536.45 562.45,536 563,536C563.55,536 571.42,533.08 580.5,529.5Z" style="fill:rgb(247,241,231);"/><path d="M515,553.5C515,553.23 515.9,553 517,553C518.1,553 520.58,554.12 522.5,555.5C524.42,556.88 531.17,561.83 537.5,566.5C543.83,571.17 548.77,575.45 548.5,576C548.23,576.55 540.58,579.92 531.5,583.5C519.35,588.29 514.6,589.74 513.5,589C512.67,588.45 505.7,583.27 498,577.5C490.3,571.73 484,566.55 484,566C484,565.45 490.98,562.52 499.5,559.5C508.02,556.48 515,553.77 515,553.5Z" style="fill:rgb(247,241,231);"/><path d="M729,560C729.55,559.45 730.45,559.23 731,559.5C731.59,559.8 731.39,560.61 730.5,561.5C729.61,562.39 728.8,562.59 728.5,562C728.23,561.45 728.45,560.55 729,560Z" style="fill:rgb(144,177,176);"/><path d="M643,561C643,561 645.48,563.7 648.5,567C651.52,570.3 656.02,575.48 658.5,578.5C660.98,581.52 664.8,587.83 671,601C671,601 668.52,601.23 665.5,601.5C662.48,601.77 644.7,602.45 626,603C607.3,603.55 589.75,604.23 587,604.5C584.25,604.77 568.27,605.23 551.5,605.5C530.82,605.84 521.64,605.68 523,605C524.1,604.45 543.67,597.02 566.5,588.5C589.33,579.98 615.88,570.3 643,561Z" style="fill:rgb(224,189,157);"/><path d="M726,565C726,564.33 726.5,564.33 727.5,565C728.83,565.89 728.83,566 727.5,566C726.67,566 726,565.55 726,565Z" style="fill:rgb(135,167,169);"/><path d="M432.5,583C435.38,581.72 439.17,581 443,581C446.67,581 450.94,581.78 454,583C456.75,584.1 461.02,586.35 463.5,588C465.98,589.65 471.6,594.83 476,599.5C480.4,604.17 487.15,611.15 491,615C495.89,619.89 498.45,623.36 499.5,626.5C500.42,629.27 500.81,632.92 500.5,636C500.23,638.75 499.1,642.58 498,644.5C496.9,646.42 493.98,649.35 491.5,651C487.11,653.92 486.62,654.01 472,654.5C462.65,654.81 456.62,654.62 456,654C455.45,653.45 455,648.95 455,644C455,637.17 454.52,633.92 453,630.5C451.9,628.02 449.65,624.2 448,622C446.06,619.41 442.36,616.59 437.5,614C433.38,611.8 429.32,609.33 428.5,608.5C427.45,607.45 426.85,604.02 426.5,597C426.2,590.97 426.4,586.6 427,586C427.55,585.45 430.02,584.1 432.5,583ZM439.5,596.5C437.67,598.33 437,600.07 437,603C437,605.67 437.67,607.67 439,609C440.33,610.33 442.33,611 445,611C448.11,611 449.67,610.33 452,608C454,606 455,604 455,602C455,600.13 454.06,598.06 452.5,596.5C450.67,594.67 448.93,594 446,594C443.07,594 441.33,594.67 439.5,596.5ZM481,628.5C480.45,628.77 478.65,629.45 477,630C475.27,630.58 473.37,632.27 472.5,634C471.37,636.27 471.24,637.73 472,640C472.67,642 474.17,643.5 476.5,644.5C479.17,645.64 480.83,645.76 483.5,645C485.83,644.33 487.5,643 488.5,641C489.32,639.35 490,636.88 490,635.5C490,634.12 489.32,632.33 488.5,631.5C487.68,630.67 485.88,629.55 484.5,629C483.12,628.45 481.55,628.23 481,628.5Z" style="fill:rgb(49,55,58);"/><path d="M439.5,596.5C441.33,594.67 443.07,594 446,594C448.93,594 450.67,594.67 452.5,596.5C454.06,598.06 455,600.13 455,602C455,604 454,606 452,608C449.67,610.33 448.11,611 445,611C442.33,611 440.33,610.33 439,609C437.67,607.67 437,605.67 437,603C437,600.07 437.67,598.33 439.5,596.5Z" style="fill:rgb(34,35,30);"/><path d="M393,608C393,608 395.25,609.12 398,610.5C400.75,611.88 406.6,614.58 411,616.5C415.4,618.42 422.15,621.8 426,624C429.85,626.2 434.12,629.35 435.5,631C436.88,632.65 438.45,635.8 439,638C439.55,640.2 439.77,643.58 439.5,645.5C439.18,647.72 438.45,649 437.5,649C436.68,649 433.3,647.65 430,646C426.7,644.35 422.88,643 421.5,643C419.77,643 418.69,643.77 418,645.5C417.25,647.37 417.38,648.63 418.5,650.5C419.32,651.88 422.7,654.35 426,656C429.3,657.65 432,659.45 432,660C432,660.55 430.2,662.12 428,663.5C425.8,664.88 422.2,666.67 420,667.5C417.8,668.33 413.98,669 411.5,669C409.02,669 402.95,668.1 398,667C393.05,665.9 385.18,663.65 372,659L372,651.5C372,647.38 372.68,641.75 373.5,639C374.32,636.25 376.35,631.52 378,628.5C379.65,625.48 383.7,619.62 393,608Z" style="fill:rgb(223,189,157);"/><path d="M732,616C732,616 734.02,617.58 736.5,619.5C738.98,621.42 742.8,625.7 745,629C747.2,632.3 749.67,637.25 752,645C752,645 750.2,647.48 748,650.5C745.7,653.66 741.66,657.49 738.5,659.5C735.48,661.42 730.98,663.45 728.5,664C726.02,664.55 722.88,664.77 721.5,664.5C720.12,664.23 718.1,663.1 717,662C715.53,660.53 715,658.67 715,655C715,651.25 716,647.88 719,641.5C721.2,636.83 725.02,629.17 732,616Z" style="fill:rgb(224,189,157);"/><path d="M700,617.5C702.75,617.23 705.45,617 706,617C706.55,617 707,617.67 707,618.5C707,619.33 705.65,623.38 704,627.5C702.35,631.62 700.1,638.6 697,651L684,651.5C676.85,651.77 671,651.77 671,651.5C671,651.23 675.05,645.38 680,638.5C684.95,631.62 690.35,624.2 692,622C694.65,618.47 695.59,617.94 700,617.5Z" style="fill:rgb(247,242,232);"/><path d="M626.5,618.5C633.92,618.23 642.25,618 645,618C647.75,618 650,618.23 650,618.5C650,618.77 649.1,620.35 648,622C646.9,623.65 642.4,630.17 638,636.5C633.6,642.83 628.88,649.12 627.5,650.5C625.08,652.92 624.48,653.02 608,653.5C596.84,653.83 591.17,653.66 591.5,653C591.77,652.45 596.73,644.58 613,619L626.5,618.5Z" style="fill:rgb(247,241,230);"/><path d="M542.5,620.5C548.27,620.23 556.83,620.23 570,621L546,655L529.5,655.5C520.42,655.77 512.1,655.77 511,655.5C509.24,655.06 510.37,652.97 532,621L542.5,620.5Z" style="fill:rgb(247,241,230);"/><path d="M481,628.5C481.55,628.23 483.12,628.45 484.5,629C485.88,629.55 487.68,630.67 488.5,631.5C489.32,632.33 490,634.12 490,635.5C490,636.88 489.32,639.35 488.5,641C487.5,643 485.83,644.33 483.5,645C480.83,645.76 479.17,645.64 476.5,644.5C474.17,643.5 472.67,642 472,640C471.24,637.73 471.37,636.27 472.5,634C473.37,632.27 475.27,630.58 477,630C478.65,629.45 480.45,628.77 481,628.5Z" style="fill:rgb(34,35,30);"/><path d="M674.5,665.5C674.77,665.23 680.62,665 700,665L702,669C703.18,671.36 706.05,674.44 709,676.5C711.75,678.42 714.67,680 715.5,680C716.75,680 717,682.06 717,692.5C717,699.38 717.23,726.83 718,802L711,809L698.5,809.5C691.62,809.77 677,810.23 666,810.5C655,810.77 631.38,811.23 613.5,811.5C595.62,811.77 576.05,812.23 570,812.5C563.95,812.77 542.8,813.23 523,813.5C503.2,813.77 475.98,814.23 462.5,814.5C447.13,814.81 437.25,814.63 436,814C434.9,813.45 433.32,811.42 432.5,809.5C431.58,807.35 430.81,801.38 430.5,794C430.23,787.4 430,760.85 430,735L430,685C430,682.53 430.89,681.38 435,678.5C437.75,676.58 441.12,673.88 442.5,672.5C444.9,670.1 445.5,670 457.5,670C464.38,670 473.82,669.77 478.5,669.5C483.18,669.23 507.93,668.77 533.5,668.5C559.08,668.23 582.48,667.77 585.5,667.5C588.52,667.23 609.67,666.77 632.5,666.5C655.33,666.23 674.23,665.77 674.5,665.5ZM668,702.5C663.05,702.77 630.65,703.67 596,704.5C561.35,705.33 525.8,706.23 517,706.5C508.2,706.77 488.85,707.23 474,707.5L447,708L447,718C471.8,718 490.7,717.55 505,717C522.33,716.33 531.33,716.33 532,717C532.58,717.58 533.21,728.21 533.5,742.5L534,767C514.62,767.77 495.27,768.45 478.5,769L448,770L448,779C458.85,779 477.07,778.77 495.5,778.5C513.92,778.23 537.1,777.77 547,777.5C556.9,777.23 570.4,776.77 577,776.5C583.6,776.23 611.27,775.55 638.5,775C665.73,774.45 690.92,773.77 694.5,773.5L701,773L701,763C671.55,763.77 645.67,764.45 624.5,765C603.33,765.55 576.55,766.23 565,766.5L544,767C543.18,726.82 543.36,717.64 544,717C544.55,716.45 552.88,715.77 562.5,715.5C572.12,715.23 600.92,714.55 626.5,714C652.08,713.45 679.08,712.77 686.5,712.5L700,712L700,702C682.17,702 672.95,702.23 668,702.5Z" style="fill:rgb(48,54,56);"/><path d="M404,685L407.5,685C409.72,685 411.18,685.55 411.5,686.5C411.77,687.33 412.23,699.92 412.5,714.5C412.77,729.08 413.23,754.27 414,800C414,800 413.55,800.23 413,800.5C412.45,800.77 412,800.55 412,800C412,799.45 410.65,796.98 409,794.5C407.35,792.02 404.65,787.08 403,783.5C401.35,779.92 398.88,772.73 397.5,767.5C395.45,759.71 394.91,754.86 394.5,740.5C394.15,728.1 394.44,719.65 395.5,711.5C396.32,705.17 398.12,696.85 399.5,693C400.88,689.15 402.45,685.77 404,685Z" style="fill:rgb(224,189,157);"/><path d="M668,702.5C672.95,702.23 682.17,702 700,702L700,712L686.5,712.5C679.08,712.77 652.08,713.45 626.5,714C600.92,714.55 572.12,715.23 562.5,715.5C552.88,715.77 544.55,716.45 544,717C543.36,717.64 543.18,726.82 544,767L565,766.5C576.55,766.23 603.33,765.55 624.5,765C645.67,764.45 671.55,763.77 701,763L701,773L694.5,773.5C690.92,773.77 665.73,774.45 638.5,775C611.27,775.55 583.6,776.23 577,776.5C570.4,776.77 556.9,777.23 547,777.5C537.1,777.77 513.92,778.23 495.5,778.5C477.07,778.77 458.85,779 448,779L448,770L478.5,769C495.27,768.45 514.62,767.77 534,767L533.5,742.5C533.21,728.21 532.58,717.58 532,717C531.33,716.33 522.33,716.33 505,717C490.7,717.55 471.8,718 447,718L447,708L474,707.5C488.85,707.23 508.2,706.77 517,706.5C525.8,706.23 561.35,705.33 596,704.5C630.65,703.67 663.05,702.77 668,702.5Z" style="fill:rgb(246,241,232);"/><path d="M258,724.5C258,724.23 258.23,724.23 258.5,724.5C258.77,724.77 258.77,725 258.5,725C258.23,725 258,724.77 258,724.5Z" style="fill:rgb(122,155,153);"/><path d="M276,812L280,816C282.2,818.2 283.77,820.45 283.5,821C283.23,821.55 280.07,822.23 276.5,822.5C272.65,822.8 266.94,822.39 262.5,821.5C258.38,820.67 253.65,819.33 252,818.5C249.05,817.03 249.15,816.99 257.5,816.5C262.58,816.2 268.01,815.2 276,812Z" style="fill:rgb(230,198,165);"/><path d="M512,859C495.73,855.9 490.32,855 489.5,855L488,855C488,855 485.07,853.88 481.5,852.5C477.93,851.12 471.62,848.42 467.5,846.5C463.38,844.58 456.85,840.98 453,838.5C449.15,836.02 446.23,833.55 447,832C447,832 480.3,831.33 521,830.5C561.7,829.67 598.6,829 603,829C610.11,829 610.83,829.17 609.5,830.5C608.67,831.33 601.02,834.92 592.5,838.5C583.98,842.08 572.73,846.35 567.5,848C562.27,849.65 550.12,852.58 540.5,854.5C530.88,856.42 520.52,858.23 512,859Z" style="fill:rgb(224,190,158);"/><path d="M616.5,846C619.77,844.13 620.8,844.06 632.5,845C642.21,845.78 646.23,846.56 650.5,848.5C653.52,849.88 657.35,852.35 659,854C660.65,855.65 662.67,858.35 663.5,860C664.33,861.65 665,865.02 665,867.5C665,869.98 664.77,872.45 664.5,873C664.23,873.55 663.1,874.45 662,875C660.24,875.88 659.76,875.45 658,871.5C656.9,869.02 654.42,865.42 652.5,863.5C650.58,861.58 646.98,859.33 644.5,858.5C642.02,857.67 639.33,857.23 638.5,857.5C637.67,857.77 637,859.12 637,860.5C637,862.17 638.33,864.17 641,866.5C643.2,868.42 645.67,871.35 646.5,873C647.33,874.65 647.77,876.45 647.5,877C647.23,877.55 644.75,878 642,878C639.25,878 631.15,876.88 624,875.5C616.85,874.12 604.7,870.98 597,868.5C589.3,866.02 582.55,863.55 582,863C581.33,862.33 586.33,859.67 597,855C605.8,851.15 614.58,847.1 616.5,846Z" style="fill:rgb(225,191,159);"/><path d="M488,855L489.5,855C490.32,855 495.73,855.9 512,859C512,859 511.55,859.23 511,859.5C510.45,859.77 503.02,860.67 479,863C478.23,862.23 478,862.23 478,862.5L478,863L477,863C477,863 477.45,862.55 478,862C478.55,861.45 481.48,860.55 484.5,860C489.54,859.08 489.92,858.83 488,855Z" style="fill:rgb(142,179,181);"/><path d="M429,862C429,862 428.32,861.77 427.5,861.5C426.68,861.23 424.43,861 419,861C419,861 419.23,860.55 419.5,860C419.77,859.45 421.8,859 424,859C426.2,859 428.45,859.45 429,860C429.55,860.55 429.77,861.23 429,862Z" style="fill:rgb(155,191,191);"/><path d="M479,863L478,863L478,862.5C478,862.23 478.23,862.23 479,863Z" style="fill:rgb(139,171,170);"/><path d="M347,863L357.5,866C363.27,867.65 372.5,870.12 378,871.5C383.5,872.88 392.27,874.67 397.5,875.5C402.73,876.33 408.12,877.67 409.5,878.5C410.88,879.33 413.35,882.25 415,885C417.15,888.58 418,891.28 418,894.5C418,896.98 417.32,899.9 416.5,901C415.68,902.1 414.1,903.9 413,905C411.9,906.1 408.98,907.67 406.5,908.5C404.02,909.33 399.98,910 397.5,910C395.02,910 393,909.55 393,909C393,908.45 392.1,905.52 391,902.5C389.9,899.48 387.2,894.75 385,892C382.6,889 379,886 376,884.5C373.25,883.12 370.1,882.23 369,882.5C367.9,882.77 366.77,883.67 366.5,884.5C366.2,885.39 367.83,887.83 370.5,890.5C372.98,892.98 375.9,897.02 377,899.5C378.1,901.98 379,905.12 379,906.5C379,908.06 378.43,909 377.5,909C376.68,909 372.18,907.65 367.5,906C362.82,904.35 356.98,901.88 354.5,900.5C352.02,899.12 347.98,896.2 345.5,894C343.02,891.8 340.1,887.98 339,885.5C337.9,883.02 337,879.42 337,877.5C337,875.58 337.9,872.65 339,871C340.1,869.35 342.35,866.88 347,863Z" style="fill:rgb(224,190,159);"/></g></g></svg>